<svg width="252" height="58" viewBox="0 0 252 58" fill="none" xmlns="http://www.w3.org/2000/svg">
<rect width="58" height="58" rx="5.8" fill="white"/>
<path d="M26.402 39.8156H9.11328L11.8265 33.5414C12.623 31.6994 14.438 30.5068 16.4449 30.5068H37.0398L35.6389 33.7464C34.0458 37.4305 30.4158 39.8156 26.402 39.8156Z" fill="#00009F"/>
<path d="M40.7247 27.5383H16.4062L17.8072 24.2987C19.4003 20.6146 23.0303 18.2295 27.0441 18.2295H48.0563L45.3432 24.5037C44.5466 26.3457 42.7316 27.5383 40.7247 27.5383Z" fill="#00009F"/>
<path d="M79.9464 15.0152C80.4726 14.9625 80.8739 15.0349 81.1502 15.2324C81.4264 15.4299 81.5645 15.7393 81.5645 16.1607C81.5645 16.977 81.1172 17.4248 80.2226 17.5038L79.078 17.5828C77.5781 17.6881 76.4597 18.1424 75.7229 18.9456C74.9862 19.7488 74.5521 20.9537 74.4204 22.5601L74.3415 23.6661H78.6438C79.0648 23.6661 79.3872 23.778 79.6109 24.0019C79.8345 24.2257 79.9464 24.522 79.9464 24.8907C79.9464 25.2858 79.8279 25.6017 79.591 25.8387C79.3543 26.0758 79.0122 26.1942 78.5649 26.1942H74.1441L72.9205 41.5606C72.8942 42.0609 72.7232 42.4428 72.4075 42.7062C72.0917 42.9695 71.7101 43.1012 71.2628 43.1012C70.8155 43.1012 70.4405 42.9695 70.1379 42.7062C69.8353 42.4428 69.6972 42.0609 69.7235 41.5606L70.947 26.1942H68.3025C67.8815 26.1942 67.5591 26.0823 67.3355 25.8584C67.1118 25.6346 67 25.3384 67 24.9697C67 24.5747 67.1184 24.2587 67.3552 24.0216C67.5921 23.7847 67.9472 23.6661 68.421 23.6661H71.1444L71.1839 22.9551C71.368 20.4006 72.118 18.4847 73.4337 17.2075C74.7494 15.9302 76.6571 15.2127 79.1569 15.0546L79.9464 15.0152Z" fill="white"/>
<path d="M83.8527 43.1015C83.4054 43.1015 83.037 42.9697 82.7476 42.7064C82.4581 42.443 82.3265 42.048 82.3529 41.5212L84.3658 16.319C84.3921 15.8185 84.5764 15.4433 84.9185 15.1932C85.2606 14.9429 85.6553 14.8179 86.1026 14.8179C86.5499 14.8179 86.9117 14.9429 87.1879 15.1932C87.4643 15.4433 87.5893 15.8185 87.563 16.319L85.5499 41.5212C85.5236 42.048 85.3461 42.443 85.0171 42.7064C84.6882 42.9697 84.3001 43.1015 83.8527 43.1015Z" fill="white"/>
<path d="M106.785 23.2729C107.259 23.2729 107.634 23.4112 107.91 23.6877C108.187 23.9642 108.298 24.3527 108.246 24.853L106.904 41.6414C106.878 42.0891 106.7 42.4447 106.371 42.7081C106.042 42.9713 105.654 43.1031 105.207 43.1031C104.759 43.1031 104.404 42.9779 104.141 42.7278C103.878 42.4776 103.759 42.1286 103.786 41.681L103.943 39.7848C103.286 40.8646 102.404 41.7007 101.299 42.2932C100.194 42.8857 98.9571 43.182 97.5887 43.182C95.4574 43.182 93.8391 42.6225 92.7339 41.5032C91.6287 40.384 91.0762 38.7446 91.0762 36.5851C91.0762 36.1112 91.0893 35.7556 91.1156 35.5186L91.9445 24.853C91.9971 24.3527 92.1878 23.9642 92.5168 23.6877C92.8457 23.4112 93.2338 23.2729 93.6813 23.2729C94.1549 23.2729 94.5299 23.4112 94.8061 23.6877C95.0824 23.9642 95.1942 24.3527 95.1416 24.853L94.3127 35.3211C94.2864 35.5054 94.2733 35.7819 94.2733 36.1506C94.2733 39.0475 95.6548 40.4959 98.4177 40.4959C100.128 40.4959 101.496 39.9691 102.523 38.9158C103.549 37.8624 104.128 36.4009 104.259 34.5311L105.049 24.853C105.101 24.3527 105.292 23.9642 105.621 23.6877C105.95 23.4112 106.338 23.2729 106.785 23.2729Z" fill="white"/>
<path d="M115.191 33.7784V33.9365C115.191 36.0432 115.711 37.6759 116.75 38.8346C117.79 39.9934 119.296 40.5728 121.27 40.5728C123.348 40.5728 125.177 39.9934 126.756 38.8346C127.019 38.6504 127.282 38.5582 127.546 38.5582C127.861 38.5582 128.118 38.6767 128.315 38.9137C128.513 39.1507 128.611 39.4272 128.611 39.7432C128.611 40.2173 128.401 40.6518 127.98 41.0468C127.269 41.6789 126.276 42.1924 125 42.5874C123.723 42.9825 122.428 43.18 121.112 43.18C118.323 43.18 116.106 42.3373 114.461 40.6518C112.816 38.9664 111.994 36.7016 111.994 33.8574C111.994 31.7507 112.382 29.8941 113.159 28.2876C113.935 26.6812 115.04 25.4302 116.474 24.5349C117.908 23.6396 119.573 23.1919 121.467 23.1919C124.046 23.1919 126.019 23.9621 127.388 25.5027C128.756 27.0432 129.44 29.2752 129.44 32.1983C129.44 32.6986 129.309 33.0872 129.045 33.3637C128.782 33.6401 128.427 33.7784 127.98 33.7784H115.191ZM121.586 25.6805C119.822 25.6805 118.415 26.2006 117.362 27.2408C116.31 28.2811 115.639 29.7756 115.349 31.7243H126.559C126.638 29.7492 126.236 28.2481 125.355 27.221C124.473 26.1939 123.217 25.6805 121.586 25.6805Z" fill="white"/>
<path d="M144.123 23.1919C146.281 23.1919 147.926 23.7581 149.057 24.8905C150.189 26.0229 150.754 27.6687 150.754 29.8282C150.754 30.3022 150.741 30.6578 150.715 30.8947L149.886 41.5208C149.834 42.0476 149.649 42.4426 149.334 42.706C149.018 42.9692 148.636 43.101 148.189 43.101C147.689 43.101 147.301 42.9692 147.025 42.706C146.748 42.4426 146.636 42.0476 146.689 41.5208L147.518 31.0922C147.544 30.908 147.557 30.6315 147.557 30.2628C147.557 27.3396 146.15 25.878 143.334 25.878C141.545 25.878 140.124 26.4113 139.071 27.4778C138.019 28.5443 137.414 30.0125 137.256 31.8823L136.466 41.5208C136.44 42.0476 136.269 42.4426 135.953 42.706C135.637 42.9692 135.243 43.101 134.769 43.101C134.295 43.101 133.92 42.9692 133.644 42.706C133.368 42.4426 133.243 42.0476 133.269 41.5208L134.651 24.772C134.677 24.298 134.854 23.9293 135.183 23.6659C135.512 23.4025 135.9 23.2709 136.348 23.2709C136.795 23.2709 137.15 23.4025 137.414 23.6659C137.677 23.9293 137.795 24.2847 137.769 24.7324L137.611 26.6285C138.269 25.5488 139.163 24.7061 140.295 24.1005C141.426 23.4947 142.702 23.1919 144.123 23.1919Z" fill="white"/>
<path d="M160.427 35.9511C160.401 36.1355 160.388 36.3989 160.388 36.7411C160.388 38.0053 160.677 38.9665 161.256 39.6248C161.835 40.2832 162.65 40.6125 163.703 40.6125C164.045 40.6125 164.374 40.5926 164.69 40.5532C165.006 40.5136 165.242 40.4939 165.4 40.4939C165.663 40.4939 165.881 40.5992 166.052 40.81C166.223 41.0206 166.308 41.3103 166.308 41.679C166.308 42.232 166.078 42.6205 165.617 42.8443C165.157 43.0682 164.348 43.1801 163.19 43.1801C161.295 43.1801 159.822 42.6402 158.769 41.5604C157.717 40.4807 157.19 38.9533 157.19 36.9782C157.19 36.6095 157.204 36.3198 157.23 36.1092L157.98 26.1941H155.375C154.954 26.1941 154.631 26.0821 154.408 25.8583C154.184 25.6345 154.072 25.3383 154.072 24.9696C154.072 24.5482 154.197 24.2256 154.447 24.0017C154.697 23.7779 155.046 23.666 155.493 23.666H158.177L158.532 19.1627C158.585 18.715 158.763 18.353 159.065 18.0765C159.368 17.7999 159.756 17.6616 160.23 17.6616C160.73 17.6616 161.118 17.8065 161.394 18.0962C161.67 18.3859 161.782 18.7677 161.73 19.2417L161.374 23.666H165.716C166.111 23.666 166.427 23.7779 166.663 24.0017C166.9 24.2256 167.019 24.5219 167.019 24.8906C167.019 25.3119 166.9 25.6345 166.663 25.8583C166.427 26.0821 166.084 26.1941 165.637 26.1941H161.177L160.427 35.9511Z" fill="white"/>
<path d="M251.801 27.1697H246.868V36.7178C246.868 37.54 247.054 38.1367 247.425 38.508C247.796 38.8528 248.34 39.0518 249.056 39.1048C249.799 39.1313 250.714 39.1181 251.801 39.065V42.9241C248.512 43.3219 246.152 43.0434 244.72 42.0886C243.287 41.1073 242.571 39.317 242.571 36.7178V27.1697H238.911V23.0321H242.571V18.7355L246.868 17.4624V23.0321H251.801V27.1697Z" fill="white"/>
<path d="M230.893 26.3737C231.981 23.9071 234.023 22.6738 237.02 22.6738V27.3285C235.376 27.2224 233.943 27.6203 232.723 28.522C231.503 29.3973 230.893 30.856 230.893 32.8983V42.9238H226.597V23.0319H230.893V26.3737Z" fill="white"/>
<path d="M217.292 23.0318H221.589V42.9237H217.292V40.0593C215.674 42.3137 213.354 43.4409 210.33 43.4409C207.598 43.4409 205.264 42.4331 203.328 40.4174C201.392 38.3751 200.424 35.8953 200.424 32.9778C200.424 30.0338 201.392 27.5539 203.328 25.5382C205.264 23.5225 207.598 22.5146 210.33 22.5146C213.354 22.5146 215.674 23.6286 217.292 25.8565V23.0318ZM206.511 37.5529C207.704 38.7464 209.203 39.3432 211.006 39.3432C212.81 39.3432 214.308 38.7464 215.502 37.5529C216.695 36.3329 217.292 34.8078 217.292 32.9778C217.292 31.1477 216.695 29.636 215.502 28.4424C214.308 27.2224 212.81 26.6124 211.006 26.6124C209.203 26.6124 207.704 27.2224 206.511 28.4424C205.317 29.636 204.72 31.1477 204.72 32.9778C204.72 34.8078 205.317 36.3329 206.511 37.5529Z" fill="white"/>
<path d="M186.079 43.4417C181.889 43.4417 178.414 42.0625 175.656 39.3041C172.898 36.5193 171.519 33.0846 171.519 29.0001C171.519 24.9156 172.898 21.4942 175.656 18.7359C178.414 15.951 181.889 14.5586 186.079 14.5586C188.599 14.5586 190.92 15.1554 193.042 16.3489C195.19 17.5424 196.861 19.1603 198.054 21.2025L194.076 23.51C193.333 22.1308 192.246 21.0434 190.814 20.2477C189.408 19.4255 187.83 19.0144 186.079 19.0144C183.109 19.0144 180.695 19.9559 178.839 21.839C177.009 23.7221 176.094 26.1092 176.094 29.0001C176.094 31.8911 177.009 34.2781 178.839 36.1612C180.695 38.0443 183.109 38.9859 186.079 38.9859C187.83 38.9859 189.421 38.588 190.853 37.7923C192.286 36.9701 193.36 35.8695 194.076 34.4903L198.054 36.758C196.887 38.8002 195.23 40.4313 193.081 41.6514C190.96 42.8449 188.626 43.4417 186.079 43.4417Z" fill="white"/>
</svg>
