<svg xmlns="http://www.w3.org/2000/svg" width="73" height="10" viewBox="0 0 73 10" fill="none">
<path fill-rule="evenodd" clip-rule="evenodd" d="M19.0129 0.466319C19.8419 0.339143 20.6641 0.17052 21.4851 0C21.4851 1.42495 21.4851 2.84933 21.4851 4.27371C21.9977 3.78386 22.6739 3.3907 23.405 3.43471C23.9523 3.44958 24.5213 3.68955 24.8172 4.16949C25.1361 4.65818 25.1559 5.26274 25.1423 5.827C25.1435 6.65672 25.1374 7.48704 25.1448 8.3167C25.1578 8.50836 25.1448 8.75203 25.3212 8.87731C25.5045 8.98895 25.7267 8.992 25.9329 9.02735C25.9336 9.16749 25.9348 9.30704 25.9366 9.44775C24.9039 9.44842 23.8706 9.44775 22.8379 9.44775C22.8385 9.31571 22.8329 9.1836 22.8465 9.05279C23.023 8.95353 23.2886 9.00506 23.4273 8.82396C23.5363 8.65527 23.5152 8.4432 23.527 8.25162C23.5294 7.38158 23.5275 6.51097 23.5282 5.64103C23.5294 5.32418 23.4768 4.98495 23.2645 4.7369C23.0446 4.47214 22.675 4.38592 22.3451 4.43366C22.02 4.46719 21.7265 4.63333 21.4857 4.84795C21.4857 6.00312 21.4826 7.15839 21.4876 8.31299C21.4993 8.50027 21.4838 8.71852 21.6182 8.86864C21.7495 8.98211 21.9333 8.98954 22.0949 9.03041C22.0956 9.16937 22.0961 9.30827 22.0974 9.44775C21.0393 9.44842 19.9812 9.44775 18.9231 9.44775C18.9231 9.30762 18.9231 9.16815 18.9237 9.0286C19.1646 8.99448 19.4184 8.99078 19.6431 8.88723C19.8549 8.78425 19.8592 8.51645 19.8666 8.31364C19.8685 6.0397 19.8679 3.76586 19.8666 1.49192C19.8537 1.31645 19.8728 1.09382 19.7119 0.977873C19.497 0.86251 19.2419 0.882991 19.0067 0.856327C19.0086 0.726094 19.0104 0.595881 19.0129 0.466319ZM38.9043 0.402405C39.4151 0.231284 40.0139 0.581657 40.1123 1.11181C40.2441 1.61785 39.8943 2.18707 39.3755 2.27574C38.8597 2.39664 38.3026 2.00969 38.2314 1.48514C38.1465 1.02131 38.4543 0.533866 38.9043 0.402405ZM4.08313 0.822873C4.29856 0.765818 4.51408 0.706282 4.72887 0.645501C5.58204 3.08682 6.44075 5.5269 7.3528 7.94716C7.47408 8.24295 7.59792 8.55485 7.83636 8.77747C8.04248 8.9641 8.33228 8.98954 8.59473 9.0286C8.59473 9.16815 8.59538 9.30762 8.59661 9.44717C7.39304 9.449 6.18945 9.44717 4.98643 9.44842C4.98588 9.30828 4.98519 9.1675 4.98462 9.02793C5.21926 8.98334 5.47742 8.99077 5.68732 8.86244C5.84332 8.74089 5.76838 8.52256 5.72196 8.36573C5.50157 7.76177 5.27805 7.15839 5.03598 6.56249C4.26081 6.5668 3.48627 6.56432 2.71117 6.56367C2.48642 7.1441 2.31244 7.74312 2.14466 8.34213C2.10872 8.51702 2.03501 8.76378 2.21953 8.88037C2.44923 8.99696 2.7167 8.99012 2.96686 9.02487C2.96808 9.16567 2.96931 9.30638 2.97113 9.44775C1.98117 9.44842 0.991793 9.44775 0.00247138 9.44842C0.00115883 9.30828 0 9.16937 0 9.03041C0.31076 8.98334 0.667411 8.95667 0.889636 8.70366C1.16582 8.38556 1.28959 7.9726 1.44871 7.59058C2.32787 5.33532 3.20026 3.07691 4.08313 0.822873ZM2.89257 5.88595C3.53394 5.88471 4.17597 5.88966 4.81741 5.88347C4.4905 4.9676 4.18839 4.04298 3.85342 3.13025C3.50671 4.0387 3.217 4.96884 2.89257 5.88595ZM54.5616 0.798021C55.3249 0.79554 56.0892 0.799918 56.8532 0.79554C58.5667 2.79476 60.2605 4.81137 61.9776 6.80801C61.9667 5.24416 62.0329 3.67535 61.8751 2.11704C61.8503 1.88631 61.8263 1.61718 61.624 1.46839C61.3228 1.25006 60.9306 1.25384 60.577 1.21661C60.5792 1.07649 60.5814 0.936339 60.5814 0.79621C61.6713 0.79869 62.7628 0.796768 63.8527 0.797444C63.852 0.936339 63.8519 1.07523 63.8534 1.21479C63.5748 1.24263 63.2677 1.25567 63.0414 1.44048C62.8595 1.58433 62.8137 1.82678 62.7933 2.04502C62.6354 3.46759 62.6915 4.90121 62.6813 6.32996C62.6798 7.40083 62.6828 8.47178 62.6791 9.54264C62.4099 9.54083 62.1407 9.54082 61.8722 9.54015C60.1209 7.37109 58.3819 5.19081 56.6182 3.03167C56.6364 4.73194 56.5542 6.43782 56.7208 8.1332C56.7419 8.37004 56.7761 8.64536 56.99 8.79109C57.2884 8.99631 57.6682 8.99763 58.0152 9.02677C58.0174 9.1669 58.0203 9.30704 58.0254 9.44775C56.9326 9.44775 55.8396 9.449 54.7468 9.4472C54.7468 9.3083 54.7474 9.1694 54.7486 9.03044C55.0458 9.00129 55.3857 8.98461 55.6079 8.75578C55.8048 8.54496 55.7906 8.23612 55.8297 7.96882C55.9794 6.35104 55.9002 4.72395 55.92 3.10172C55.8989 2.62054 55.9845 2.07421 55.6748 1.6637C55.4185 1.31581 54.9603 1.25321 54.5623 1.21598C54.5616 1.07651 54.561 0.93699 54.5616 0.798021ZM15.7321 2.67881C16.1593 2.36196 16.5766 2.03207 17.0062 1.71827C17.0794 1.76046 17.153 1.80324 17.2273 1.84601C17.2218 2.42645 17.2261 3.00746 17.2248 3.5879C17.6353 3.59161 18.0458 3.58105 18.4563 3.59038C18.595 3.57236 18.6228 3.73976 18.6352 3.8415C18.6438 3.9965 18.5993 4.19865 18.4389 4.2619C18.0346 4.28485 17.6291 4.26255 17.2248 4.27056C17.2248 5.32723 17.2248 6.38447 17.2243 7.44179C17.2255 7.75244 17.2552 8.07986 17.4187 8.35204C17.5295 8.53998 17.7288 8.68821 17.9536 8.69127C18.2019 8.6987 18.4297 8.58705 18.6488 8.48351C18.7083 8.61562 18.7696 8.74708 18.8315 8.87854C18.4891 9.05403 18.1461 9.22826 17.8044 9.40374C17.5839 9.51727 17.3431 9.6115 17.0911 9.59473C16.6899 9.58417 16.2571 9.48565 15.9761 9.17929C15.6758 8.84502 15.6114 8.37442 15.6114 7.94155C15.6107 6.71816 15.6114 5.49403 15.6107 4.27056C15.3272 4.27056 15.0442 4.27181 14.7613 4.2675C14.7322 4.21045 14.7031 4.15339 14.6746 4.09698C14.8152 3.92581 14.9563 3.75594 15.0994 3.58666C15.2696 3.5879 15.4405 3.58721 15.6114 3.5879C15.6133 3.34231 15.604 3.09739 15.6126 2.85246C15.5941 2.76684 15.6819 2.72654 15.7321 2.67881ZM69.1808 2.76063C69.6203 2.4016 70.0867 2.07548 70.5342 1.72571C70.6091 1.75798 70.6848 1.79143 70.7634 1.8243C70.7743 2.41217 70.7641 3.0006 70.7684 3.58849C71.2108 3.58543 71.6532 3.59161 72.0963 3.58476C72.2156 3.79559 72.2251 4.1249 71.9923 4.26066C71.5848 4.2861 71.1752 4.26255 70.7677 4.27056C70.7677 5.30799 70.7677 6.34606 70.7677 7.38349C70.7706 7.71586 70.7888 8.06748 70.9678 8.3589C71.0791 8.54741 71.2821 8.69185 71.5077 8.69127C71.7514 8.69563 71.9763 8.58582 72.1916 8.48227C72.2527 8.61497 72.3131 8.74708 72.3757 8.87979C72.0236 9.05839 71.6729 9.23883 71.3214 9.41803C71.1112 9.52406 70.8812 9.61028 70.6418 9.59533C70.214 9.58607 69.7433 9.47071 69.4675 9.11786C69.1925 8.76938 69.1474 8.3043 69.1496 7.87581C69.1517 6.67407 69.1496 5.47232 69.151 4.27056C68.8694 4.27 68.5886 4.27123 68.3085 4.26875C68.2786 4.21102 68.2495 4.15404 68.2212 4.09698C68.3623 3.92457 68.5042 3.75339 68.6497 3.58543C68.8156 3.58724 68.983 3.5879 69.151 3.58849C69.1685 3.315 69.1081 3.0205 69.1808 2.76063ZM72.2171 1.77285C72.6318 1.68415 73.0473 2.07046 72.9956 2.49028C72.9767 2.89772 72.5329 3.20714 72.1458 3.07749C71.7624 2.97459 71.5564 2.49961 71.7347 2.14618C71.8213 1.95204 72.009 1.81068 72.2171 1.77285ZM71.7769 2.41835C71.7624 2.67319 71.9464 2.9182 72.1931 2.98015C72.3575 3.03415 72.5212 2.95478 72.6806 2.91573C72.6158 2.87725 72.5504 2.84 72.487 2.80407C72.4157 2.67881 72.3583 2.53496 72.2207 2.46864C72.2127 2.58889 72.212 2.71101 72.2106 2.83256C72.1786 2.83446 72.1138 2.83877 72.081 2.84132C72.0789 2.56716 72.0796 2.29375 72.0789 2.02025C72.2346 2.04073 72.4536 1.96633 72.5569 2.12445C72.6348 2.25403 72.5409 2.38615 72.4645 2.48904C72.5074 2.57833 72.5525 2.66823 72.5947 2.75941C72.6282 2.78236 72.6966 2.82886 72.7308 2.85181C72.829 2.70861 72.9207 2.54115 72.888 2.36007C72.8589 2.05809 72.5496 1.82182 72.2513 1.8764C71.9886 1.91117 71.7776 2.15419 71.7769 2.41835ZM72.2142 2.10333C72.212 2.20877 72.2127 2.31547 72.2149 2.4215C72.3139 2.39912 72.4747 2.37681 72.4456 2.23298C72.4536 2.11324 72.287 2.1437 72.2142 2.10333ZM41.8601 3.30384C41.9505 3.3045 42.0415 3.30508 42.1338 3.30631C42.2557 3.54943 42.538 3.58476 42.7826 3.58295C43.9355 3.58666 45.0895 3.58163 46.2429 3.58543C46.2801 3.64925 46.3178 3.71434 46.3562 3.77948C45.3471 5.47851 44.3372 7.17762 43.3293 8.87731C43.7869 8.87483 44.245 8.88845 44.7019 8.86492C45.0133 8.84817 45.3377 8.77499 45.5817 8.56973C45.8845 8.31611 46.0609 7.9546 46.2603 7.62164C46.4194 7.68111 46.5791 7.74065 46.7389 7.80083C46.542 8.35146 46.3513 8.90522 46.1315 9.44775C44.5447 9.44719 42.9578 9.44965 41.371 9.4472C41.3276 9.379 41.2849 9.3126 41.2416 9.24629C42.2829 7.55032 43.3219 5.85245 44.3607 4.15466C43.9577 4.15772 43.5546 4.14408 43.1522 4.16333C42.8644 4.1782 42.5566 4.25449 42.3591 4.4796C42.1213 4.75119 42.0062 5.10091 41.8496 5.41966C41.6898 5.35946 41.5307 5.29876 41.3722 5.23798C41.5629 4.60115 41.7183 3.95373 41.8601 3.30384ZM28.8868 3.45454C29.6719 3.36031 30.5046 3.55001 31.1306 4.04612C31.7893 4.55892 32.1849 5.37438 32.2264 6.20469C32.2691 7.06663 32.0443 7.97566 31.4568 8.62743C30.2879 9.94694 27.9352 9.92523 26.8152 8.55419C26.123 7.72578 25.9886 6.53335 26.3273 5.5269C26.6833 4.41319 27.734 3.58914 28.8868 3.45454ZM28.8819 4.01259C28.6516 4.08459 28.4738 4.26628 28.3488 4.46654C28.0664 4.92977 27.9872 5.48478 27.9729 6.01864C27.9655 6.68274 28.0274 7.35863 28.2509 7.98812C28.3766 8.32537 28.5525 8.66526 28.8515 8.88037C29.1382 9.09061 29.566 9.09863 29.8459 8.87045C30.0997 8.66271 30.216 8.33842 30.2916 8.029C30.4241 7.4294 30.4247 6.80867 30.3888 6.1985C30.3418 5.61312 30.2452 5.00601 29.9282 4.50063C29.7171 4.15216 29.2936 3.89732 28.8819 4.01259ZM36.1554 3.53391C36.5522 3.31812 37.1039 3.45512 37.3367 3.84828C37.6475 4.37288 37.2593 5.16355 36.6526 5.22929C36.374 5.18461 36.1882 4.91302 35.9028 4.8752C35.4682 4.76231 35.1134 5.19272 35.0546 5.58147C35.0478 6.47133 35.0533 7.36111 35.0521 8.25162C35.0583 8.47111 35.0515 8.76626 35.2849 8.87789C35.5499 8.9939 35.8458 8.9926 36.1288 9.02793C36.127 9.16815 36.1263 9.30828 36.1263 9.449C34.9314 9.44717 33.7364 9.44775 32.5415 9.44844C32.541 9.3083 32.5403 9.16817 32.539 9.02927C32.7768 8.9908 33.0337 8.99203 33.2479 8.86925C33.4263 8.7477 33.4226 8.504 33.4325 8.31176C33.4374 7.25758 33.4319 6.20348 33.4349 5.1493C33.4195 4.92048 33.4677 4.65077 33.3111 4.461C33.1006 4.2985 32.8128 4.31833 32.5638 4.27249C32.5632 4.15159 32.5632 4.03128 32.5638 3.91097C33.3996 3.78694 34.2262 3.61022 35.0521 3.43103C35.054 3.87191 35.0471 4.31337 35.0552 4.75492C35.3772 4.31402 35.6539 3.79683 36.1554 3.53391ZM47.7103 4.25571C48.3301 3.65916 49.229 3.31877 50.0871 3.47625C51.1434 3.6685 51.9439 4.78338 51.7173 5.84935C51.6777 6.01922 51.4691 6.01559 51.3315 6.0416C50.2895 6.13648 49.2451 6.19041 48.2006 6.24003C48.2099 6.8 48.3344 7.39092 48.717 7.81999C49.1399 8.30992 49.8376 8.49844 50.4629 8.38243C50.8536 8.31611 51.2016 8.11272 51.5297 7.89942C51.5903 7.99059 51.651 8.083 51.7124 8.17474C51.2449 8.88102 50.5211 9.46517 49.6642 9.58294C48.9027 9.64991 48.1009 9.41555 47.5369 8.88845C47.08 8.4674 46.7927 7.87894 46.7023 7.26689C46.5445 6.1805 46.9091 5.01474 47.7103 4.25571ZM48.9009 4.20732C48.4842 4.55646 48.322 5.1121 48.2557 5.63292C48.8458 5.62113 49.437 5.61312 50.027 5.58891C50.1397 5.6032 50.2258 5.51138 50.2233 5.40104C50.2567 4.93037 50.0406 4.43242 49.6537 4.1571C49.4284 3.99096 49.1058 4.02441 48.9009 4.20732ZM7.97874 3.73299C8.77553 3.68022 9.5668 3.57667 10.3599 3.48369C10.3611 4.82615 10.3593 6.16869 10.3605 7.51124C10.3618 7.80389 10.4168 8.11893 10.6212 8.34213C10.8292 8.56972 11.166 8.62743 11.4588 8.56912C11.8031 8.51083 12.0941 8.30124 12.3622 8.08919C12.3659 6.96679 12.3659 5.84442 12.3622 4.7226C12.3504 4.55586 12.3579 4.32829 12.1771 4.25075C11.9752 4.17387 11.7573 4.16024 11.5468 4.12242C11.5474 3.99154 11.548 3.86197 11.5493 3.73174C12.3616 3.68154 13.1701 3.59038 13.9768 3.48311C13.9812 5.03019 13.9763 6.57671 13.9793 8.12387C13.9917 8.31364 13.9738 8.58647 14.1892 8.67144C14.4065 8.73033 14.635 8.70241 14.8579 8.70554C14.8585 8.84379 14.8598 8.98269 14.8616 9.12224C14.0462 9.24626 13.2382 9.41861 12.4402 9.62637C12.2866 9.33619 12.3956 8.99012 12.3646 8.6764C11.9034 9.01 11.444 9.3802 10.888 9.54015C10.2168 9.70945 9.3996 9.50358 9.02197 8.88723C8.71674 8.4252 8.73464 7.85104 8.74207 7.32022C8.74151 6.45269 8.74461 5.58462 8.74151 4.71707C8.72972 4.56702 8.73903 4.38287 8.60967 4.2799C8.41896 4.16891 8.18614 4.18816 7.98496 4.1088C7.97629 3.98287 7.97874 3.85759 7.97874 3.73299ZM37.6129 3.91094C38.4474 3.78757 39.2752 3.61888 40.0974 3.42976C40.0999 5.05563 40.0943 6.68216 40.0999 8.30868C40.1098 8.50836 40.1061 8.76626 40.3054 8.88102C40.5203 8.98954 40.7673 8.99325 41.0013 9.03231C40.9995 9.16998 40.9989 9.30885 40.9983 9.44775C39.8572 9.44842 38.7168 9.44775 37.5757 9.44775C37.5739 9.30885 37.5732 9.16998 37.5732 9.03173C37.8085 8.99325 38.0586 8.99012 38.2753 8.87979C38.4901 8.74956 38.4691 8.46434 38.4802 8.24601C38.4797 7.15276 38.4815 6.05953 38.4797 4.96637C38.4647 4.77908 38.4864 4.53663 38.3063 4.42069C38.0952 4.30781 37.8463 4.30904 37.6147 4.27371C37.6129 4.15216 37.6129 4.03126 37.6129 3.91094ZM65.1995 3.60582C65.8215 3.37576 66.5535 3.35776 67.1407 3.69764C67.8836 4.10129 68.3368 4.9899 68.1775 5.82947C68.1506 6.01494 67.9294 6.01617 67.7868 6.0416C66.747 6.13583 65.7044 6.191 64.661 6.23938C64.6697 6.78819 64.7884 7.36549 65.1522 7.7934C65.5589 8.28755 66.2428 8.48978 66.8627 8.39175C67.2745 8.33411 67.6427 8.12329 67.9861 7.90002C68.0473 7.98993 68.1062 8.08233 68.1688 8.17284C67.8603 8.62801 67.4674 9.03543 66.9791 9.29523C65.8696 9.929 64.3329 9.50919 63.6235 8.46616C63.0661 7.67119 62.9977 6.61461 63.2771 5.70304C63.5594 4.76356 64.271 3.94314 65.1995 3.60582ZM65.3646 4.20113C64.9411 4.54903 64.7767 5.10897 64.7134 5.63417C65.3093 5.61807 65.906 5.61624 66.5018 5.58643C66.6721 5.59947 66.6896 5.39856 66.683 5.27389C66.6641 4.83549 66.4538 4.38287 66.0791 4.14042C65.8601 3.99278 65.5596 4.03249 65.3646 4.20113ZM52.9042 7.54344C53.3487 7.41759 53.8688 7.62966 54.0682 8.05442C54.3096 8.53502 54.166 9.21712 53.6695 9.47509C53.2162 9.72432 52.5686 9.58607 52.3135 9.11853C51.9786 8.56104 52.2411 7.70099 52.9042 7.54344Z" fill="#0B5C76"/>
</svg>