<svg xmlns="http://www.w3.org/2000/svg" viewBox="0 0 24 24" width="24" height="24" color="#000000" fill="none">
    <path fill-rule="evenodd" clip-rule="evenodd" d="M14.2498 7.75V4.11011C14.2498 3.50011 13.5298 3.0701 12.9998 3.3501L4.4403 7.75H14.2498ZM3.42981 6.58008C2.75344 6.92766 2.31529 7.60169 2.26468 8.3536C2.25506 8.40103 2.25 8.45 2.25 8.5V15.5V15.5002C2.25 18.5301 2.25 20.0499 3.34998 21.1499C4.44998 22.2499 5.97 22.25 9 22.25H15C18.03 22.25 19.55 22.2499 20.65 21.1499C21.75 20.0499 21.75 18.5301 21.75 15.5002V15.5V14.5V14.4998C21.75 11.4699 21.75 9.95007 20.65 8.8501C19.6461 7.84613 18.2922 7.7584 15.7598 7.75073V4.11011C15.7598 2.81011 14.6998 1.75 13.3998 1.75C13.0198 1.75 12.6497 1.84001 12.3197 2.01001L3.42981 6.58008ZM15 9.25H15.001C17.6203 9.25 18.9301 9.25 19.59 9.90991C20.25 10.5699 20.25 11.88 20.25 14.5V15.5C20.25 18.12 20.25 19.4301 19.59 20.0901C18.9301 20.75 17.6203 20.75 15.001 20.75H15H9H8.99896C6.37965 20.75 5.06995 20.75 4.41003 20.0901C3.75003 19.4301 3.75 18.12 3.75 15.5V9.25H14.9998H15ZM18.75 15C18.75 15.6904 18.1904 16.25 17.5 16.25C16.8096 16.25 16.25 15.6904 16.25 15C16.25 14.3096 16.8096 13.75 17.5 13.75C18.1904 13.75 18.75 14.3096 18.75 15Z" fill="currentColor" />
</svg>