<!-- <?xml version="1.0" encoding="UTF-8"?><svg id="Layer_1" xmlns="http://www.w3.org/2000/svg" viewBox="0 0 80 80"><path d="M55.69,31.14c.1,.06,.2,.12,.31,.17,.83,.41,1.24,1.24,1.04,2.11-.2,.86-.97,1.45-1.86,1.43-.86-.02-1.58-.63-1.77-1.49-.18-.85,.27-1.71,1.1-2.08,.11-.05,.22-.1,.33-.15h.85Z"/><path d="M12.79,48.58h-2.78c0-.31,0-.58,0-.86,0-1.82,0-3.64,0-5.46,0-2.22,.98-3.9,3.01-4.84,2.05-.95,3.97-.59,5.68,.88,.08,.07,.16,.13,.27,.21,.74-.71,1.58-1.22,2.57-1.45,3.02-.72,6.09,1.36,6.32,4.46,.17,2.3,.04,4.63,.05,6.94,0,.03-.03,.06-.07,.15-.8,0-1.63,0-2.46,0-.38,0-.29-.28-.29-.49,0-1.93,0-3.85-.01-5.78,0-.41-.07-.86-.23-1.23-.44-1.01-1.53-1.52-2.59-1.29-1.07,.23-1.87,1.23-1.88,2.4-.01,1.93,0,3.85,0,5.78,0,.19,0,.38,0,.59h-2.85c0-.22,0-.42,0-.63,0-1.93,.01-3.85,0-5.78-.02-1.63-1.43-2.74-2.94-2.34-1.02,.27-1.76,1.29-1.77,2.44-.01,1.89,0,3.78,0,5.67,0,.19,0,.39,0,.62Z"/><path d="M69.92,43.93h-8.6c.41,1.21,1.16,1.97,2.31,2.24,1.57,.36,2.77-.24,3.66-1.62l2.27,1.12c-.8,1.99-3.86,3.93-7.04,2.9-3.03-.98-4.77-4.19-3.92-7.32,.8-2.94,3.96-4.86,6.89-4.2,2.72,.61,4.98,3.17,4.42,6.9Zm-2.88-2.39c-.39-1.31-1.72-2.15-3.12-2.02-1.16,.11-2.34,1.07-2.45,2.02h5.57Z"/><path d="M41.34,42.93c-.02,3.3-2.72,5.96-6.02,5.93-3.25-.03-5.94-2.75-5.92-6,.02-3.26,2.71-5.92,5.99-5.92,3.31,0,5.97,2.68,5.95,5.99Zm-5.95,3.09c1.74,0,3.14-1.4,3.14-3.13,0-1.71-1.43-3.14-3.15-3.13-1.73,0-3.13,1.41-3.13,3.14,0,1.75,1.38,3.12,3.13,3.12Z"/><path d="M51.17,48.6h-2.8V31.48h2.8v17.12Z"/><path d="M45.71,48.6h-2.78V31.47h2.78v17.13Z"/><path d="M53.83,37.24h2.77v11.34h-2.77v-11.34Z"/></svg> -->

<svg width="51" height="14" viewBox="0 0 51 14" fill="none" xmlns="http://www.w3.org/2000/svg">
  <path fill-rule="evenodd" clip-rule="evenodd" d="M46.1072 6.59787C47.2069 6.59787 48.2109 7.26809 48.5616 8.23617H43.6688C44.0034 7.28298 44.9916 6.59787 46.1072 6.59787ZM51 9.07021C51 7.87872 50.5059 6.74681 49.5975 5.88298C48.6891 5.01915 47.4778 4.54255 46.2028 4.54255H46.1391C44.8162 4.55745 43.5572 5.04894 42.6169 5.92766C41.6766 6.80638 41.1506 7.96808 41.1347 9.20426C41.1188 10.4702 41.6447 11.6617 42.6009 12.5702C43.5731 13.4787 44.8481 13.9851 46.2028 13.9851C47.9878 13.9851 49.6612 13.0915 50.5697 11.6617L50.6812 11.483L48.6731 10.5596L48.5775 10.7085C48.0834 11.483 47.2069 11.9298 46.2347 11.9298C45.0075 11.9298 43.9397 11.1702 43.605 10.0681H51V9.07021ZM38.4412 2.94894C37.5647 2.94894 36.8634 2.29362 36.8634 1.47447C36.8634 0.655319 37.5647 0 38.4412 0C39.3178 0 40.0191 0.655319 40.0191 1.47447C40.035 2.27872 39.3178 2.94894 38.4412 2.94894ZM37.23 13.8064H39.6525V4.73617H37.23V13.8064ZM32.5922 0.193617H35.0147V13.8213H32.5922V0.193617ZM27.9544 13.8064H30.3769V0.193617H27.9544V13.8064ZM21.5634 11.766C20.0972 11.766 18.8859 10.6489 18.8859 9.27872C18.8859 7.90851 20.0812 6.79149 21.5634 6.79149C23.0456 6.79149 24.2409 7.90851 24.2409 9.27872C24.2409 10.6489 23.0456 11.766 21.5634 11.766ZM21.5634 4.54255C18.7584 4.54255 16.4953 6.65745 16.4953 9.26383C16.4953 11.8702 18.7744 14 21.5634 14C24.3525 14 26.6316 11.8851 26.6316 9.27872C26.6316 6.67234 24.3684 4.54255 21.5634 4.54255ZM11.22 4.55745C11.0925 4.54255 10.965 4.54255 10.8375 4.54255C9.61031 4.54255 8.44687 5.00426 7.61812 5.8383C6.78937 5.01915 5.62594 4.54255 4.41469 4.54255C1.97625 4.54255 0 6.38936 0 8.6383V13.8064H2.37469V8.71277C2.37469 7.77447 3.20344 6.91064 4.17562 6.82128C4.23938 6.82128 4.31906 6.80638 4.38281 6.80638C5.4825 6.80638 6.375 7.64043 6.375 8.66809V13.8213H8.7975V8.69787C8.7975 7.75957 9.62625 6.89574 10.5984 6.80638C10.6622 6.80638 10.7419 6.79149 10.8056 6.79149C11.9053 6.79149 12.7978 7.62553 12.8138 8.6383V13.8064H15.2362V8.71277C15.2362 7.67021 14.8219 6.68723 14.0887 5.91277C13.3397 5.1234 12.3197 4.64681 11.22 4.55745Z" fill="black"/>
</svg>