<!-- <?xml version="1.0" encoding="UTF-8"?><svg id="Layer_1" xmlns="http://www.w3.org/2000/svg" viewBox="0 0 80 80"><defs><style>.cls-1{fill:#03c3f7;}.cls-2{fill:#011b33;}</style></defs><g><path class="cls-2" d="M28.51,55.35c-.18-.04-.36-.07-.54-.12-.47-.12-.88-.33-1.23-.67-.21-.2-.26-.4-.12-.65,.19-.34,.4-.66,.62-.98,.15-.21,.41-.23,.66-.06,.13,.09,.26,.19,.4,.26,.51,.24,.99,.06,1.2-.45,.11-.27,.18-.54,.28-.81,.04-.11,0-.12-.1-.12-.2,0-.4,0-.6,0-.38,0-.5-.09-.62-.46-.29-.94-.58-1.88-.86-2.82-.38-1.23-.75-2.47-1.13-3.7-.02-.07-.04-.14-.06-.21-.06-.35,.09-.54,.45-.54,.5,0,1,0,1.5,0,.38,0,.48,.08,.59,.46,.2,.76,.41,1.52,.61,2.27,.21,.76,.41,1.53,.62,2.29,.03,.1,.04,.18,.19,.18,.14,0,.16-.06,.19-.17,.37-1.5,.75-3,1.12-4.49,.11-.46,.22-.54,.69-.54,.43,0,.87,0,1.3,0,.45,0,.6,.19,.48,.63-.18,.64-.37,1.28-.55,1.92-.61,2.14-1.23,4.27-1.84,6.41-.17,.58-.44,1.11-.85,1.56-.39,.43-.88,.68-1.45,.78-.05,0-.11-.02-.14,.05h-.8Z"/><path class="cls-2" d="M70,51.43c-.09,.24-.27,.32-.52,.32-.49-.01-.97-.01-1.46,0-.28,0-.46-.12-.6-.35-.53-.88-1.07-1.76-1.61-2.64-.07-.11-.35-.18-.45-.12-.07,.04-.04,.11-.04,.16,0,.81,0,1.63,0,2.44,0,.39-.13,.51-.52,.51-.42,0-.84,0-1.26,0-.3,0-.46-.15-.46-.46,0-3.38,0-6.75,0-10.13,0-.31,.16-.47,.47-.47,.43,0,.85,0,1.28,0,.34,0,.48,.14,.48,.49,0,1.75,0,3.49,0,5.24,0,.07-.06,.21,.05,.22,.13,.02,.28,.07,.39-.09,.49-.75,.99-1.48,1.48-2.23,.14-.21,.31-.31,.56-.31,.48,0,.96,0,1.44,0,.36,0,.53,.27,.37,.6-.03,.07-.08,.14-.13,.2-.59,.83-1.18,1.67-1.77,2.49-.09,.12-.09,.2,0,.33,.69,1.08,1.38,2.15,2.06,3.23,.08,.12,.14,.25,.21,.38v.2Z"/><path class="cls-2" d="M16.79,45.02c-1.18-1.45-3.38-1.67-4.56-.42,0-.05-.01-.08-.01-.1-.03-.4-.15-.51-.53-.51-.37,0-.75,0-1.12,0-.43,0-.56,.13-.56,.56v8.49c0,.54,0,1.08,0,1.62,0,.29,.15,.44,.45,.44,.43,0,.85,0,1.28,0,.37,0,.51-.13,.51-.5,0-1.05,0-2.11,0-3.16v-.24c.23,.23,.47,.39,.73,.5,1.28,.53,2.78,.18,3.71-.87,1.37-1.54,1.42-4.23,.12-5.83Zm-1.83,4.22c-.56,.58-1.46,.63-2.08,.11-.85-.71-.88-2.15-.06-2.89,.7-.63,1.72-.53,2.28,.23,.27,.35,.38,.76,.38,1.2,0,.52-.16,.98-.52,1.36Z"/><path class="cls-2" d="M25.46,43.99c-.38,0-.76,0-1.14,0-.46,0-.56,.09-.61,.58-.34-.36-.72-.6-1.17-.7-1.29-.28-2.39,.11-3.27,1.07-1.43,1.58-1.42,4.29,.02,5.87,.87,.95,1.96,1.33,3.23,1.05,.46-.1,.84-.35,1.18-.7,0,.05,.02,.07,.02,.1,.03,.36,.15,.48,.5,.48h1.2c.4,0,.52-.13,.52-.53v-5.43c0-.43,0-.87,0-1.3,0-.34-.15-.49-.49-.49Zm-2.27,5.25c-.62,.62-1.53,.62-2.16,0-.73-.72-.72-2.08,.02-2.78,.7-.66,1.74-.56,2.31,.21,.25,.34,.37,.72,.37,1.39,0,.31-.15,.78-.53,1.16Z"/><path class="cls-2" d="M54.14,43.99c-.38,0-.76,0-1.14,0-.44,0-.55,.1-.58,.59-.35-.36-.73-.6-1.19-.71-1.34-.34-2.82,.29-3.62,1.54-.96,1.49-.93,3.59,.09,5.04,.45,.65,1.04,1.12,1.81,1.35,.93,.28,1.82,.23,2.62-.38,.1-.07,.19-.16,.3-.27,0,.05,0,.07,0,.1,.01,.36,.14,.48,.51,.48h1.2c.38,0,.51-.13,.51-.5,0-1.11,0-2.23,0-3.34s0-2.27,0-3.4c0-.37-.14-.51-.5-.51Zm-2.2,5.2c-.72,.78-1.89,.67-2.46-.23-.21-.33-.3-.69-.3-1.12,0-.53,.18-1.03,.63-1.41,.63-.54,1.48-.51,2.08,.08,.7,.69,.73,1.97,.06,2.69Z"/><path class="cls-2" d="M37.58,43.78c.7-.02,1.46,.18,2.15,.6,.13,.08,.26,.16,.38,.26,.42,.33,.45,.6,.12,1.01-.14,.17-.28,.34-.42,.51-.25,.31-.49,.35-.83,.13-.24-.16-.49-.3-.75-.42-.32-.14-.65-.2-.99-.17-.13,.01-.25,.04-.36,.1-.15,.08-.27,.18-.28,.36,0,.18,.11,.29,.26,.37,.16,.09,.35,.13,.53,.17,.53,.12,1.06,.2,1.58,.36,.61,.2,1.12,.52,1.44,1.1,.54,.97,.26,2.32-.63,3.04-.52,.42-1.12,.64-1.78,.71-1.11,.13-2.15-.09-3.09-.7-.21-.13-.4-.29-.55-.49-.26-.34-.22-.7,.1-.97,.18-.16,.37-.31,.55-.46,.33-.27,.54-.27,.86,.01,.21,.19,.44,.35,.68,.49,.38,.21,.79,.28,1.22,.23,.2-.03,.37-.09,.51-.25,.18-.22,.13-.49-.11-.62-.2-.1-.41-.16-.62-.21-.45-.11-.91-.21-1.36-.32-1.01-.25-1.66-.91-1.8-1.83-.16-1.05,.26-1.99,1.15-2.53,.6-.36,1.26-.5,2.07-.49Z"/><path class="cls-2" d="M55.31,48.06c0-1.91,.93-3.38,2.43-4.01,1.65-.69,3.59-.09,4.55,1.38,.23,.36,.19,.63-.14,.9-.26,.21-.51,.42-.77,.63-.26,.21-.45,.2-.68-.04-.11-.11-.2-.23-.31-.34-.44-.49-.99-.68-1.62-.49-.66,.2-1.03,.69-1.15,1.35-.1,.54-.03,1.05,.27,1.52,.53,.83,1.63,.97,2.36,.31,.15-.13,.27-.29,.41-.44,.26-.28,.46-.3,.76-.06,.25,.2,.5,.4,.74,.61,.34,.28,.39,.56,.13,.92-.83,1.2-1.99,1.75-3.43,1.63-1.42-.12-2.45-.87-3.1-2.13-.31-.6-.44-1.25-.44-1.75Z"/><path class="cls-2" d="M42.17,47.9c0-.56,0-1.12,0-1.68,0-.13-.03-.17-.17-.17-.2,.01-.4,0-.6,0-.27,0-.44-.16-.45-.43,0-.41,0-.81,0-1.22,0-.26,.17-.41,.43-.42,.19,0,.37-.02,.56,0,.19,.02,.23-.06,.22-.23-.01-.53,0-1.07,0-1.6,0-.38,.14-.51,.52-.51,.42,0,.84,0,1.26,0,.32,0,.47,.14,.47,.46,0,.56,0,1.12,0,1.68,0,.17,.05,.21,.21,.2,.53-.01,1.07,0,1.6,0,.32,0,.48,.16,.48,.48,0,.37,0,.73,0,1.1,0,.31-.17,.48-.48,.49-.54,0-1.08,0-1.62,0-.14,0-.19,.02-.19,.18,0,.88,0,1.76,0,2.64,0,.07,0,.13,.01,.2,.05,.42,.34,.63,.76,.56,.18-.03,.33-.13,.49-.22,.29-.17,.5-.12,.67,.17,.16,.27,.32,.54,.47,.81,.16,.28,.13,.51-.1,.75-.5,.51-1.13,.71-1.82,.77-.29,.02-.57,0-.86-.05-1.19-.26-1.87-1.12-1.88-2.41,0-.51,0-1.03,0-1.54Z"/></g><rect class="cls-1" x="31.88" y="24.65" width="11.68" height="2.67" rx=".71" ry=".71"/><rect class="cls-1" x="31.88" y="28.16" width="12.35" height="2.67" rx=".71" ry=".71"/><rect class="cls-1" x="31.88" y="31.66" width="11.68" height="2.67" rx=".71" ry=".71"/><rect class="cls-1" x="31.88" y="35.16" width="7.17" height="2.67" rx=".71" ry=".71"/></svg> -->

<svg width="70" height="14" viewBox="0 0 70 14" fill="none" xmlns="http://www.w3.org/2000/svg">
  <path d="M9.96307 1.94238H0.583318C0.268326 1.94238 0 2.21133 0 2.53874V3.60281C0 3.93022 0.268326 4.19917 0.583318 4.19917H9.96307C10.2897 4.19917 10.5464 3.93022 10.5581 3.60281V2.55043C10.5581 2.21133 10.2897 1.94238 9.96307 1.94238ZM9.96307 7.84744H0.583318C0.431655 7.84744 0.279993 7.9059 0.174995 8.02283C0.0583318 8.13977 0 8.28008 0 8.44378V9.50786C0 9.83527 0.268326 10.1042 0.583318 10.1042H9.96307C10.2897 10.1042 10.5464 9.84697 10.5581 9.50786V8.44378C10.5464 8.10468 10.2897 7.84744 9.96307 7.84744ZM5.86818 10.7941H0.583318C0.431655 10.7941 0.279993 10.8526 0.174995 10.9695C0.0699981 11.0864 0 11.2268 0 11.3905V12.4545C0 12.782 0.268326 13.0509 0.583318 13.0509H5.85651C6.18317 13.0509 6.43983 12.782 6.43983 12.4662V11.4022C6.45149 11.0514 6.19483 10.7824 5.86818 10.7941ZM10.5581 4.88906H0.583318C0.431655 4.88906 0.279993 4.94753 0.174995 5.06446C0.0699981 5.18139 0 5.32171 0 5.48541V6.54949C0 6.8769 0.268326 7.14585 0.583318 7.14585H10.5464C10.873 7.14585 11.1297 6.8769 11.1297 6.54949V5.48541C11.1414 5.15801 10.873 4.90075 10.5581 4.88906Z" fill="#00C3F7"/>
  <path d="M21.4665 4.32811C21.1749 4.02409 20.8365 3.79023 20.4516 3.62652C20.0666 3.46282 19.6582 3.38096 19.2383 3.38096C18.8299 3.36927 18.4333 3.46282 18.0599 3.63821C17.815 3.75514 17.5933 3.91885 17.4066 4.11763V3.93054C17.4066 3.837 17.3716 3.74345 17.3133 3.67329C17.255 3.60313 17.1616 3.55636 17.0566 3.55636H15.7617C15.6683 3.55636 15.575 3.59144 15.5167 3.67329C15.4467 3.74345 15.4117 3.837 15.4234 3.93054V12.677C15.4234 12.7706 15.4584 12.8641 15.5167 12.9343C15.5867 13.0044 15.6683 13.0395 15.7617 13.0395H17.0916C17.185 13.0395 17.2666 13.0044 17.3366 12.9343C17.4066 12.8758 17.4533 12.7823 17.4416 12.677V9.68358C17.6283 9.89406 17.8733 10.0461 18.1416 10.1396C18.4916 10.2682 18.8533 10.3384 19.2266 10.3384C19.6466 10.3384 20.0666 10.2565 20.4516 10.0928C20.8365 9.92914 21.1865 9.69528 21.4782 9.39125C21.7815 9.07554 22.0148 8.70136 22.1782 8.2921C22.3648 7.83606 22.4465 7.34495 22.4348 6.85384C22.4465 6.36272 22.3532 5.87161 22.1782 5.40388C22.0032 5.01801 21.7699 4.64383 21.4665 4.32811ZM20.2766 7.49696C20.2066 7.68405 20.1016 7.84776 19.9616 7.99977C19.6932 8.2921 19.3082 8.4558 18.9116 8.4558C18.7133 8.4558 18.5149 8.42072 18.3283 8.32717C18.1533 8.24532 17.99 8.14008 17.85 7.99977C17.71 7.85945 17.605 7.68405 17.535 7.49696C17.3833 7.09939 17.3833 6.66675 17.535 6.26918C17.605 6.08209 17.7216 5.91838 17.85 5.77806C17.99 5.63775 18.1533 5.52081 18.3283 5.43896C18.5149 5.35711 18.7133 5.31034 18.9116 5.31034C19.1216 5.31034 19.3083 5.34542 19.5066 5.43896C19.6816 5.52081 19.8449 5.62605 19.9732 5.76637C20.1132 5.90669 20.2066 6.07039 20.2882 6.25748C20.4282 6.66675 20.4166 7.09939 20.2766 7.49696ZM29.563 3.56806H28.2447C28.1513 3.56806 28.058 3.60313 27.9997 3.67329C27.9297 3.74345 27.8947 3.837 27.8947 3.94224V4.10594C27.7314 3.90716 27.5214 3.75515 27.2997 3.64991C26.938 3.47451 26.5414 3.39266 26.1447 3.39266C25.2931 3.39266 24.4881 3.73176 23.8815 4.32811C23.5665 4.64383 23.3215 5.01801 23.1581 5.42727C22.9715 5.8833 22.8782 6.37441 22.8898 6.87722C22.8782 7.36833 22.9715 7.85945 23.1581 8.32717C23.3331 8.73643 23.5665 9.11062 23.8815 9.42634C24.4764 10.0344 25.2931 10.3735 26.1331 10.3735C26.5297 10.3852 26.9264 10.2916 27.288 10.1162C27.5097 9.9993 27.7314 9.84729 27.8947 9.6602V9.8356C27.8947 9.92914 27.9297 10.0227 27.9997 10.0928C28.0697 10.1513 28.1513 10.1981 28.2447 10.1981H29.563C29.6563 10.1981 29.7496 10.163 29.808 10.0928C29.878 10.0227 29.913 9.92914 29.913 9.8356V3.95393C29.913 3.86038 29.878 3.76684 29.8196 3.69668C29.7496 3.61483 29.6563 3.56806 29.563 3.56806ZM27.778 7.49696C27.708 7.68405 27.603 7.84776 27.463 7.99977C27.323 8.14008 27.1714 8.25702 26.9964 8.33887C26.6231 8.51427 26.1914 8.51427 25.8181 8.33887C25.6431 8.25702 25.4798 8.14008 25.3398 7.99977C25.1998 7.85945 25.0948 7.68405 25.0248 7.49696C24.8848 7.09939 24.8848 6.66675 25.0248 6.26918C25.0948 6.08209 25.1998 5.93008 25.3398 5.77806C25.4798 5.63775 25.6314 5.52081 25.8181 5.43896C26.1914 5.26357 26.6231 5.26357 26.9847 5.43896C27.1597 5.52081 27.323 5.62605 27.4514 5.76637C27.5797 5.90669 27.6847 6.07039 27.7664 6.25748C27.9297 6.66675 27.9297 7.09939 27.778 7.49696ZM42.6993 6.70182C42.5126 6.53812 42.291 6.3978 42.0576 6.30426C41.8127 6.19902 41.5443 6.12886 41.2877 6.07039L40.2844 5.87161C40.0277 5.82484 39.841 5.75468 39.7477 5.67283C39.666 5.61436 39.6077 5.52081 39.6077 5.41558C39.6077 5.31034 39.666 5.21679 39.7944 5.13494C39.9694 5.04139 40.156 4.99462 40.3544 5.00631C40.611 5.00631 40.8677 5.06478 41.101 5.15833C41.3343 5.26357 41.556 5.3688 41.766 5.50912C42.0576 5.69621 42.3143 5.66113 42.4893 5.45066L42.9676 4.90108C43.061 4.80753 43.1076 4.6906 43.1193 4.56197C43.1076 4.42166 43.0376 4.30473 42.9326 4.21118C42.7343 4.03578 42.4076 3.84869 41.976 3.6616C41.5443 3.47451 40.996 3.38096 40.3544 3.38096C39.9577 3.36927 39.5727 3.42774 39.1994 3.54467C38.8844 3.64991 38.5811 3.80192 38.3127 4.0007C38.0678 4.18779 37.8811 4.42166 37.7411 4.70229C37.6128 4.97124 37.5428 5.26357 37.5428 5.55589C37.5428 6.10547 37.7061 6.54981 38.0328 6.87722C38.3594 7.20463 38.7911 7.4268 39.3277 7.53204L40.3777 7.7659C40.5993 7.80098 40.8327 7.87114 41.0427 7.97638C41.1593 8.02315 41.2293 8.14008 41.2293 8.26871C41.2293 8.38564 41.171 8.49088 41.0427 8.58443C40.9143 8.67797 40.7043 8.73643 40.4244 8.73643C40.1444 8.73643 39.8527 8.67797 39.596 8.54935C39.351 8.43242 39.1294 8.2804 38.9194 8.105C38.8261 8.03485 38.7327 7.97638 38.6161 7.92961C38.4994 7.89453 38.3477 7.92961 38.1961 8.05823L37.6244 8.49088C37.4611 8.60781 37.3794 8.8066 37.4261 8.99369C37.4611 9.19247 37.6128 9.37956 37.9044 9.60173C38.6277 10.0928 39.491 10.3501 40.366 10.3267C40.7743 10.3267 41.1827 10.2799 41.5677 10.163C41.906 10.0578 42.221 9.90575 42.501 9.69528C42.7576 9.50819 42.9676 9.26263 43.1076 8.9703C43.2476 8.68966 43.3176 8.38564 43.3176 8.06993C43.3293 7.78929 43.2709 7.50865 43.1543 7.2514C43.0376 7.06431 42.886 6.86553 42.6993 6.70182ZM48.4625 8.30379C48.4041 8.19855 48.2991 8.12839 48.1708 8.105C48.0542 8.105 47.9258 8.14008 47.8325 8.21024C47.6692 8.31548 47.4825 8.37395 47.2958 8.38564C47.2375 8.38564 47.1675 8.37395 47.1092 8.36226C47.0392 8.35056 46.9808 8.31548 46.9342 8.26871C46.8759 8.21024 46.8292 8.14009 46.7942 8.06993C46.7475 7.95299 46.7242 7.83606 46.7359 7.71913V5.32203H48.4391C48.5441 5.32203 48.6375 5.27526 48.7075 5.2051C48.7775 5.13494 48.8241 5.05309 48.8241 4.94785V3.93054C48.8241 3.8253 48.7891 3.73176 48.7075 3.67329C48.6375 3.60313 48.5441 3.56806 48.4508 3.56806H46.7359V1.93101C46.7359 1.83747 46.7009 1.73223 46.6309 1.67376C46.5609 1.61529 46.4792 1.58022 46.3859 1.56852H45.0559C44.9626 1.56852 44.8692 1.6036 44.7992 1.67376C44.7292 1.74392 44.6826 1.83747 44.6826 1.93101V3.56806H43.9243C43.8309 3.56806 43.7376 3.60313 43.6676 3.68499C43.6093 3.75515 43.5743 3.84869 43.5743 3.94224V4.95954C43.5743 5.05309 43.6093 5.14663 43.6676 5.21679C43.7259 5.29865 43.8193 5.33372 43.9243 5.33372H44.6826V8.18686C44.6709 8.52596 44.7409 8.86506 44.8809 9.16908C45.0092 9.42633 45.1726 9.64851 45.3942 9.8356C45.6042 10.011 45.8492 10.1396 46.1175 10.2098C46.3859 10.2916 46.6659 10.3384 46.9459 10.3384C47.3075 10.3384 47.6808 10.2799 48.0308 10.163C48.3575 10.0578 48.6491 9.87067 48.8825 9.62512C49.0341 9.47311 49.0458 9.22755 48.9291 9.05215L48.4625 8.30379ZM55.6723 3.56806H54.354C54.2607 3.56806 54.179 3.60313 54.109 3.67329C54.039 3.74345 54.004 3.837 54.004 3.94224V4.10594C53.8407 3.90716 53.6423 3.75515 53.409 3.64991C53.0474 3.47451 52.6507 3.39266 52.254 3.39266C51.4024 3.39266 50.5974 3.73176 49.9908 4.32811C49.6758 4.64383 49.4308 5.01801 49.2675 5.42727C49.0808 5.8833 48.9875 6.37441 48.9991 6.86553C48.9875 7.35664 49.0808 7.84776 49.2675 8.31548C49.4308 8.72474 49.6874 9.09893 49.9908 9.41464C50.5857 10.0227 51.3907 10.3618 52.2424 10.3618C52.639 10.3735 53.0357 10.2799 53.3973 10.1162C53.6307 9.9993 53.8407 9.84729 54.004 9.6602V9.8356C54.004 9.92914 54.039 10.0227 54.109 10.0812C54.179 10.1513 54.2607 10.1864 54.354 10.1864H55.6723C55.8706 10.1864 56.0223 10.0344 56.0223 9.8356V3.95393C56.0223 3.86038 55.9873 3.76684 55.9289 3.69668C55.8706 3.61483 55.7773 3.56806 55.6723 3.56806ZM53.899 7.49696C53.829 7.68405 53.724 7.84776 53.584 7.99977C53.444 8.14008 53.2923 8.25702 53.1174 8.33887C52.9307 8.42072 52.7324 8.46749 52.5224 8.46749C52.3124 8.46749 52.1257 8.42072 51.939 8.33887C51.7641 8.25702 51.6007 8.14008 51.4607 7.99977C51.3207 7.85945 51.2157 7.68405 51.1574 7.49696C51.0174 7.09939 51.0174 6.66675 51.1574 6.26918C51.2274 6.08209 51.3324 5.91838 51.4607 5.77806C51.6007 5.63775 51.7641 5.52081 51.939 5.43896C52.1257 5.35711 52.324 5.31034 52.5224 5.31034C52.7207 5.31034 52.919 5.34542 53.1174 5.43896C53.2923 5.52081 53.444 5.62605 53.584 5.76637C53.724 5.90669 53.829 6.07039 53.899 6.25748C54.0507 6.65505 54.0507 7.09939 53.899 7.49696ZM62.9054 8.21024L62.1471 7.62558C62.0071 7.50865 61.8671 7.47357 61.7505 7.52035C61.6455 7.56712 61.5521 7.63728 61.4705 7.71913C61.3071 7.91792 61.1088 8.09331 60.8988 8.24532C60.6655 8.37395 60.4205 8.44411 60.1638 8.42072C59.8605 8.42072 59.5805 8.33887 59.3355 8.16347C59.0905 7.98807 58.9039 7.75421 58.8105 7.46188C58.7405 7.2631 58.7055 7.06431 58.7055 6.86553C58.7055 6.65505 58.7405 6.45627 58.8105 6.24579C58.8805 6.0587 58.9739 5.89499 59.1139 5.75468C59.2539 5.61436 59.4055 5.49743 59.5805 5.42727C59.7672 5.34542 59.9655 5.29864 60.1755 5.29864C60.4322 5.28695 60.6888 5.35711 60.9105 5.48573C61.1321 5.62605 61.3188 5.80145 61.4821 6.01193C61.5521 6.09378 61.6455 6.16394 61.7505 6.21071C61.8671 6.25749 62.0071 6.2224 62.1471 6.10547L62.9054 5.53251C62.9988 5.47404 63.0688 5.3805 63.1038 5.27526C63.1504 5.15833 63.1387 5.0297 63.0687 4.92446C62.7771 4.46843 62.3804 4.09425 61.9021 3.8253C61.4005 3.54467 60.8055 3.39266 60.1405 3.39266C59.6738 3.39266 59.2072 3.4862 58.7639 3.6616C58.3439 3.837 57.9706 4.08255 57.6556 4.39827C57.3406 4.71398 57.0839 5.08817 56.9089 5.50912C56.5473 6.38611 56.5473 7.36834 56.9089 8.24532C57.0839 8.65459 57.3289 9.04046 57.6556 9.34448C58.3205 9.9993 59.2072 10.3501 60.1405 10.3501C60.8055 10.3501 61.4005 10.1981 61.9021 9.91745C62.3804 9.6485 62.7888 9.27432 63.0804 8.80659C63.1388 8.70136 63.1504 8.57273 63.1154 8.46749C63.0688 8.37395 62.9988 8.2804 62.9054 8.21024ZM69.9286 9.57835L67.8403 6.51473L69.6252 4.15271C69.7069 4.04748 69.7419 3.89546 69.6952 3.76684C69.6602 3.67329 69.5786 3.57975 69.3569 3.57975H67.9453C67.8636 3.57975 67.782 3.60313 67.712 3.63821C67.6186 3.68499 67.5486 3.75514 67.502 3.837L66.0787 5.83653H65.7403V1.11249C65.7403 1.01894 65.7053 0.925397 65.6353 0.855238C65.5653 0.785079 65.4837 0.75 65.3904 0.75H64.0721C63.9787 0.75 63.8854 0.785079 63.8154 0.855238C63.7454 0.925397 63.7104 1.00725 63.7104 1.11249V9.8239C63.7104 9.92914 63.7454 10.011 63.8154 10.0812C63.8854 10.1513 63.9787 10.1864 64.0721 10.1864H65.3904C65.4837 10.1864 65.577 10.1513 65.6353 10.0812C65.7053 10.011 65.7403 9.91745 65.7403 9.8239V7.52035H66.1137L67.6653 9.90575C67.7586 10.0812 67.9336 10.1864 68.1203 10.1864H69.6019C69.8236 10.1864 69.9169 10.0812 69.9636 9.98761C70.0219 9.84729 70.0102 9.69528 69.9286 9.57835ZM37.0528 3.56806H35.5711C35.4545 3.56806 35.3495 3.60313 35.2678 3.68499C35.1978 3.75515 35.1512 3.837 35.1278 3.93054L34.0312 7.99977H33.7629L32.5962 3.93054C32.5729 3.84869 32.5379 3.76684 32.4796 3.68499C32.4096 3.60313 32.3162 3.55636 32.2112 3.55636H30.7063C30.508 3.55636 30.3913 3.61483 30.333 3.75514C30.298 3.87208 30.298 4.0007 30.333 4.11763L32.1996 9.84729C32.2346 9.92914 32.2696 10.0227 32.3396 10.0812C32.4096 10.1513 32.5146 10.1864 32.6196 10.1864H33.4129L33.3429 10.3735L33.1679 10.8997C33.1096 11.0634 33.0162 11.2037 32.8762 11.3089C32.7479 11.4025 32.5962 11.4609 32.4329 11.4493C32.2929 11.4493 32.1646 11.4142 32.0362 11.3674C31.9079 11.3089 31.7913 11.2388 31.6863 11.1569C31.5929 11.0868 31.4763 11.0517 31.3479 11.0517H31.3363C31.1963 11.0634 31.0679 11.1335 30.9979 11.2622L30.5313 11.9521C30.3446 12.2561 30.4496 12.4432 30.5663 12.5484C30.8229 12.7823 31.1146 12.9577 31.4413 13.0629C31.8029 13.1915 32.1762 13.25 32.5496 13.25C33.2262 13.25 33.7862 13.0629 34.2179 12.7004C34.6612 12.3029 34.9995 11.7884 35.1628 11.2037L37.3328 4.11763C37.3794 3.98901 37.3911 3.86038 37.3444 3.74345C37.3328 3.6616 37.2511 3.56806 37.0528 3.56806Z" fill="#011B33"/>
</svg>
