<!-- <?xml version="1.0" encoding="UTF-8"?><svg id="Layer_1" xmlns="http://www.w3.org/2000/svg" viewBox="0 0 80 80"><defs><style>.cls-1{fill:#0c2651;}.cls-2{fill:#3395ff;}</style></defs><g><path class="cls-1" d="M18.96,53.44c.23-.86,.14-1.53-.29-1.98-.42-.46-1.16-.69-2.21-.69h-4.03l-2.43,9.12h1.95l.98-3.69h1.29c.24-.01,.47,.04,.68,.14,.09,.05,.16,.13,.21,.22,.05,.09,.08,.19,.09,.29l.35,3.05h2.09l-.34-2.83c-.07-.63-.36-1-.86-1.12,.61-.17,1.17-.49,1.62-.94,.44-.43,.75-.97,.9-1.56Zm-1.87,.03c-.08,.37-.31,.7-.64,.9-.31,.19-.76,.29-1.33,.29h-1.81l.64-2.38h1.81c.57,0,.96,.1,1.18,.29,.22,.19,.26,.5,.15,.9Z"/><path class="cls-1" d="M24.6,53.36l-.25,.92c-.1-.33-.32-.61-.62-.79-.34-.21-.74-.31-1.14-.29-.56,0-1.11,.15-1.6,.42-.53,.3-.99,.72-1.34,1.22-.39,.54-.68,1.14-.84,1.79-.17,.57-.21,1.18-.11,1.77,.08,.47,.33,.88,.7,1.18,.4,.29,.89,.43,1.38,.41,.44,0,.88-.09,1.28-.28,.4-.18,.76-.45,1.05-.79l-.26,.96h1.9l1.74-6.51h-1.91Zm-.86,3.23c-.12,.53-.38,1.02-.76,1.41-.16,.16-.35,.28-.57,.37-.21,.08-.44,.13-.66,.12-.48,0-.81-.15-.99-.48-.18-.33-.18-.78-.02-1.38,.12-.54,.39-1.03,.77-1.42,.16-.16,.36-.29,.57-.38,.21-.09,.44-.13,.67-.13,.47,0,.8,.16,.96,.49,.17,.33,.18,.79,.02,1.41h0Z"/><path class="cls-1" d="M33.29,53.37h-5.48l-.4,1.52h3.19l-4.2,3.66-.36,1.34h5.66l.4-1.52h-3.42l4.26-3.71,.34-1.29Z"/><path class="cls-1" d="M39.29,53.6c-.51-.29-1.09-.43-1.68-.41-.66,0-1.31,.13-1.92,.41-.58,.27-1.1,.68-1.5,1.18-.42,.53-.72,1.14-.89,1.79-.18,.58-.2,1.2-.06,1.79,.13,.49,.44,.92,.87,1.18,.44,.27,1.01,.41,1.69,.41,.65,0,1.3-.13,1.89-.41,.58-.27,1.09-.68,1.49-1.18,.42-.53,.73-1.14,.89-1.79,.18-.58,.2-1.2,.06-1.79-.12-.49-.43-.91-.86-1.18Zm-1.11,2.97c-.17,.64-.42,1.12-.76,1.44-.33,.31-.76,.48-1.21,.47-.99,0-1.32-.64-.98-1.91,.17-.63,.42-1.11,.77-1.43,.33-.32,.77-.49,1.23-.48,.47,0,.8,.15,.96,.48,.17,.33,.16,.8,0,1.43Z"/><path class="cls-1" d="M60.01,53.36l-.25,.92c-.1-.33-.32-.61-.62-.79-.34-.21-.74-.31-1.14-.3-.56,0-1.11,.15-1.6,.43-.53,.3-.99,.72-1.34,1.22-.39,.54-.67,1.14-.84,1.79-.17,.57-.21,1.18-.11,1.77,.08,.47,.33,.88,.7,1.18,.41,.29,.9,.43,1.4,.41,.43,0,.86-.09,1.25-.27,.41-.18,.77-.45,1.05-.79l-.26,.96h1.9l1.74-6.51h-1.9Zm-.87,3.23c-.12,.53-.38,1.02-.76,1.41-.16,.16-.36,.28-.57,.37-.21,.08-.44,.13-.66,.12-.49,0-.81-.15-.99-.48-.18-.33-.18-.78-.02-1.38,.12-.53,.39-1.03,.77-1.42,.16-.16,.36-.29,.57-.38,.21-.09,.44-.13,.67-.13,.47,0,.79,.16,.96,.49,.18,.32,.18,.79,.02,1.41h0Z"/><path class="cls-1" d="M46.06,55.11l.49-1.77c-.21-.09-.43-.14-.65-.13-.44,0-.87,.11-1.26,.33-.35,.19-.65,.46-.89,.78l.25-.96h-1.9l-1.75,6.51h1.93l.91-3.4c.11-.45,.35-.86,.71-1.16,.36-.28,.82-.43,1.28-.42,.31,0,.61,.07,.89,.22Z"/><path class="cls-1" d="M52.78,53.64c-.39-.3-.88-.45-1.38-.43-.48,0-.96,.12-1.38,.34-.43,.21-.8,.53-1.08,.92v-.04l.33-1.04h-1.89l-.48,1.81s-.01,.04-.02,.06l-1.98,7.46h1.94l1-3.76c.1,.33,.32,.61,.62,.79,.35,.2,.74,.3,1.14,.28,.56,0,1.12-.14,1.61-.41,.53-.29,.98-.69,1.33-1.18,.38-.53,.66-1.14,.83-1.77,.18-.58,.22-1.19,.12-1.79-.08-.48-.33-.91-.7-1.22Zm-1.37,2.98c-.12,.52-.38,1-.75,1.38-.33,.32-.77,.49-1.23,.48-.48,0-.8-.16-.97-.49-.17-.32-.18-.79-.01-1.41,.12-.53,.39-1.03,.77-1.42,.16-.16,.36-.28,.57-.37,.21-.08,.44-.13,.66-.12,.46,0,.78,.17,.95,.51,.17,.34,.18,.82,.02,1.43Z"/><path class="cls-1" d="M70,53.15h-2l-.31,.64s-.05,.06-.08,.1l-.03,.05-2.46,3.44-.51-4.03h-2.02l1.03,6.17-2.27,3.16h1.94l.56-.8s.03-.04,.05-.07l.66-.94,.02-.02,2.93-4.19,2.48-3.53Z"/></g><g><path class="cls-2" d="M38.1,27.34l-1.52,5.52,8.56-5.55-5.59,20.99h5.67l8.26-31-15.38,10.04Z"/><path class="cls-1" d="M28.88,39.47l-2.35,8.83h11.63l4.76-17.96-14.04,9.13Z"/></g></svg> -->

<svg width="65" height="14" viewBox="0 0 65 14" fill="none" xmlns="http://www.w3.org/2000/svg">
  <path d="M4.24394 3.68019L3.69531 5.70776L6.83553 3.66865L4.78176 11.3627L6.86758 11.3644L9.90156 0" fill="#3395FF"/>
  <path d="M0.863865 8.13L0 11.3646H4.27509L6.02442 4.78453L0.863865 8.13ZM15.714 5.28224C15.6095 5.67222 15.4082 5.95868 15.1079 6.1416C14.8083 6.32418 14.3879 6.41582 13.8452 6.41582H12.1209L12.7263 4.14936H14.4506C14.9926 4.14936 15.365 4.2403 15.567 4.42567C15.769 4.61105 15.8178 4.89435 15.714 5.28609V5.28224ZM17.4992 5.23712C17.7186 4.41868 17.6281 3.78911 17.2268 3.34841C16.8262 2.91121 16.1233 2.69086 15.1201 2.69086H11.272L8.95564 11.3684H10.8251L11.7587 7.87082H12.9848C13.26 7.87082 13.4766 7.91629 13.6348 8.00373C13.7933 8.09467 13.8863 8.25206 13.9148 8.47941L14.2486 11.3684H16.2515L15.9268 8.67527C15.8606 8.07368 15.5865 7.72042 15.1048 7.6155C15.7189 7.43712 16.2334 7.13982 16.6479 6.7271C17.0595 6.31741 17.3536 5.80391 17.4992 5.24062V5.23712ZM22.0435 8.26256C21.8868 8.85015 21.6464 9.29435 21.3214 9.60564C20.9961 9.91693 20.6074 10.0708 20.1538 10.0708C19.6919 10.0708 19.3788 9.92042 19.2133 9.61613C19.0475 9.31184 19.042 8.87114 19.1959 8.29403C19.3499 7.71693 19.5955 7.26574 19.9333 6.94046C20.2712 6.61518 20.6662 6.45254 21.1198 6.45254C21.5726 6.45254 21.8826 6.60993 22.0394 6.92227C22.1996 7.23601 22.2031 7.68475 22.0463 8.26885L22.0435 8.26256ZM22.8628 5.19165L22.6287 6.06955C22.5277 5.75477 22.3316 5.50294 22.0418 5.31407C21.7513 5.12869 21.3918 5.03426 20.963 5.03426C20.437 5.03426 19.9319 5.17066 19.4478 5.44348C18.9636 5.71629 18.5386 6.10103 18.1764 6.59769C17.8141 7.09435 17.5494 7.65747 17.3787 8.29054C17.2115 8.9271 17.1766 9.48322 17.2777 9.96589C17.3822 10.4521 17.6016 10.8228 17.9395 11.0816C18.2809 11.344 18.7163 11.4734 19.2492 11.4734C19.6727 11.4755 20.0914 11.3835 20.4753 11.204C20.8549 11.0321 21.1925 10.7791 21.4646 10.4626L21.2208 11.3775H23.0286L24.6794 5.1948H22.868L22.8628 5.19165ZM31.1758 5.19165H25.9184L25.5509 6.56971H28.61L24.5658 10.0778L24.2203 11.3719H29.6473L30.0148 9.99387H26.737L30.8431 6.4333L31.1758 5.19165ZM35.8034 8.25206C35.6407 8.86065 35.3993 9.31813 35.0806 9.61613C34.7619 9.91693 34.3759 10.0673 33.9227 10.0673C32.9753 10.0673 32.6639 9.46224 32.9871 8.25206C33.1473 7.65047 33.3898 7.19823 33.7137 6.89359C34.0377 6.5879 34.4303 6.4354 34.8918 6.4354C35.3446 6.4354 35.6505 6.58685 35.8079 6.89184C35.9654 7.19613 35.964 7.64977 35.8034 8.25136V8.25206ZM36.8616 5.42424C36.4454 5.16402 35.9142 5.03391 35.2663 5.03391C34.6103 5.03391 34.0032 5.16332 33.4445 5.42214C32.8881 5.67935 32.3991 6.06329 32.0163 6.54348C31.6227 7.02965 31.3395 7.59976 31.1657 8.25031C30.995 8.89842 30.9741 9.46748 31.1065 9.9547C31.2388 10.4409 31.5175 10.8151 31.9355 11.0739C32.357 11.3349 32.8934 11.4646 33.5518 11.4646C34.1997 11.4646 34.8023 11.3338 35.3561 11.0736C35.91 10.812 36.3837 10.4405 36.7773 9.95085C37.1709 9.46329 37.4531 8.89457 37.6273 8.24402C37.8014 7.59346 37.8223 7.02545 37.69 6.53718C37.5576 6.05101 37.2824 5.67677 36.8679 5.4162L36.8616 5.42424ZM43.3155 6.84322L43.7788 5.16087C43.6221 5.08043 43.4165 5.03846 43.1588 5.03846C42.7443 5.03846 42.3472 5.14128 41.964 5.34974C41.6345 5.52672 41.3544 5.77645 41.1175 6.08914L41.3579 5.18326L40.833 5.18535H39.5441L37.8826 11.3656H39.7159L40.578 8.13489C40.7034 7.66516 40.9291 7.29546 41.2548 7.03314C41.5787 6.76977 41.9828 6.63791 42.4705 6.63791C42.77 6.63791 43.0487 6.70682 43.3134 6.84427L43.3155 6.84322ZM48.4165 8.28179C48.2598 8.8589 48.0229 9.2996 47.6989 9.60389C47.375 9.90958 46.9849 10.0621 46.532 10.0621C46.0792 10.0621 45.7692 9.90818 45.6055 9.60039C45.4383 9.29085 45.4348 8.84491 45.5915 8.25871C45.7483 7.67286 45.9886 7.22341 46.3195 6.91213C46.6505 6.59839 47.0406 6.4417 47.4934 6.4417C47.9393 6.4417 48.2389 6.60259 48.3991 6.92787C48.5593 7.25314 48.5628 7.70434 48.4088 8.28144L48.4165 8.28179ZM49.6907 5.43438C49.3511 5.16157 48.9174 5.02516 48.3914 5.02516C47.9306 5.02516 47.4913 5.13009 47.0747 5.34205C46.6585 5.55365 46.3206 5.84221 46.0611 6.20736L46.0674 6.16539L46.3749 5.18256H44.5845L44.1282 6.89289L44.1143 6.95235L42.2333 13.9979H44.069L45.0164 10.4514C45.1105 10.7668 45.3021 11.0145 45.5947 11.1936C45.8873 11.3719 46.2485 11.4604 46.678 11.4604C47.2109 11.4604 47.7195 11.331 48.2019 11.0722C48.6861 10.8127 49.1041 10.4391 49.4594 9.95645C49.8147 9.47378 50.0784 8.91416 50.2467 8.28109C50.4173 7.64698 50.4522 7.08141 50.3546 6.5865C50.2554 6.09089 50.0356 5.7072 49.6963 5.43578L49.6907 5.43438ZM55.7799 8.25661C55.6232 8.84071 55.3828 9.2884 55.0589 9.59619C54.7349 9.90608 54.3448 10.0603 53.892 10.0603C53.4287 10.0603 53.1152 9.90993 52.9515 9.60564C52.7843 9.30135 52.7808 8.86065 52.934 8.28354C53.0873 7.70643 53.3318 7.25524 53.6697 6.92996C54.0076 6.60469 54.403 6.4424 54.8565 6.4424C55.3093 6.4424 55.6159 6.59979 55.7761 6.91108C55.9363 7.22341 55.9374 7.67216 55.7813 8.25766L55.7799 8.25661ZM56.5985 5.18396L56.3641 6.06186C56.2631 5.74532 56.068 5.49349 55.7789 5.30637C55.4863 5.1196 55.1275 5.02656 54.699 5.02656C54.1731 5.02656 53.6652 5.16297 53.1803 5.43578C52.6961 5.7086 52.2712 6.09124 51.9089 6.5865C51.5466 7.08176 51.2819 7.64628 51.1112 8.27934C50.9423 8.91486 50.9092 9.47203 51.0102 9.9568C51.1123 10.4395 51.3321 10.8123 51.672 11.0725C52.0113 11.3314 52.4488 11.4622 52.9818 11.4622C53.4102 11.4622 53.8195 11.3726 54.2079 11.1929C54.5866 11.0202 54.9233 10.7668 55.1947 10.4503L54.9509 11.366H56.7587L58.4091 5.1857H56.6013L56.5985 5.18396ZM65.999 5.18605L66 5.18431H64.8888C64.8533 5.18431 64.8219 5.18605 64.7895 5.18675H64.2131L63.917 5.59947L63.8438 5.69741L63.8125 5.74637L61.4699 9.02294L60.9858 5.18605H59.0671L60.039 11.0166L57.8933 14H59.8056L60.3246 13.261C60.3392 13.2393 60.3525 13.2211 60.3699 13.198L60.976 12.3341L60.9934 12.3096L63.708 8.44478L65.9965 5.192L66 5.1899H65.999V5.18605Z" fill="black"/>
</svg>