<!-- <?xml version="1.0" encoding="UTF-8"?><svg id="Layer_1" xmlns="http://www.w3.org/2000/svg" viewBox="0 0 80 80"><path d="M23.55,28.94c0-3.58,0-7.17,0-10.75,0-2.74,1.62-4.83,4.26-5.52,.56-.15,1.13-.17,1.7-.17,6.98,0,13.95,0,20.93,0,1.9,0,3.54,.59,4.76,2.1,.81,1,1.22,2.15,1.22,3.44,0,2.86,0,5.73,0,8.59,0,4.39,0,8.77,0,13.16,0,2.6-1.54,4.66-4.02,5.42-.53,.16-1.09,.21-1.65,.21-7.17,0-14.34,0-21.52,0-2.83,0-5.1-1.86-5.61-4.54-.08-.41-.07-.81-.07-1.22,0-3.57,0-7.13,0-10.7Zm16.43,10.36c2.78,0,5.56,0,8.35,0,1.4,0,2.05-.64,2.05-2.03,0-5.54,0-11.09,0-16.63,0-1.39-.65-2.03-2.05-2.03-5.55,0-11.1,0-16.64,0-1.43,0-2.07,.64-2.07,2.06,0,5.53,0,11.06,0,16.58,0,1.43,.62,2.05,2.07,2.05,2.77,0,5.53,0,8.3,0Z"/><path d="M29.28,55.24c0-.28,0-.55,0-.83,0-.32,.12-.49,.46-.48,.18,0,.36,0,.54,0,.26,0,.4,.11,.4,.38,0,.11,0,.23,0,.34,0,4.04,0,8.08,0,12.11,0,.23,.12,.55-.18,.65-.34,.12-.72,.13-1.06-.02-.21-.09-.16-.34-.16-.53,0-1.36,0-2.71,0-4.07,0-.18,0-.36,0-.66-1.15,1.23-2.46,1.77-4.07,1.65-1.59-.12-2.85-.81-3.8-2.05-1.36-1.77-1.42-4.68,.54-6.58,1.02-.99,2.26-1.46,3.69-1.47,1.43,0,2.6,.53,3.54,1.61l.11-.08Zm-7.47,3.53c0,2.2,1.61,3.83,3.8,3.82,2.08,0,3.74-1.69,3.75-3.8,.01-2.14-1.65-3.87-3.75-3.85-2.36,.03-3.79,1.73-3.8,3.82Z"/><path d="M14.47,49.87c1.56,.05,2.81,.66,3.6,2.06,.1,.18,.19,.38,.25,.58,.09,.31,.27,.69,.06,.93-.25,.27-.68,.11-1.03,.1-.31-.01-.3-.28-.35-.51-.26-1.22-1.69-2-3.12-1.71-1.36,.27-2.21,1.38-2.02,2.63,.11,.73,.56,1.18,1.22,1.41,.66,.24,1.34,.42,2.02,.6,.8,.21,1.56,.5,2.26,.93,1.82,1.12,2.24,3.46,.94,5.16-2.07,2.69-6.32,2.35-7.92-.65-.22-.41-.33-.85-.35-1.31-.01-.27,.09-.4,.37-.4,.15,0,.3,.01,.44,0,.38-.04,.54,.12,.63,.5,.3,1.36,1.25,2.04,2.55,2.23,1.28,.18,2.42-.15,3.2-1.27,.68-.98,.66-2.46-.8-3.19-.9-.45-1.88-.67-2.84-.94-.38-.11-.75-.23-1.11-.39-1.23-.55-1.95-1.47-2.02-2.83-.08-1.46,.57-2.56,1.79-3.31,.68-.42,1.42-.66,2.25-.61Z"/><path d="M65.61,59.32c-1.24,0-2.49,0-3.73,0-.53,0-.58,.06-.44,.57,.4,1.47,1.65,2.49,3.28,2.68,1.34,.16,2.75-.61,3.45-1.88,.19-.34,1.11-.54,1.39-.31,.17,.15,.06,.31-.01,.44-.75,1.56-1.95,2.57-3.66,2.91-2.25,.45-4.63-.81-5.52-2.89-1.3-3.01,.44-6.38,3.65-7.08,1.95-.42,4.28,.68,5.26,2.46,.43,.79,.69,1.61,.71,2.52,0,.42-.13,.59-.56,.58-1.28-.02-2.55,0-3.83,0Zm-.65-1.28c1.08,0,2.16,0,3.24,0,.24,0,.41,0,.32-.34-.4-1.58-1.82-2.72-3.52-2.76-1.56-.04-3.1,1.1-3.54,2.61-.1,.35-.05,.51,.36,.5,1.05-.02,2.09,0,3.14,0Z"/><path d="M51.72,55.3c.12-.34,.06-.64,.07-.92,.01-.3,.13-.46,.44-.45,.18,0,.36,0,.54,0,.29,0,.41,.14,.41,.42,0,.43,0,.85,0,1.28,0,2.36,0,4.71,0,7.07,0,.94,0,.95-.68,.95-.69,0-.7-.02-.71-.93,0-.16,.05-.32-.06-.47-2.3,2.53-5.95,1.68-7.54-.15-1.75-2.02-1.63-5.11,.32-6.97,1.81-1.73,5.13-2.13,7.21,.18Zm-7.4,3.52c.01,2.18,1.63,3.79,3.8,3.77,2.11-.01,3.76-1.71,3.75-3.85-.02-2.13-1.64-3.82-3.75-3.8-2.35,.03-3.81,1.7-3.8,3.87Z"/><path d="M39.91,62.49c-.51,.59-1.09,1.06-1.85,1.21-1.62,.32-3.11,.08-4.28-1.17-.66-.71-.95-1.61-.97-2.56-.03-1.85,0-3.7-.03-5.55,0-.53,.3-.52,.67-.52,.36,0,.69-.02,.68,.51-.02,1.46-.01,2.91,0,4.37,0,.6,.05,1.21,.17,1.8,.31,1.56,1.55,2.12,2.92,2,1.44-.12,2.28-.92,2.59-2.34,.1-.46,.15-.93,.15-1.41,0-1.46,.02-2.91-.01-4.37-.01-.54,.26-.57,.67-.57,.39,0,.69,0,.69,.56-.02,2.88-.02,5.76,0,8.64,0,.49-.23,.57-.63,.57-.4,0-.73-.04-.69-.57,.01-.19,.06-.39-.08-.6Z"/><path d="M56.86,54.94c.55-.73,1.29-1.07,2.14-1.2,.39-.06,.57,.07,.57,.49,0,.81,.02,.81-.75,1.02-1.18,.32-1.9,1.2-1.92,2.41-.03,1.73-.01,3.46-.02,5.2,0,.72-.55,1.06-1.2,.76-.24-.11-.19-.32-.19-.51,0-1.13,0-2.26,0-3.38,0-1.7,0-3.4,0-5.1,0-.69,.03-.71,.77-.7,.57,0,.64,.09,.61,.73,0,.1-.01,.19-.02,.29Z"/><path d="M35.46,28.94c0-1.08,0-2.16,0-3.24,0-.81,.4-1.29,1.21-1.3,2.21-.03,4.42-.03,6.63,0,.83,.01,1.22,.5,1.22,1.34,0,2.16,0,4.32,0,6.48,0,.84-.43,1.28-1.26,1.29-2.18,0-4.36,0-6.53,0-.84,0-1.27-.44-1.27-1.28,0-1.1,0-2.19,0-3.29Z"/></svg> -->

<svg width="56" height="14" viewBox="0 0 56 14" fill="none" xmlns="http://www.w3.org/2000/svg">
  <path d="M11.6923 0H2.3458C1.0501 0 0 1.04726 0 2.33943V11.6606C0 12.9527 1.0501 14 2.3458 14H11.6923C12.988 14 14.0381 12.9527 14.0381 11.6606V2.33943C14.0381 1.04726 12.988 0 11.6923 0ZM11.4862 10.7161C11.4862 11.1243 11.1545 11.4551 10.7452 11.4551H3.29287C2.88355 11.4551 2.55187 11.1243 2.55187 10.7161V3.28393C2.55187 2.87573 2.88355 2.54494 3.29287 2.54494H10.7452C11.1545 2.54494 11.4862 2.87573 11.4862 3.28393V10.7161ZM5.52999 8.90026C5.29428 8.90026 5.10515 8.71024 5.10515 8.47517V5.50794C5.10515 5.27287 5.29428 5.08144 5.52999 5.08144H8.50952C8.74382 5.08144 8.93436 5.27147 8.93436 5.50794V8.47376C8.93436 8.70883 8.74382 8.89885 8.50952 8.89885H5.52999V8.90026ZM17.76 8.69757H19.2929C19.3691 9.56324 19.9576 10.2389 21.1446 10.2389C22.2046 10.2389 22.8567 9.71667 22.8567 8.92701C22.8567 8.18802 22.3458 7.85723 21.4255 7.64046L20.2371 7.38568C18.9471 7.10557 17.976 6.2779 17.976 4.9266C17.976 3.43595 19.3041 2.41685 21.0289 2.41685C22.8553 2.41685 24.031 3.37261 24.1327 4.78584H22.6506C22.4742 4.12427 21.9238 3.73014 21.0303 3.73014C20.0847 3.73014 19.434 4.23969 19.434 4.89001C19.434 5.54032 19.9957 5.93445 20.9668 6.15122L22.1425 6.40599C23.4326 6.68611 24.3133 7.4631 24.3133 8.82566C24.3133 10.5584 23.0106 11.5902 21.1461 11.5902C19.0501 11.5888 17.8885 10.4557 17.76 8.69757ZM29.7967 14V11.4649L29.8969 10.3529H29.7967C29.4453 11.1524 28.7071 11.5902 27.705 11.5902C26.0889 11.5902 24.8864 10.2783 24.8864 8.26684C24.8864 6.25538 26.0889 4.9435 27.705 4.9435C28.6944 4.9435 29.3959 5.40519 29.7967 6.1301H29.8969V5.06736H31.2251V14H29.7967ZM29.8461 8.26543C29.8461 6.97889 29.0571 6.22863 28.0917 6.22863C27.1263 6.22863 26.3373 6.97889 26.3373 8.26543C26.3373 9.55198 27.1263 10.3022 28.0917 10.3022C29.0571 10.3022 29.8461 9.55339 29.8461 8.26543ZM32.2851 8.92841V5.06736H33.7134V8.80314C33.7134 9.8152 34.2018 10.3022 35.0162 10.3022C36.0183 10.3022 36.6704 9.58999 36.6704 8.47798V5.06736H38.0988V11.4635H36.7706V10.139H36.6704C36.3571 10.9891 35.6683 11.5888 34.6041 11.5888C33.0741 11.5888 32.2851 10.6147 32.2851 8.92841ZM38.9682 9.67726C38.9682 8.47798 39.808 7.7784 41.2985 7.69113L43.0642 7.57852V7.07883C43.0642 6.47919 42.6252 6.11743 41.8489 6.11743C41.1348 6.11743 40.7085 6.47919 40.5956 6.99155H39.1672C39.3182 5.69234 40.3952 4.94209 41.8475 4.94209C43.489 4.94209 44.4911 5.64167 44.4911 6.99155V11.4635H43.163V10.2769H43.0628C42.7621 11.0637 42.1355 11.5888 40.9329 11.5888C39.7826 11.5888 38.9682 10.8146 38.9682 9.67726ZM43.0656 8.89041V8.55258L41.6245 8.65252C40.8482 8.70179 40.4968 8.99035 40.4968 9.56465C40.4968 10.0517 40.8976 10.4022 41.4608 10.4022C42.477 10.4022 43.0656 9.75327 43.0656 8.89041ZM45.5568 11.4649V5.06736H46.8849V6.29198H46.9851C47.1729 5.45445 47.8122 5.06736 48.7635 5.06736H49.4156V6.35391H48.6012C47.6739 6.35391 46.9851 6.95355 46.9851 8.09089V11.4635H45.5568V11.4649ZM55.9505 8.52866H51.0769C51.1517 9.70259 51.9788 10.3656 52.8934 10.3656C53.6697 10.3656 54.158 10.0531 54.4347 9.52805H55.8503C55.4622 10.8273 54.3218 11.5888 52.8807 11.5888C50.9894 11.5888 49.6612 10.177 49.6612 8.26543C49.6612 6.35391 51.0261 4.94209 52.8934 4.94209C54.772 4.94209 55.9999 6.22863 55.9999 7.82767C56.0014 8.14156 55.976 8.30344 55.9505 8.52866ZM54.5857 7.54193C54.5363 6.65514 53.7967 6.0555 52.8948 6.0555C52.0423 6.0555 51.3295 6.5932 51.1531 7.54193H54.5857Z" fill="#1A1A1A"/>
</svg>