<svg width="49" height="20" viewBox="0 0 49 20" fill="none" xmlns="http://www.w3.org/2000/svg">
<path d="M48.0641 10.3338C48.0641 6.91589 46.4085 4.21896 43.2443 4.21896C40.0668 4.21896 38.1442 6.91589 38.1442 10.3071C38.1442 14.3258 40.4139 16.3551 43.6716 16.3551C45.2603 16.3551 46.4619 15.9947 47.3698 15.4873V12.8171C46.4619 13.271 45.4206 13.5514 44.0988 13.5514C42.8037 13.5514 41.6555 13.0975 41.5087 11.522H48.0374C48.0374 11.3485 48.0641 10.6542 48.0641 10.3338ZM41.4686 9.06542C41.4686 7.55674 42.3899 6.92924 43.231 6.92924C44.0454 6.92924 44.9132 7.55674 44.9132 9.06542H41.4686ZM32.9907 4.21896C31.6822 4.21896 30.8411 4.83311 30.3738 5.26035L30.2003 4.43258H27.263V20L30.6008 19.2924L30.6142 15.514C31.0948 15.8611 31.8024 16.3551 32.9773 16.3551C35.3672 16.3551 37.5434 14.4326 37.5434 10.2003C37.53 6.32844 35.3271 4.21896 32.9907 4.21896ZM32.1896 13.4179C31.4019 13.4179 30.9346 13.1375 30.6142 12.7904L30.6008 7.83712C30.9479 7.44993 31.4286 7.18291 32.1896 7.18291C33.4045 7.18291 34.2457 8.54473 34.2457 10.2937C34.2457 12.0828 33.4179 13.4179 32.1896 13.4179ZM22.6702 3.43124L26.0214 2.71028V0L22.6702 0.70761V3.43124ZM22.6702 4.44593H26.0214V16.1282H22.6702V4.44593ZM19.0788 5.43391L18.8652 4.44593H15.9813V16.1282H19.3191V8.21095C20.1068 7.18291 21.4419 7.36983 21.8558 7.51669V4.44593C21.4286 4.28571 19.8665 3.99199 19.0788 5.43391ZM12.4032 1.54873L9.14553 2.24299L9.13218 12.9373C9.13218 14.9132 10.6142 16.3685 12.5901 16.3685C13.6849 16.3685 14.486 16.1682 14.9266 15.9279V13.2176C14.4993 13.3912 12.3899 14.0053 12.3899 12.0294V7.28972H14.9266V4.44593H12.3899L12.4032 1.54873ZM3.37784 7.83712C3.37784 7.31642 3.80507 7.11616 4.51268 7.11616C5.52737 7.11616 6.80908 7.42323 7.82377 7.97063V4.83311C6.71562 4.39252 5.62083 4.21896 4.51268 4.21896C1.8024 4.21896 0 5.63418 0 7.99733C0 11.6822 5.07343 11.0948 5.07343 12.6836C5.07343 13.2977 4.53939 13.498 3.79172 13.498C2.68358 13.498 1.26836 13.0441 0.146862 12.4299V15.6075C1.38852 16.1415 2.64352 16.3685 3.79172 16.3685C6.56876 16.3685 8.47797 14.9933 8.47797 12.6035C8.46462 8.62483 3.37784 9.33244 3.37784 7.83712Z" fill="#635BFF"/>
</svg>
