<svg width="176" height="177" viewBox="0 0 176 177" fill="none" xmlns="http://www.w3.org/2000/svg">
<g filter="url(#filter0_d_14420_48442)">
<circle cx="88" cy="84.2266" r="74" fill="white"/>
</g>
<path opacity="0.5" d="M119.922 10.0001C119.922 10.0001 114.55 16.3024 120.812 21.6775C114.549 16.3023 109.135 22.5679 109.135 22.5679C109.135 22.5679 114.507 16.2656 108.244 10.8904C114.507 16.2656 119.922 10.0001 119.922 10.0001Z" fill="white" stroke="#99A0AE" stroke-linecap="round" stroke-linejoin="round"/>
<path opacity="0.5" d="M60.7849 150.655C60.7849 150.655 52.5298 151.313 53.1573 159.542C52.5298 151.313 44.2705 151.914 44.2705 151.914C44.2705 151.914 52.5256 151.257 51.8981 143.027C52.5256 151.257 60.7849 150.655 60.7849 150.655Z" fill="white" stroke="#99A0AE" stroke-linecap="round" stroke-linejoin="round"/>
<path d="M145.883 70.7759C147.538 69.2537 147.654 66.6694 146.141 65.0037C144.628 63.338 142.06 63.2216 140.405 64.7438C138.75 66.266 138.634 68.8503 140.147 70.516C141.659 72.1817 144.228 72.2981 145.883 70.7759Z" fill="#EAEEF9"/>
<path d="M53.4054 36.0375C54.8084 35.5786 55.576 34.0622 55.12 32.6504C54.664 31.2386 53.1571 30.4662 51.7541 30.925C50.3512 31.3839 49.5835 32.9003 50.0395 34.3121C50.4955 35.7238 52.0025 36.4963 53.4054 36.0375Z" fill="#EAEEF9"/>
<path d="M59.236 27.2689C60.19 26.9569 60.712 25.9257 60.4019 24.9657C60.0918 24.0057 59.0671 23.4804 58.1131 23.7925C57.1591 24.1045 56.6371 25.1357 56.9472 26.0956C57.2573 27.0556 58.282 27.5809 59.236 27.2689Z" fill="#EAEEF9"/>
<path d="M146.183 52.6117C146.88 51.9708 146.929 50.8827 146.292 50.1813C145.655 49.48 144.574 49.431 143.877 50.0719C143.18 50.7129 143.131 51.801 143.768 52.5023C144.405 53.2037 145.486 53.2527 146.183 52.6117Z" fill="#EAEEF9"/>
<path d="M103.055 27.4702C103.534 27.0294 103.568 26.2809 103.13 25.7985C102.692 25.3161 101.948 25.2825 101.469 25.7233C100.989 26.1641 100.956 26.9125 101.394 27.3949C101.832 27.8773 102.576 27.911 103.055 27.4702Z" fill="#EAEEF9"/>
<g filter="url(#filter1_d_14420_48442)">
<path d="M130.051 123.814H39.3792C36.082 123.814 33.5342 121.266 33.5342 118.119V53.3748C33.5342 50.2275 36.082 47.6797 39.3792 47.6797H130.051C133.348 47.6797 135.896 50.2275 135.896 53.3748V118.119C135.746 121.266 133.198 123.814 130.051 123.814Z" fill="#F9FAFB"/>
</g>
<path d="M85.0375 47.6799H130.448C133.746 47.6799 136.293 50.2277 136.293 53.375V118.119C136.293 121.267 133.746 123.814 130.448 123.814H85.0375V47.6799Z" fill="white"/>
<path d="M136 53.0968V59.2266H34V53.0968C34 49.8536 36.266 47.2266 39.0916 47.2266H130.936C133.734 47.2266 136 49.8536 136 53.0968Z" fill="#F5F6F7"/>
<path d="M39.4377 54.6821C40.2641 54.6821 40.934 54.0121 40.934 53.1858C40.934 52.3594 40.2641 51.6895 39.4377 51.6895C38.6113 51.6895 37.9414 52.3594 37.9414 53.1858C37.9414 54.0121 38.6113 54.6821 39.4377 54.6821Z" fill="#E76159"/>
<path d="M43.927 54.6821C44.7534 54.6821 45.4233 54.0121 45.4233 53.1858C45.4233 52.3594 44.7534 51.6895 43.927 51.6895C43.1006 51.6895 42.4307 52.3594 42.4307 53.1858C42.4307 54.0121 43.1006 54.6821 43.927 54.6821Z" fill="#F1B452"/>
<path d="M48.386 54.6821C49.2123 54.6821 49.8823 54.0121 49.8823 53.1858C49.8823 52.3594 49.2123 51.6895 48.386 51.6895C47.5596 51.6895 46.8896 52.3594 46.8896 53.1858C46.8896 54.0121 47.5596 54.6821 48.386 54.6821Z" fill="#5EBB52"/>
<path d="M56.9137 72.4086H42.526C41.6268 72.4086 40.8774 71.6593 40.8774 71.0598C40.8774 70.3104 41.6268 69.7109 42.526 69.7109H56.9137C57.8129 69.7109 58.5622 70.4603 58.5622 71.0598C58.5622 71.8091 57.8129 72.4086 56.9137 72.4086Z" fill="#AAB2C5"/>
<path d="M53.4666 95.6391H42.6759C41.7767 95.6391 41.0273 94.8897 41.0273 94.2902C41.0273 93.5409 41.7767 92.9414 42.6759 92.9414H53.4666C54.3659 92.9414 55.1152 93.6908 55.1152 94.2902C54.9654 94.8897 54.216 95.6391 53.4666 95.6391Z" fill="#AAB2C5"/>
<path d="M66.655 103.282H48.3708C47.4715 103.282 46.7222 102.532 46.7222 101.933C46.7222 101.183 47.4715 100.584 48.3708 100.584H66.655C67.5543 100.584 68.3036 101.333 68.3036 101.933C68.1537 102.682 67.4044 103.282 66.655 103.282Z" fill="#D6DCE8"/>
<path d="M84.64 100.436V103.283H73.6994C72.8001 103.283 72.0508 102.534 72.0508 101.934C72.0508 101.485 72.2007 101.185 72.6503 100.885C72.95 100.735 73.2498 100.436 73.8492 100.436H84.64Z" fill="#D6DCE8"/>
<path d="M63.6579 110.776H42.526C41.6268 110.776 40.8774 110.026 40.8774 109.427C40.8774 108.678 41.6268 108.078 42.526 108.078H63.6579C64.5571 108.078 65.3064 108.827 65.3064 109.427C65.3064 110.176 64.707 110.776 63.6579 110.776Z" fill="#AAB2C5"/>
<path d="M51.968 118.569H42.9757C42.0765 118.569 41.3271 117.819 41.3271 117.22C41.3271 116.471 42.0765 115.871 42.9757 115.871H51.968C52.8672 115.871 53.6166 116.62 53.6166 117.22C53.6166 117.969 53.0171 118.569 51.968 118.569Z" fill="#D6DCE8"/>
<path d="M59.6116 118.569H57.6632C56.764 118.569 56.0146 117.819 56.0146 117.22C56.0146 116.471 56.764 115.871 57.6632 115.871H59.6116C60.5108 115.871 61.2601 116.62 61.2601 117.22C61.2601 117.969 60.5108 118.569 59.6116 118.569Z" fill="#D6DCE8"/>
<path d="M46.8723 88.1449H42.526C41.6268 88.1449 40.8774 87.3956 40.8774 86.7961C40.8774 86.0467 41.6268 85.4473 42.526 85.4473H46.8723C47.7715 85.4473 48.5209 86.1966 48.5209 86.7961C48.5209 87.5455 47.7715 88.1449 46.8723 88.1449Z" fill="#D6DCE8"/>
<path d="M63.6579 80.2016H42.526C41.6268 80.2016 40.8774 79.4522 40.8774 78.8527C40.8774 78.1034 41.6268 77.5039 42.526 77.5039H63.6579C64.5571 77.5039 65.3064 78.2533 65.3064 78.8527C65.3064 79.6021 64.707 80.2016 63.6579 80.2016Z" fill="#D6DCE8"/>
<path d="M84.6403 77.3555V80.203H70.7023C69.8031 80.203 69.0537 79.4537 69.0537 78.8542C69.0537 78.4046 69.2036 78.1048 69.6532 77.8051C69.8031 77.5053 70.2527 77.3555 70.8522 77.3555H84.6403Z" fill="#AAB2C5"/>
<path d="M102.175 89.9439C104.722 89.9439 106.821 87.8457 106.821 85.4478C106.821 83.7623 105.899 82.3401 104.55 81.5512H104.872C109.518 81.4013 113.265 85.1481 113.265 89.7941C113.265 94.4401 109.368 98.037 104.872 98.037C100.376 98.037 96.4795 94.4401 96.4795 89.944V89.7941C96.4795 88.8949 96.6294 87.9957 96.9291 87.2463C97.079 86.7967 97.2288 86.3471 97.5286 85.8975C97.5342 85.8884 97.5398 85.8793 97.5454 85.8702C97.8952 88.2065 99.8177 89.9439 102.175 89.9439Z" fill="white"/>
<path d="M93.9268 89.7976V87.9119L99.4815 79.1357H101.054V81.8203H100.095L96.3558 87.7457V87.848H104.109V89.7976H93.9268ZM100.172 92.2266V89.2223L100.197 88.3786V79.1357H102.435V92.2266H100.172ZM110.99 92.4759C109.938 92.4759 109.034 92.2095 108.28 91.6768C107.53 91.1399 106.953 90.3665 106.548 89.3565C106.147 88.3423 105.947 87.1214 105.947 85.6939C105.951 84.2663 106.154 83.0518 106.554 82.0504C106.959 81.0447 107.537 80.2777 108.287 79.7493C109.041 79.2209 109.942 78.9567 110.99 78.9567C112.039 78.9567 112.94 79.2209 113.694 79.7493C114.449 80.2777 115.026 81.0447 115.426 82.0504C115.831 83.0561 116.034 84.2706 116.034 85.6939C116.034 87.1257 115.831 88.3487 115.426 89.3629C115.026 90.3729 114.449 91.1442 113.694 91.6768C112.944 92.2095 112.043 92.4759 110.99 92.4759ZM110.99 90.4751C111.809 90.4751 112.454 90.0724 112.927 89.267C113.404 88.4574 113.643 87.2663 113.643 85.6939C113.643 84.6541 113.534 83.7805 113.317 83.0732C113.1 82.3658 112.793 81.8331 112.397 81.4751C112 81.1129 111.532 80.9318 110.99 80.9318C110.176 80.9318 109.533 81.3366 109.06 82.1463C108.587 82.9517 108.348 84.1342 108.344 85.6939C108.34 86.7379 108.444 87.6158 108.657 88.3274C108.875 89.0391 109.181 89.576 109.578 89.9382C109.974 90.2962 110.445 90.4751 110.99 90.4751ZM117.921 89.7976V87.9119L123.476 79.1357H125.048V81.8203H124.089L120.35 87.7457V87.848H128.104V89.7976H117.921ZM124.166 92.2266V89.2223L124.192 88.3786V79.1357H126.429V92.2266H124.166Z" fill="#696778"/>
<path d="M99 98.1894L122.485 98.1758" stroke="#EAECF0" stroke-linecap="round" stroke-linejoin="round"/>
<defs>
<filter id="filter0_d_14420_48442" x="0" y="0.226562" width="176" height="176" filterUnits="userSpaceOnUse" color-interpolation-filters="sRGB">
<feFlood flood-opacity="0" result="BackgroundImageFix"/>
<feColorMatrix in="SourceAlpha" type="matrix" values="0 0 0 0 0 0 0 0 0 0 0 0 0 0 0 0 0 0 127 0" result="hardAlpha"/>
<feMorphology radius="2" operator="erode" in="SourceAlpha" result="effect1_dropShadow_14420_48442"/>
<feOffset dy="4"/>
<feGaussianBlur stdDeviation="8"/>
<feColorMatrix type="matrix" values="0 0 0 0 0.105882 0 0 0 0 0.145098 0 0 0 0 0.2 0 0 0 0.06 0"/>
<feBlend mode="normal" in2="BackgroundImageFix" result="effect1_dropShadow_14420_48442"/>
<feBlend mode="normal" in="SourceGraphic" in2="effect1_dropShadow_14420_48442" result="shape"/>
</filter>
<filter id="filter1_d_14420_48442" x="11.5342" y="36.6797" width="146.362" height="120.135" filterUnits="userSpaceOnUse" color-interpolation-filters="sRGB">
<feFlood flood-opacity="0" result="BackgroundImageFix"/>
<feColorMatrix in="SourceAlpha" type="matrix" values="0 0 0 0 0 0 0 0 0 0 0 0 0 0 0 0 0 0 127 0" result="hardAlpha"/>
<feOffset dy="11"/>
<feGaussianBlur stdDeviation="11"/>
<feColorMatrix type="matrix" values="0 0 0 0 0.397708 0 0 0 0 0.47749 0 0 0 0 0.575 0 0 0 0.27 0"/>
<feBlend mode="normal" in2="BackgroundImageFix" result="effect1_dropShadow_14420_48442"/>
<feBlend mode="normal" in="SourceGraphic" in2="effect1_dropShadow_14420_48442" result="shape"/>
</filter>
</defs>
</svg>
