<svg xmlns="http://www.w3.org/2000/svg" width="32" height="32" viewBox="0 0 32 32" fill="none">
  <path d="M10.6667 21.3333L22.2935 20.3644C25.9315 20.0613 26.7481 19.2667 27.1513 15.6385L28 8" stroke="#565865" stroke-width="2" stroke-linecap="round"/>
  <path d="M8 8H29.3333H8Z" fill="#565865"/>
  <path d="M8 8H29.3333" stroke="#565865" stroke-width="2" stroke-linecap="round"/>
  <path d="M8.00001 29.3333C9.47277 29.3333 10.6667 28.1394 10.6667 26.6667C10.6667 25.1939 9.47277 24 8.00001 24C6.52725 24 5.33334 25.1939 5.33334 26.6667C5.33334 28.1394 6.52725 29.3333 8.00001 29.3333Z" stroke="#565865" stroke-width="2"/>
  <path d="M22.6667 29.3333C24.1394 29.3333 25.3333 28.1394 25.3333 26.6667C25.3333 25.1939 24.1394 24 22.6667 24C21.1939 24 20 25.1939 20 26.6667C20 28.1394 21.1939 29.3333 22.6667 29.3333Z" stroke="#565865" stroke-width="2"/>
  <path d="M10.6667 26.6666H20" stroke="#565865" stroke-width="2" stroke-linecap="round"/>
  <path d="M2.66666 2.66663H3.95466C5.21423 2.66663 6.31218 3.49941 6.61767 4.68653L10.5847 20.102C10.7851 20.881 10.6136 21.7062 10.1176 22.3488L8.84283 24" stroke="#565865" stroke-width="2" stroke-linecap="round"/>
</svg>