<svg xmlns="http://www.w3.org/2000/svg" width="155" height="112" viewBox="0 0 155 112" fill="none">
  <path d="M122.962 45.0436C122.962 55.1893 119.53 64.7228 113.81 72.2447C110.642 76.3554 106.858 79.9414 102.458 82.7403C95.4179 87.3758 86.8818 89.9997 77.8177 89.9997C52.9135 90.0872 32.6733 69.9706 32.6733 45.0436C32.6733 20.204 52.8255 0 77.8177 0C86.8818 0 95.3299 2.6239 102.458 7.25945C106.858 10.0583 110.642 13.6443 113.81 17.755C119.53 25.3644 122.962 34.8104 122.962 45.0436Z" fill="#EAEEF9"/>
  <path d="M43.4377 39.0219H42.8927C42.4839 39.0219 42.2114 38.8961 42.2114 38.7073C42.2114 38.5185 42.4839 38.3926 42.8927 38.3926H43.4377C43.8464 38.3926 44.1189 38.5185 44.1189 38.7073C44.1189 38.8961 43.8464 39.0219 43.4377 39.0219Z" fill="#2D5887"/>
  <path d="M43.4377 41.5376H42.8927C42.4839 41.5376 42.2114 41.4117 42.2114 41.2229C42.2114 41.0341 42.4839 40.9082 42.8927 40.9082H43.4377C43.8464 40.9082 44.1189 41.0341 44.1189 41.2229C44.1189 41.4117 43.8464 41.5376 43.4377 41.5376Z" fill="#2D5887"/>
  <path d="M43.4377 44.0542H42.8927C42.4839 44.0542 42.2114 43.9283 42.2114 43.7395C42.2114 43.5507 42.4839 43.4248 42.8927 43.4248H43.4377C43.8464 43.4248 44.1189 43.5507 44.1189 43.7395C44.1189 43.9283 43.8464 44.0542 43.4377 44.0542Z" fill="#2D5887"/>
  <path d="M43.4377 46.5757H42.8927C42.4839 46.5757 42.2114 46.4498 42.2114 46.261C42.2114 46.0722 42.4839 45.9463 42.8927 45.9463H43.4377C43.8464 45.9463 44.1189 46.0722 44.1189 46.261C44.1189 46.4498 43.8464 46.5757 43.4377 46.5757Z" fill="#2D5887"/>
  <mask id="path-6-inside-1_1504_45898" fill="white">
    <path d="M68.3105 39.0219H59.3482C58.9849 39.0219 58.7427 38.8961 58.7427 38.7073C58.7427 38.5185 58.9849 38.3926 59.3482 38.3926H68.3105C68.6738 38.3926 68.9161 38.5185 68.9161 38.7073C68.9161 38.8961 68.6738 39.0219 68.3105 39.0219Z"/>
  </mask>
  <path d="M68.3105 39.0219H59.3482C58.9849 39.0219 58.7427 38.8961 58.7427 38.7073C58.7427 38.5185 58.9849 38.3926 59.3482 38.3926H68.3105C68.6738 38.3926 68.9161 38.5185 68.9161 38.7073C68.9161 38.8961 68.6738 39.0219 68.3105 39.0219Z" fill="white"/>
  <path d="M68.3105 38.0219H59.3482V40.0219H68.3105V38.0219ZM59.3482 38.0219C59.2639 38.0219 59.2868 38.0046 59.3703 38.0481C59.4165 38.0721 59.5066 38.1285 59.59 38.2412C59.6806 38.3636 59.7427 38.5265 59.7427 38.7073H57.7427C57.7427 39.3065 58.1468 39.6662 58.4481 39.8228C58.7436 39.9763 59.0692 40.0219 59.3482 40.0219V38.0219ZM59.7427 38.7073C59.7427 38.888 59.6806 39.0509 59.59 39.1733C59.5066 39.286 59.4165 39.3425 59.3703 39.3665C59.2868 39.4099 59.2639 39.3926 59.3482 39.3926V37.3926C59.0692 37.3926 58.7436 37.4382 58.4481 37.5918C58.1468 37.7483 57.7427 38.1081 57.7427 38.7073H59.7427ZM59.3482 39.3926H68.3105V37.3926H59.3482V39.3926ZM68.3105 39.3926C68.3948 39.3926 68.372 39.4099 68.2884 39.3665C68.2423 39.3425 68.1521 39.286 68.0687 39.1733C67.9781 39.0509 67.9161 38.888 67.9161 38.7073H69.9161C69.9161 38.1081 69.5119 37.7483 69.2106 37.5918C68.9151 37.4382 68.5895 37.3926 68.3105 37.3926V39.3926ZM67.9161 38.7073C67.9161 38.5265 67.9781 38.3636 68.0687 38.2412C68.1521 38.1285 68.2423 38.0721 68.2884 38.0481C68.372 38.0046 68.3948 38.0219 68.3105 38.0219V40.0219C68.5895 40.0219 68.9151 39.9763 69.2106 39.8228C69.5119 39.6662 69.9161 39.3065 69.9161 38.7073H67.9161Z" fill="#D6DAE1" mask="url(#path-6-inside-1_1504_45898)"/>
  <path d="M87.4062 46.5757H59.3276C58.9767 46.5757 58.7427 46.4498 58.7427 46.261C58.7427 46.0722 58.9767 45.9463 59.3276 45.9463H87.4062C87.7572 45.9463 87.9912 46.0722 87.9912 46.261C87.9912 46.4498 87.7572 46.5757 87.4062 46.5757Z" fill="url(#paint0_linear_1504_45898)"/>
  <path d="M68.3454 41.5376H56.1341C55.7917 41.5376 55.5635 41.4117 55.5635 41.2229C55.5635 41.0341 55.7917 40.9082 56.1341 40.9082H68.3454C68.6878 40.9082 68.916 41.0341 68.916 41.2229C68.916 41.4117 68.6878 41.5376 68.3454 41.5376Z" fill="#2D5887"/>
  <path d="M77.8842 44.0542H56.1329C55.7912 44.0542 55.5635 43.9283 55.5635 43.7395C55.5635 43.5507 55.7912 43.4248 56.1329 43.4248H77.8842C78.2258 43.4248 78.4536 43.5507 78.4536 43.7395C78.3397 43.9283 78.1119 44.0542 77.8842 44.0542Z" fill="#2D5887"/>
  <mask id="path-11-inside-2_1504_45898" fill="white">
    <path d="M87.3718 44.0542H79.0729C78.7013 44.0542 78.4536 43.9283 78.4536 43.7395C78.4536 43.5507 78.7013 43.4248 79.0729 43.4248H87.3718C87.7434 43.4248 87.9912 43.5507 87.9912 43.7395C87.9912 43.9283 87.7434 44.0542 87.3718 44.0542Z"/>
  </mask>
  <path d="M87.3718 44.0542H79.0729C78.7013 44.0542 78.4536 43.9283 78.4536 43.7395C78.4536 43.5507 78.7013 43.4248 79.0729 43.4248H87.3718C87.7434 43.4248 87.9912 43.5507 87.9912 43.7395C87.9912 43.9283 87.7434 44.0542 87.3718 44.0542Z" fill="white"/>
  <path d="M87.3718 43.0542H79.0729V45.0542H87.3718V43.0542ZM79.0729 43.0542C78.9818 43.0542 78.9981 43.0361 79.0769 43.0761C79.1205 43.0983 79.2107 43.1528 79.2955 43.2648C79.388 43.3871 79.4536 43.5529 79.4536 43.7395H77.4536C77.4536 44.3506 77.8736 44.7081 78.1709 44.8592C78.4665 45.0094 78.7924 45.0542 79.0729 45.0542V43.0542ZM79.4536 43.7395C79.4536 43.926 79.388 44.0919 79.2955 44.2142C79.2107 44.3262 79.1205 44.3807 79.0769 44.4029C78.9981 44.4429 78.9818 44.4248 79.0729 44.4248V42.4248C78.7924 42.4248 78.4665 42.4696 78.1709 42.6198C77.8736 42.7709 77.4536 43.1284 77.4536 43.7395H79.4536ZM79.0729 44.4248H87.3718V42.4248H79.0729V44.4248ZM87.3718 44.4248C87.4629 44.4248 87.4467 44.4429 87.3679 44.4029C87.3243 44.3807 87.2341 44.3262 87.1493 44.2142C87.0568 44.0919 86.9912 43.9261 86.9912 43.7395H88.9912C88.9912 43.1283 88.5711 42.7709 88.2738 42.6198C87.9782 42.4696 87.6524 42.4248 87.3718 42.4248V44.4248ZM86.9912 43.7395C86.9912 43.5529 87.0568 43.387 87.1493 43.2648C87.2341 43.1528 87.3243 43.0983 87.3679 43.0761C87.4467 43.0361 87.4629 43.0542 87.3718 43.0542V45.0542C87.6524 45.0542 87.9782 45.0094 88.2738 44.8592C88.5711 44.7081 88.9912 44.3506 88.9912 43.7395H86.9912Z" fill="#D6DAE1" mask="url(#path-11-inside-2_1504_45898)"/>
  <path d="M92.4763 44.0542H89.2284C88.8675 44.0542 88.627 43.9283 88.627 43.7395C88.627 43.5507 88.8675 43.4248 89.2284 43.4248H92.4763C92.8372 43.4248 93.0778 43.5507 93.0778 43.7395C93.0778 43.9283 92.8372 44.0542 92.4763 44.0542Z" fill="url(#paint1_linear_1504_45898)"/>
  <path d="M22.5 78.6719H129.321" stroke="#D6DEE8" stroke-width="2" stroke-miterlimit="10" stroke-linecap="round" stroke-linejoin="round"/>
  <g filter="url(#filter0_d_1504_45898)">
    <path d="M97.5287 38.3926V78.6723H39.8353C37.5594 78.6723 35.8525 76.862 35.8525 74.7122V38.3926H97.5287Z" fill="white"/>
    <path d="M97.0287 38.8926V78.1723H39.8353C37.8422 78.1723 36.3525 76.5925 36.3525 74.7122V38.8926H97.0287Z" stroke="#F9FAFB"/>
  </g>
  <path d="M120.419 38.3926V74.7122C120.419 76.9751 118.522 78.6723 116.268 78.6723H97.5293V38.3926H120.419Z" fill="#DAE1ED"/>
  <g filter="url(#filter1_d_1504_45898)">
    <path d="M120.419 38.3926V74.7122C120.419 76.9751 118.522 78.6723 116.268 78.6723H97.5293V38.3926H120.419Z" fill="#E7EAF4"/>
  </g>
  <path d="M58.1074 38.3938L70.2392 19.5127H132.5L120.025 38.3938H58.1074Z" fill="#C5CDDB"/>
  <g filter="url(#filter2_d_1504_45898)">
    <path d="M58.1074 38.3938L70.2392 19.5127H132.5L120.025 38.3938H58.1074Z" fill="url(#paint2_linear_1504_45898)"/>
  </g>
  <path opacity="0.3" d="M120.419 38.5029V59.7912H103.729C102.179 59.7912 101.106 58.7985 100.867 57.3645L97.5293 38.3926L120.419 38.5029Z" fill="url(#paint3_linear_1504_45898)"/>
  <g filter="url(#filter3_d_1504_45898)">
    <path d="M119.94 38.3926H97.5293L108.909 55.4647C109.722 56.5953 110.999 57.2737 112.276 57.2737H129.694C130.855 57.2737 131.668 55.917 130.971 55.0125L119.94 38.3926Z" fill="url(#paint4_linear_1504_45898)"/>
  </g>
  <g filter="url(#filter4_d_1504_45898)">
    <path d="M97.5287 38.3938L85.3121 19.5127H22.5L35.1777 38.3938H97.5287Z" fill="#E7EAF4"/>
  </g>
  <path d="M66.6327 61.6801H42.586C42.0242 61.6801 41.5747 61.2605 41.5747 60.7361C41.5747 60.2116 42.0242 59.792 42.586 59.792H66.6327C67.1945 59.792 67.644 60.2116 67.644 60.7361C67.5316 61.2605 67.1945 61.6801 66.6327 61.6801Z" fill="#DAE1ED"/>
  <path d="M66.6327 66.0849H42.586C42.0242 66.0849 41.5747 65.8052 41.5747 65.4555C41.5747 65.1059 42.0242 64.8262 42.586 64.8262H66.6327C67.1945 64.8262 67.644 65.1059 67.644 65.4555C67.5316 65.8052 67.1945 66.0849 66.6327 66.0849Z" fill="#DAE1ED"/>
  <path d="M53.9002 71.1171H42.6018C42.0312 71.1171 41.5747 70.8374 41.5747 70.4878C41.5747 70.1381 42.0312 69.8584 42.6018 69.8584H53.9002C54.4708 69.8584 54.9273 70.1381 54.9273 70.4878C54.8131 70.8374 54.3566 71.1171 53.9002 71.1171Z" fill="#DAE1ED"/>
  <defs>
    <filter id="filter0_d_1504_45898" x="13.8525" y="27.3926" width="105.676" height="84.2793" filterUnits="userSpaceOnUse" color-interpolation-filters="sRGB">
      <feFlood flood-opacity="0" result="BackgroundImageFix"/>
      <feColorMatrix in="SourceAlpha" type="matrix" values="0 0 0 0 0 0 0 0 0 0 0 0 0 0 0 0 0 0 127 0" result="hardAlpha"/>
      <feOffset dy="11"/>
      <feGaussianBlur stdDeviation="11"/>
      <feColorMatrix type="matrix" values="0 0 0 0 0.397708 0 0 0 0 0.47749 0 0 0 0 0.575 0 0 0 0.27 0"/>
      <feBlend mode="normal" in2="BackgroundImageFix" result="effect1_dropShadow_1504_45898"/>
      <feBlend mode="normal" in="SourceGraphic" in2="effect1_dropShadow_1504_45898" result="shape"/>
    </filter>
    <filter id="filter1_d_1504_45898" x="75.5293" y="27.3926" width="66.8901" height="84.2793" filterUnits="userSpaceOnUse" color-interpolation-filters="sRGB">
      <feFlood flood-opacity="0" result="BackgroundImageFix"/>
      <feColorMatrix in="SourceAlpha" type="matrix" values="0 0 0 0 0 0 0 0 0 0 0 0 0 0 0 0 0 0 127 0" result="hardAlpha"/>
      <feOffset dy="11"/>
      <feGaussianBlur stdDeviation="11"/>
      <feColorMatrix type="matrix" values="0 0 0 0 0.397708 0 0 0 0 0.47749 0 0 0 0 0.575 0 0 0 0.27 0"/>
      <feBlend mode="normal" in2="BackgroundImageFix" result="effect1_dropShadow_1504_45898"/>
      <feBlend mode="normal" in="SourceGraphic" in2="effect1_dropShadow_1504_45898" result="shape"/>
    </filter>
    <filter id="filter2_d_1504_45898" x="36.1074" y="8.5127" width="118.393" height="62.8809" filterUnits="userSpaceOnUse" color-interpolation-filters="sRGB">
      <feFlood flood-opacity="0" result="BackgroundImageFix"/>
      <feColorMatrix in="SourceAlpha" type="matrix" values="0 0 0 0 0 0 0 0 0 0 0 0 0 0 0 0 0 0 127 0" result="hardAlpha"/>
      <feOffset dy="11"/>
      <feGaussianBlur stdDeviation="11"/>
      <feColorMatrix type="matrix" values="0 0 0 0 0.397708 0 0 0 0 0.47749 0 0 0 0 0.575 0 0 0 0.27 0"/>
      <feBlend mode="normal" in2="BackgroundImageFix" result="effect1_dropShadow_1504_45898"/>
      <feBlend mode="normal" in="SourceGraphic" in2="effect1_dropShadow_1504_45898" result="shape"/>
    </filter>
    <filter id="filter3_d_1504_45898" x="75.5293" y="27.3926" width="77.6992" height="62.8809" filterUnits="userSpaceOnUse" color-interpolation-filters="sRGB">
      <feFlood flood-opacity="0" result="BackgroundImageFix"/>
      <feColorMatrix in="SourceAlpha" type="matrix" values="0 0 0 0 0 0 0 0 0 0 0 0 0 0 0 0 0 0 127 0" result="hardAlpha"/>
      <feOffset dy="11"/>
      <feGaussianBlur stdDeviation="11"/>
      <feColorMatrix type="matrix" values="0 0 0 0 0.397708 0 0 0 0 0.47749 0 0 0 0 0.575 0 0 0 0.27 0"/>
      <feBlend mode="normal" in2="BackgroundImageFix" result="effect1_dropShadow_1504_45898"/>
      <feBlend mode="normal" in="SourceGraphic" in2="effect1_dropShadow_1504_45898" result="shape"/>
    </filter>
    <filter id="filter4_d_1504_45898" x="0.5" y="8.5127" width="119.029" height="62.8809" filterUnits="userSpaceOnUse" color-interpolation-filters="sRGB">
      <feFlood flood-opacity="0" result="BackgroundImageFix"/>
      <feColorMatrix in="SourceAlpha" type="matrix" values="0 0 0 0 0 0 0 0 0 0 0 0 0 0 0 0 0 0 127 0" result="hardAlpha"/>
      <feOffset dy="11"/>
      <feGaussianBlur stdDeviation="11"/>
      <feColorMatrix type="matrix" values="0 0 0 0 0.397708 0 0 0 0 0.47749 0 0 0 0 0.575 0 0 0 0.27 0"/>
      <feBlend mode="normal" in2="BackgroundImageFix" result="effect1_dropShadow_1504_45898"/>
      <feBlend mode="normal" in="SourceGraphic" in2="effect1_dropShadow_1504_45898" result="shape"/>
    </filter>
    <linearGradient id="paint0_linear_1504_45898" x1="58.8741" y1="46.2738" x2="88.0251" y2="46.2738" gradientUnits="userSpaceOnUse">
      <stop stop-color="#FF66A9"/>
      <stop offset="1" stop-color="#F53689"/>
    </linearGradient>
    <linearGradient id="paint1_linear_1504_45898" x1="88.6567" y1="43.7202" x2="93.077" y2="43.7202" gradientUnits="userSpaceOnUse">
      <stop stop-color="#83A6FF"/>
      <stop offset="1" stop-color="#5A78FF"/>
    </linearGradient>
    <linearGradient id="paint2_linear_1504_45898" x1="95.2796" y1="19.076" x2="95.2796" y2="38.5974" gradientUnits="userSpaceOnUse">
      <stop stop-color="#FDFEFF"/>
      <stop offset="0.9964" stop-color="#ECF0F5"/>
    </linearGradient>
    <linearGradient id="paint3_linear_1504_45898" x1="108.98" y1="60.2304" x2="108.98" y2="40.7388" gradientUnits="userSpaceOnUse">
      <stop offset="0.00289017" stop-color="#606673" stop-opacity="0"/>
      <stop offset="1" stop-color="#AAB2C5"/>
    </linearGradient>
    <linearGradient id="paint4_linear_1504_45898" x1="114.368" y1="37.9558" x2="114.368" y2="57.4772" gradientUnits="userSpaceOnUse">
      <stop stop-color="#FDFEFF"/>
      <stop offset="0.9964" stop-color="#ECF0F5"/>
    </linearGradient>
  </defs>
</svg>