<svg xmlns="http://www.w3.org/2000/svg" width="139" height="118" viewBox="0 0 139 118" fill="none">
  <path d="M42.3405 66.3362C42.3432 66.3829 42.3484 66.4763 42.3986 66.5195C42.4012 66.5662 42.454 66.6562 42.4566 66.7028C42.5067 66.7461 42.512 66.8395 42.5621 66.8827C42.6123 66.926 42.6624 66.9692 42.7152 67.0591C42.9711 67.3688 43.4144 67.6179 43.9051 67.8636C44.0028 67.9034 44.1479 67.9398 44.2455 67.9796C44.2957 68.0228 44.3906 68.0159 44.4408 68.0592C44.4909 68.1024 44.5859 68.0955 44.636 68.1388L44.8287 68.1717C45.0714 68.2479 45.3617 68.3206 45.6493 68.3466C45.7944 68.383 45.8894 68.3761 46.0345 68.4124C46.1295 68.4055 46.2271 68.4454 46.3696 68.435C46.4646 68.4281 46.5622 68.4679 46.6572 68.4611C47.4224 68.4993 48.1322 68.401 48.7365 68.1228C50.829 67.1741 51.5916 65.478 51.5916 65.478C51.5916 65.478 52.1695 65.5767 53.0772 65.6047C54.8002 65.7142 57.6684 65.8344 60.125 65.4219C60.9271 65.27 61.7715 65.0212 62.6607 64.7224C62.9404 64.6083 63.2201 64.4943 63.5473 64.3768C64.1067 64.1487 64.616 63.8774 65.1728 63.6026C66.6557 62.8388 68.0305 61.8484 69.1625 60.7818C69.2998 60.6781 69.4343 60.5277 69.5715 60.424C70.2022 59.7688 70.7353 59.0739 71.1258 58.3892C71.899 56.8799 72.9704 55.5833 74.1393 54.3265C75.8941 52.4647 77.9946 50.8123 79.8998 49.0802C80.4909 48.5685 81.0793 48.0102 81.6229 47.502C83.3856 45.7802 84.9425 43.7921 85.9611 41.5618C87.0642 39.1378 86.9403 36.9434 86.6053 34.3892C86.5974 34.2492 86.2176 32.589 86.3099 32.5354C87.1332 31.9132 87.7058 31.0747 87.9829 30.0701C88.6322 28.054 88.2048 25.5535 87.2101 23.9848C87.1046 23.8049 86.9991 23.625 86.8962 23.4918C85.854 21.9266 84.606 20.0949 83.2525 18.9273L80.796 16.8083L60.5629 18.2752C60.5629 18.2752 60.4019 19.6464 60.1643 21.3513C60.1247 21.4948 60.1326 21.6349 60.093 21.7784C60.0613 22.062 60.0297 22.3455 59.9505 22.6326C59.9109 22.7761 59.9188 22.9161 59.8792 23.0597C59.8819 23.1063 59.8819 23.1063 59.837 23.1565C59.808 23.4868 59.7288 23.7738 59.6997 24.104C59.5625 25.0516 59.3725 25.9092 59.127 26.6302C59.1297 26.6769 59.0874 26.7737 59.0901 26.8204C58.9687 27.2043 58.8446 27.5414 58.7153 27.7852C57.6782 29.6888 52.179 35.3381 48.308 38.5722C44.4369 41.8063 42.8667 46.9364 42.2778 55.0894C41.5438 63.2061 42.0635 64.8092 42.3405 66.3362Z" fill="#EAEEF9"/>
  <path opacity="0.3" d="M42.3561 66.328C42.5865 67.8629 46.5786 69.0313 48.6794 68.0798C50.8278 67.1249 51.5458 65.4273 51.5458 65.4273C51.5458 65.4273 56.3195 66.0219 60.1157 65.4179C62.9608 64.9297 66.7306 63.0111 69.1387 60.7209L68.4026 53.6275C68.4026 53.6275 67.7646 47.4204 67.325 44.7252C66.933 42.0266 69.1291 41.9146 68.8353 38.4095C68.4937 34.908 69.5723 28.5765 71.109 22.7291L64.3541 18.4225L60.0598 21.2255C59.7629 23.5978 59.2144 26.5997 58.6554 27.7216C57.6142 29.6307 52.0932 35.2965 48.2068 38.54C44.3204 41.7836 42.7439 46.9287 42.1527 55.1055C41.5562 63.1887 42.078 64.7965 42.3561 66.328Z" fill="#C4D1E4"/>
  <path opacity="0.2" d="M42.3769 66.3368C42.3795 66.3835 42.3848 66.4768 42.4349 66.52C42.4375 66.5666 42.4903 66.6565 42.4929 66.7031C42.543 66.7463 42.5483 66.8396 42.5984 66.8828C42.6484 66.926 42.6985 66.9692 42.7513 67.0591C43.007 67.3684 43.4499 67.6174 43.9403 67.8628C44.0379 67.9026 44.1829 67.9389 44.2805 67.9787C44.3306 68.0219 44.4255 68.015 44.4756 68.0582C44.5257 68.1014 44.6206 68.0946 44.6707 68.1378L44.8631 68.1707C45.1057 68.2467 45.3957 68.3194 45.6831 68.3454C45.8281 68.3817 45.9231 68.3749 46.0681 68.4112C46.7088 67.9432 47.0727 67.6358 47.0727 67.6358C47.0727 67.6358 47.0727 67.6358 46.6931 65.9771C46.5692 65.4708 46.4348 64.778 46.2397 63.8554C45.4041 60.0283 45.3992 52.3471 50.6804 52.1984C49.8896 48.3213 51.8278 43.8248 53.5708 40.9349C55.3638 38.0883 56.8719 39.4778 58.6383 41.2233C58.7834 40.4165 57.75 37.3064 56.5478 34.5832C58.8258 36.9474 60.7742 37.6961 65.8787 37.7944C63.4953 36.0936 63.1552 35.1347 61.0725 31.1638C63.4586 32.0682 68.2756 32.9836 71.1443 33.1504C78.0759 33.5378 83.9899 32.7812 87.8422 30.1132C88.4909 28.0989 88.0639 25.6006 87.07 24.0333C86.9645 23.8536 86.859 23.6739 86.7562 23.5408C83.0834 23.4792 76.8373 23.4167 70.9708 23.3268C66.6784 23.2632 62.5758 23.1859 59.81 23.1522C59.8126 23.1989 59.8126 23.1989 59.7678 23.2489C59.7388 23.5789 59.6596 23.8657 59.6306 24.1957C59.4935 25.1424 59.3036 25.9993 59.0583 26.7196C59.061 26.7663 59.0188 26.863 59.0214 26.9097C58.9001 27.2932 58.7762 27.63 58.647 27.8736C57.6107 29.7754 52.1156 35.4197 48.2475 38.651C44.3794 41.8822 42.8104 47.0077 42.222 55.1535C41.5808 63.2095 42.1001 64.8112 42.3769 66.3368Z" fill="#BFC8D6"/>
  <path d="M82.5145 28.5437C82.053 28.895 81.5424 29.202 81.03 29.462C80.3316 29.8252 79.5841 30.1439 78.8347 30.4158C76.5391 31.2337 74.1362 31.7286 71.6626 31.6171C69.6173 31.5312 67.4683 31.2159 65.5383 30.4205C64.864 30.1726 64.1861 29.831 63.6029 29.4846C60.2482 27.4465 58.3825 25.8503 58.5162 21.9026C58.6499 17.9549 59.1512 14.9273 59.1512 14.9273C59.1861 14.5971 59.5965 14.1545 59.7279 13.8664C59.9524 13.5268 60.1276 13.1428 60.352 12.8032C60.7535 12.1264 61.2005 11.4004 61.6512 10.768C62.6437 9.40497 63.8348 8.26662 65.2772 7.4911C67.604 6.24932 70.2984 5.92758 72.9089 5.89153C74.8066 5.84403 76.757 5.93465 78.5868 6.59427C80.1761 7.17204 81.4935 8.09174 82.632 9.30185C83.869 10.6009 84.7831 12.1506 85.8359 13.5996C85.8359 13.5996 86.5669 16.5659 87.002 20.4853C87.4371 24.4046 85.6988 26.1332 82.5145 28.5437Z" fill="#EAEEF9"/>
  <path d="M67.4883 20.9833C66.9372 21.4802 66.2905 23.2025 63.6427 22.3014C59.8863 20.986 60.0826 16.1877 62.0643 14.5868C65.6118 11.6873 69.4066 12.766 70.1121 16.2989C70.8266 20.0661 68.5923 20.0364 67.4883 20.9833Z" fill="#BFC8D6"/>
  <path d="M61.1708 8.92764C62.3585 7.59835 63.8542 8.08851 63.1528 9.6759C62.0118 12.226 60.1494 13.3537 58.9949 23.0084C58.7744 24.713 53.2373 20.7072 53.6251 14.6661C53.677 13.5344 55.0945 13.2287 55.0945 13.2287C55.945 13.0453 59.2985 11.0437 61.1708 8.92764Z" fill="#989FB0"/>
  <path d="M80.8678 26.8499C80.9126 28.0191 80.6241 29.1581 80.0917 30.1218C79.4867 30.433 78.8326 30.6999 78.1786 30.9667C76.1653 31.676 74.0466 32.1094 71.9556 32.0259C70.1979 31.9728 68.2873 31.646 66.601 30.9802C65.8985 29.9842 65.5239 28.8782 65.4755 27.6154C65.3285 23.7802 68.6675 20.5214 72.93 20.3094C77.1452 20.0998 80.7208 23.0147 80.8678 26.8499Z" fill="#BFC8D6"/>
  <path d="M65.3362 20.5723C66.8814 20.4954 68.0866 19.1954 68.0281 17.6686C67.9696 16.1419 66.6696 14.9665 65.1244 15.0434C63.5793 15.1203 62.3741 16.4203 62.4326 17.9471C62.491 19.4739 63.7911 20.6492 65.3362 20.5723Z" fill="white"/>
  <path d="M67.754 17.9685C67.7989 19.1399 66.8408 20.1735 65.6553 20.2325C64.4698 20.2915 63.4363 19.357 63.3914 18.1856C63.5883 18.3636 63.8308 18.4924 64.1153 18.4782C64.6369 18.4523 65.0949 18.007 65.0734 17.4447C65.0537 16.9293 64.6107 16.5288 64.0873 16.5079C64.4541 16.1611 64.9685 15.9477 65.4902 15.9217C66.7231 15.8604 67.7074 16.7503 67.754 17.9685Z" fill="#989FB0"/>
  <path d="M80.8034 19.8975C82.3485 19.8206 83.5537 18.5206 83.4952 16.9938C83.4367 15.4671 82.1367 14.2917 80.5916 14.3686C79.0464 14.4455 77.8412 15.7455 77.8997 17.2723C77.9582 18.799 79.2582 19.9744 80.8034 19.8975Z" fill="white"/>
  <path d="M78.1983 17.5392C78.2432 18.7106 79.2767 19.645 80.4622 19.586C81.6477 19.527 82.6058 18.4935 82.5609 17.3221C82.3784 17.5189 82.1467 17.6713 81.8622 17.6854C81.3406 17.7114 80.8502 17.3133 80.8287 16.751C80.8089 16.2356 81.2196 15.7927 81.7394 15.7199C81.3475 15.4108 80.8187 15.2493 80.297 15.2752C79.1115 15.3342 78.1516 16.3209 78.1983 17.5392Z" fill="#989FB0"/>
  <path d="M72.9247 20.746C72.5462 20.7648 72.1695 20.8302 71.7946 20.9423C71.3269 21.1058 70.6262 21.3743 70.6494 21.9808C70.6781 22.7272 72.5028 23.3378 72.9759 23.3143C73.449 23.2908 75.2218 22.5483 75.1913 21.7552C75.1627 21.0088 74.444 20.8108 73.8254 20.748C73.5397 20.7155 73.2068 20.6852 72.9247 20.746Z" fill="#989FB0"/>
  <path d="M73.1748 23.1802L73.0225 22.9522L72.8883 23.1944C72.8883 23.1944 72.8082 24.8476 72.4461 25.3838C72.6975 25.7012 72.9363 25.6894 73.03 25.6376C73.1751 25.6775 73.4139 25.6657 73.5922 25.327C73.2876 24.8709 73.1748 23.1802 73.1748 23.1802Z" fill="#989FB0"/>
  <path d="M64.6989 11.8309C64.0426 12.0511 63.4811 12.2667 63.0216 12.6648C62.5621 13.0629 62.2045 13.6435 62.0383 14.2615C62.0401 14.3083 61.9927 14.3107 61.9453 14.313C61.8979 14.3154 61.8961 14.2686 61.8961 14.2686C61.8836 13.9409 62.0114 13.5593 62.1428 13.2713C62.2724 12.9366 62.4986 12.6439 62.7739 12.3957C63.0493 12.1475 63.3264 11.946 63.6528 11.7891C63.9809 11.679 64.3582 11.6133 64.6935 11.6904C64.7427 11.7349 64.7918 11.7793 64.6989 11.8309C64.7462 11.8285 64.7462 11.8285 64.6989 11.8309Z" fill="#989FB0"/>
  <path d="M80.6707 11.1506C81.3414 11.3049 81.9172 11.4639 82.4054 11.8148C82.8937 12.1657 83.2943 12.7086 83.5072 13.3078C83.509 13.3546 83.5563 13.3522 83.6037 13.3499C83.6511 13.3475 83.6493 13.3007 83.6493 13.3007C83.6368 12.973 83.4803 12.6056 83.3273 12.3318C83.1726 12.0111 82.9249 11.742 82.6316 11.5221C82.3383 11.3022 82.0468 11.1291 81.7097 11.0052C81.3744 10.928 80.9935 10.9001 80.6654 11.0102C80.6198 11.0594 80.6216 11.1062 80.6707 11.1506C80.6707 11.1506 80.6234 11.153 80.6707 11.1506Z" fill="#989FB0"/>
  <path d="M83.7381 7.50413C82.4531 6.2978 81.0006 6.93458 81.8209 8.44629C83.1526 10.8735 85.0942 11.8119 86.9831 21.3153C87.3332 22.9915 92.5427 18.4513 91.6941 12.4717C91.5558 11.3494 90.1203 11.1856 90.1203 11.1856C89.259 11.0873 85.7651 9.42628 83.7381 7.50413Z" fill="#989FB0"/>
  <path d="M78.018 28.3739C78.3596 30.7518 76.4156 31.6675 73.8661 31.9798C71.3166 32.292 69.1813 31.876 68.8398 29.4981C68.4982 27.1201 70.2646 24.968 72.8141 24.6557C75.3636 24.3434 77.6765 25.996 78.018 28.3739Z" fill="#EAEEF9"/>
  <path d="M25.0342 22.2287C25.9092 22.2287 26.5898 21.4426 26.5898 20.5582C26.5898 19.6738 25.9092 18.8877 24.937 18.8877C24.062 18.8877 23.2842 19.5756 23.2842 20.5582C23.3814 21.4426 24.1592 22.2287 25.0342 22.2287Z" fill="#EAEEF9"/>
  <path d="M23.3644 107.802H114.623" stroke="#D6DCE8" stroke-width="2" stroke-miterlimit="10" stroke-linejoin="round"/>
  <path d="M12.9846 107.802H20.7819" stroke="#D6DCE8" stroke-width="2" stroke-miterlimit="10" stroke-linejoin="round"/>
  <path d="M24.6659 20.8104L20.6172 21.623L23.635 36.7695L27.6837 35.9569L24.6659 20.8104Z" fill="#D5DDEA"/>
  <path d="M39.5471 36.8882L36.9197 23.5141H15.7128C14.7744 23.5141 14.0237 23.1374 13.4607 22.5723L11.9594 20.8769C11.3963 20.3118 11.7717 19.1816 12.71 19.1816H38.6088C39.5471 19.1816 40.4855 19.9351 40.6731 20.8769L43.6759 35.9463L39.5471 36.8882Z" fill="#D5DDEA"/>
  <path d="M101.291 107.526C105.333 107.526 108.61 104.237 108.61 100.179C108.61 96.1221 105.333 92.833 101.291 92.833C97.2488 92.833 93.9719 96.1221 93.9719 100.179C93.9719 104.237 97.2488 107.526 101.291 107.526Z" fill="url(#paint0_linear_503_16984)"/>
  <path d="M49.681 107.526C53.7233 107.526 57.0002 104.237 57.0002 100.179C57.0002 96.1221 53.7233 92.833 49.681 92.833C45.6387 92.833 42.3618 96.1221 42.3618 100.179C42.3618 104.237 45.6387 107.526 49.681 107.526Z" fill="url(#paint1_linear_503_16984)"/>
  <path d="M49.0445 82.7921L44.9983 83.6172L48.4359 100.6L52.4821 99.7753L49.0445 82.7921Z" fill="#D5DDEA"/>
  <path d="M101.103 102.252H37.6704C36.732 102.252 35.7937 101.499 35.606 100.557L31.1019 78.7061C30.9142 77.5759 31.6649 76.4457 32.7909 76.2574C33.9169 76.069 35.043 76.8225 35.2306 77.9527L39.3594 98.108H101.291C102.417 98.108 103.356 99.0498 103.356 100.18C103.356 101.31 102.417 102.252 101.103 102.252Z" fill="#D5DDEA"/>
  <path d="M37.295 107.526C41.3373 107.526 44.6142 104.237 44.6142 100.179C44.6142 96.1221 41.3373 92.833 37.295 92.833C33.2527 92.833 29.9758 96.1221 29.9758 100.179C29.9758 104.237 33.2527 107.526 37.295 107.526Z" fill="url(#paint2_linear_503_16984)"/>
  <path d="M37.295 103.759C39.2643 103.759 40.8608 102.156 40.8608 100.18C40.8608 98.203 39.2643 96.6006 37.295 96.6006C35.3257 96.6006 33.7292 98.203 33.7292 100.18C33.7292 102.156 35.3257 103.759 37.295 103.759Z" fill="#8691AA"/>
  <path d="M88.9047 107.526C92.947 107.526 96.2239 104.237 96.2239 100.179C96.2239 96.1221 92.947 92.833 88.9047 92.833C84.8624 92.833 81.5855 96.1221 81.5855 100.179C81.5855 104.237 84.8624 107.526 88.9047 107.526Z" fill="url(#paint3_linear_503_16984)"/>
  <path d="M88.9047 103.759C90.874 103.759 92.4705 102.156 92.4705 100.18C92.4705 98.203 90.874 96.6006 88.9047 96.6006C86.9354 96.6006 85.3389 98.203 85.3389 100.18C85.3389 102.156 86.9354 103.759 88.9047 103.759Z" fill="#8691AA"/>
  <g filter="url(#filter0_d_503_16984)">
    <path d="M116.305 35.3809L108.61 79.6472C108.047 82.4727 105.795 84.3564 102.98 84.3564H36.9196C34.1045 84.3564 31.8524 82.4727 31.2894 79.6472L22.6565 35.3809H116.305Z" fill="url(#paint4_linear_503_16984)"/>
  </g>
  <path d="M61.8798 78.3293C62.8181 78.3293 63.7565 77.5758 63.7565 76.4456V43.4813C63.7565 42.5395 63.0058 41.5977 61.8798 41.5977C60.9414 41.5977 60.0031 42.3511 60.0031 43.4813V76.4456C60.0031 77.5758 60.7537 78.3293 61.8798 78.3293Z" fill="#E7EAF4"/>
  <path d="M71.4511 78.329C72.3895 78.5173 73.3279 77.7639 73.5155 76.6337L76.7059 43.8577C76.8936 42.9159 76.1429 41.9741 75.0169 41.7857C74.0785 41.5973 73.1402 42.3508 72.9525 43.481L69.7621 76.2569C69.7621 77.3871 70.3251 78.1406 71.4511 78.329Z" fill="#E7EAF4"/>
  <path d="M81.2101 78.1401C82.1484 78.3284 83.0868 77.575 83.2745 76.6331L89.28 44.2339C89.4676 43.2921 88.717 42.3502 87.7786 42.1619C86.8402 41.9735 85.9019 42.727 85.7142 43.6688L79.8964 76.068C79.521 77.0099 80.2717 77.9517 81.2101 78.1401Z" fill="#E7EAF4"/>
  <path d="M52.121 78.329C51.1826 78.5173 50.2442 77.7639 50.0566 76.6337L46.8661 43.8577C46.6785 42.9159 47.4292 41.9741 48.5552 41.7857C49.4935 41.5973 50.4319 42.3508 50.6196 43.481L53.81 76.2569C53.81 77.3871 53.247 78.1406 52.121 78.329Z" fill="#E7EAF4"/>
  <path d="M42.3621 78.1401C41.4238 78.3284 40.4854 77.575 40.2978 76.6331L34.2923 44.2339C34.1046 43.2921 34.8553 42.3502 35.7936 42.1619C36.732 41.9735 37.6703 42.727 37.858 43.6688L43.6758 76.068C44.0512 77.0099 43.3005 77.9517 42.3621 78.1401Z" fill="#E7EAF4"/>
  <path d="M116.305 35.3809L108.611 79.6472C108.048 82.4727 105.795 84.3564 102.98 84.3564H85.5269C88.7173 84.3564 91.3447 82.096 91.9078 79.0821L99.9777 35.3809H116.305Z" fill="#DBDFEC"/>
  <defs>
    <filter id="filter0_d_503_16984" x="0.656494" y="24.3809" width="137.648" height="92.9756" filterUnits="userSpaceOnUse" color-interpolation-filters="sRGB">
      <feFlood flood-opacity="0" result="BackgroundImageFix"/>
      <feColorMatrix in="SourceAlpha" type="matrix" values="0 0 0 0 0 0 0 0 0 0 0 0 0 0 0 0 0 0 127 0" result="hardAlpha"/>
      <feOffset dy="11"/>
      <feGaussianBlur stdDeviation="11"/>
      <feColorMatrix type="matrix" values="0 0 0 0 0.397708 0 0 0 0 0.47749 0 0 0 0 0.575 0 0 0 0.27 0"/>
      <feBlend mode="normal" in2="BackgroundImageFix" result="effect1_dropShadow_503_16984"/>
      <feBlend mode="normal" in="SourceGraphic" in2="effect1_dropShadow_503_16984" result="shape"/>
    </filter>
    <linearGradient id="paint0_linear_503_16984" x1="93.9652" y1="100.181" x2="108.613" y2="100.181" gradientUnits="userSpaceOnUse">
      <stop stop-color="#B0BACC"/>
      <stop offset="1" stop-color="#969EAE"/>
    </linearGradient>
    <linearGradient id="paint1_linear_503_16984" x1="42.3551" y1="100.181" x2="57.0029" y2="100.181" gradientUnits="userSpaceOnUse">
      <stop stop-color="#B0BACC"/>
      <stop offset="1" stop-color="#969EAE"/>
    </linearGradient>
    <linearGradient id="paint2_linear_503_16984" x1="29.9691" y1="100.181" x2="44.6169" y2="100.181" gradientUnits="userSpaceOnUse">
      <stop stop-color="#B0BACC"/>
      <stop offset="1" stop-color="#969EAE"/>
    </linearGradient>
    <linearGradient id="paint3_linear_503_16984" x1="81.5788" y1="100.181" x2="96.2266" y2="100.181" gradientUnits="userSpaceOnUse">
      <stop stop-color="#B0BACC"/>
      <stop offset="1" stop-color="#969EAE"/>
    </linearGradient>
    <linearGradient id="paint4_linear_503_16984" x1="69.4501" y1="34.248" x2="69.4501" y2="84.8844" gradientUnits="userSpaceOnUse">
      <stop stop-color="#FDFEFF"/>
      <stop offset="0.9964" stop-color="#ECF0F5"/>
    </linearGradient>
  </defs>
</svg>