<svg xmlns="http://www.w3.org/2000/svg" width="40" height="40" viewBox="0 0 40 40" fill="none">
    <rect width="40" height="40" rx="4" fill="#F5F6F7"/>
    <rect width="20" height="20" transform="translate(10 10)" fill="#F5F6F7"/>
    <path d="M12.1502 25.8419L12.1335 25.8586C11.9085 25.3669 11.7668 24.8086 11.7085 24.1919C11.7668 24.8002 11.9252 25.3502 12.1502 25.8419Z" fill="#758195"/>
    <path d="M17.4999 18.6498C18.5953 18.6498 19.4833 17.7618 19.4833 16.6664C19.4833 15.5711 18.5953 14.6831 17.4999 14.6831C16.4046 14.6831 15.5166 15.5711 15.5166 16.6664C15.5166 17.7618 16.4046 18.6498 17.4999 18.6498Z" fill="#758195"/>
    <path d="M23.4915 11.6665H16.5082C13.4748 11.6665 11.6665 13.4748 11.6665 16.5082V23.4915C11.6665 24.3998 11.8248 25.1915 12.1332 25.8582C12.8498 27.4415 14.3832 28.3332 16.5082 28.3332H23.4915C26.5248 28.3332 28.3332 26.5248 28.3332 23.4915V21.5832V16.5082C28.3332 13.4748 26.5248 11.6665 23.4915 11.6665ZM26.9748 20.4165C26.3248 19.8582 25.2748 19.8582 24.6248 20.4165L21.1582 23.3915C20.5082 23.9498 19.4582 23.9498 18.8082 23.3915L18.5248 23.1582C17.9332 22.6415 16.9915 22.5915 16.3248 23.0415L13.2082 25.1332C13.0248 24.6665 12.9165 24.1248 12.9165 23.4915V16.5082C12.9165 14.1582 14.1582 12.9165 16.5082 12.9165H23.4915C25.8415 12.9165 27.0832 14.1582 27.0832 16.5082V20.5082L26.9748 20.4165Z" fill="#758195"/>
</svg>
