<svg xmlns="http://www.w3.org/2000/svg" width="40" height="40" viewBox="0 0 40 40" fill="none">
    <rect x="0.5" y="0.5" width="39" height="39" rx="3.5" fill="#253241" stroke="#5A5F66" stroke-dasharray="2 2"/>
    <path fill-rule="evenodd" clip-rule="evenodd" d="M23.3332 15.625C22.7579 15.625 22.2915 16.0913 22.2915 16.6666C22.2915 17.2419 22.7579 17.7083 23.3332 17.7083C23.9085 17.7083 24.3748 17.2419 24.3748 16.6666C24.3748 16.0913 23.9085 15.625 23.3332 15.625ZM21.0415 16.6666C21.0415 15.401 22.0675 14.375 23.3332 14.375C24.5988 14.375 25.6248 15.401 25.6248 16.6666C25.6248 17.9323 24.5988 18.9583 23.3332 18.9583C22.0675 18.9583 21.0415 17.9323 21.0415 16.6666Z" fill="#F0F0F1"/>
    <path fill-rule="evenodd" clip-rule="evenodd" d="M19.952 11.0416H20.0477C21.9713 11.0416 23.4788 11.0416 24.6551 11.1997C25.859 11.3616 26.809 11.6994 27.5547 12.4451C28.3004 13.1907 28.6382 14.1408 28.8 15.3447C28.9582 16.521 28.9582 18.0285 28.9582 19.9521V20.0478C28.9582 21.9714 28.9582 23.479 28.8 24.6552C28.6382 25.8592 28.3004 26.8092 27.5547 27.5548C26.809 28.3005 25.859 28.6383 24.6551 28.8002C23.4788 28.9583 21.9713 28.9583 20.0476 28.9583H19.952C18.0284 28.9583 16.5208 28.9583 15.3446 28.8002C14.1406 28.6383 13.1906 28.3005 12.445 27.5548C11.6993 26.8092 11.3615 25.8592 11.1996 24.6552C11.0415 23.479 11.0415 21.9714 11.0415 20.0478V19.9521C11.0415 18.0285 11.0415 16.521 11.1996 15.3447C11.3615 14.1408 11.6993 13.1907 12.445 12.4451C13.1906 11.6994 14.1406 11.3616 15.3446 11.1997C16.5208 11.0416 18.0284 11.0416 19.952 11.0416ZM13.3288 26.671C12.8541 26.1962 12.5817 25.554 12.4385 24.4886C12.3106 23.5374 12.294 22.3237 12.2918 20.7001L13.5377 19.6099C14.0495 19.1621 14.8208 19.1878 15.3016 19.6687L18.8764 23.2434C19.6639 24.0309 20.9034 24.1382 21.8145 23.4979L22.063 23.3233C22.7782 22.8207 23.7457 22.8789 24.3955 23.4636L27.0817 25.8813C27.111 25.9076 27.142 25.9307 27.1744 25.9505C27.0397 26.2345 26.8737 26.4681 26.6708 26.671C26.1961 27.1457 25.5539 27.4181 24.4885 27.5613C23.4052 27.707 21.9817 27.7083 19.9998 27.7083C18.018 27.7083 16.5945 27.707 15.5112 27.5613C14.4458 27.4181 13.8035 27.1457 13.3288 26.671ZM15.5112 12.4386C14.4458 12.5818 13.8035 12.8542 13.3288 13.329C12.8541 13.8037 12.5817 14.4459 12.4385 15.5113C12.3175 16.4109 12.2961 17.545 12.2923 19.0387L12.7146 18.6692C13.7216 17.7881 15.2393 17.8386 16.1855 18.7848L19.7603 22.3595C20.1182 22.7175 20.6817 22.7663 21.0958 22.4752L21.3443 22.3006C22.5362 21.4629 24.1488 21.56 25.2317 22.5345L27.5433 24.615C27.5495 24.5736 27.5554 24.5314 27.5612 24.4886C27.7068 23.4053 27.7082 21.9818 27.7082 20C27.7082 18.0181 27.7068 16.5946 27.5612 15.5113C27.418 14.4459 27.1456 13.8037 26.6708 13.329C26.1961 12.8542 25.5539 12.5818 24.4885 12.4386C23.4052 12.293 21.9817 12.2916 19.9998 12.2916C18.018 12.2916 16.5945 12.293 15.5112 12.4386Z" fill="#F0F0F1"/>
</svg>