<svg xmlns="http://www.w3.org/2000/svg" width="92" height="109" viewBox="0 0 92 109" fill="none">
  <path d="M45.9061 77.3454C64.5122 77.3454 79.6727 62.2475 79.6727 43.704C79.6101 25.0979 64.5122 10 45.9061 10C27.2373 10 12.1394 25.0979 12.1394 43.6414C12.1394 62.2475 27.2373 77.3454 45.9061 77.3454Z" fill="#EAEEF9"/>
  <path d="M80.487 31.9261C81.9055 31.9261 83.0555 30.7761 83.0555 29.3576C83.0555 27.939 81.9055 26.7891 80.487 26.7891C79.0684 26.7891 77.9185 27.939 77.9185 29.3576C77.9185 30.7761 79.0684 31.9261 80.487 31.9261Z" fill="#EAEEF9"/>
  <path d="M84.2458 21.9032C85.2146 21.9032 85.9999 21.1179 85.9999 20.1491C85.9999 19.1804 85.2146 18.395 84.2458 18.395C83.277 18.395 82.4917 19.1804 82.4917 20.1491C82.4917 21.1179 83.277 21.9032 84.2458 21.9032Z" fill="#EAEEF9"/>
  <path d="M9.25764 66.2575C11.0568 66.2575 12.5153 64.799 12.5153 62.9998C12.5153 61.2007 11.0568 59.7422 9.25764 59.7422C7.45849 59.7422 6 61.2007 6 62.9998C6 64.799 7.45849 66.2575 9.25764 66.2575Z" fill="#EAEEF9"/>
  <g filter="url(#filter0_d_1758_35386)">
    <path d="M69.5939 29.5268V70.3294C69.5939 73.3025 67.2359 75.6604 64.2629 75.6604H27.561C24.5879 75.6604 22.23 73.3025 22.23 70.3294V16.9169C22.23 13.9439 24.5879 11.5859 27.561 11.5859H51.7555C53.0883 11.5859 54.3185 12.0985 55.2412 13.0212L68.1586 25.9386C69.0813 26.9638 69.5939 28.194 69.5939 29.5268Z" fill="url(#paint0_linear_1758_35386)"/>
  </g>
  <g filter="url(#filter1_d_1758_35386)">
    <path d="M54.187 12.2179V23.4566C54.187 25.631 56.0283 27.3704 58.1206 27.3704H69.1151C68.878 26.8605 68.5565 26.3804 68.1587 25.9385L55.2413 13.021C54.9235 12.7033 54.5693 12.4342 54.187 12.2179Z" fill="#D5DDEA"/>
  </g>
  <path d="M38.0677 64.5489H29.5185C29.1995 64.5489 28.9443 64.2099 28.9443 63.803C28.9443 63.3961 29.1995 63.057 29.5185 63.057H38.0677C38.3866 63.057 38.6418 63.3961 38.6418 63.803C38.6418 64.2777 38.3866 64.5489 38.0677 64.5489Z" fill="#D5DDEA"/>
  <path d="M49.0007 22.7749H29.7745C29.3273 22.7749 28.9441 22.4306 28.9441 22.0289C28.9441 21.6272 29.3273 21.283 29.7745 21.283H49.0007C49.4478 21.283 49.831 21.6272 49.831 22.0289C49.831 22.4306 49.4478 22.7749 49.0007 22.7749Z" fill="#D6DCE8"/>
  <path d="M37.134 27.2503H29.7697C29.3253 27.2503 28.9443 26.9061 28.9443 26.5044C28.9443 26.1027 29.3253 25.7584 29.7697 25.7584H37.0706C37.515 25.7584 37.8959 26.1027 37.8959 26.5044C37.8959 26.9061 37.515 27.2503 37.134 27.2503Z" fill="#D6DCE8"/>
  <path d="M62.6561 53.3591H40.237H37.7661H30.2931C29.9918 53.3591 29.6904 53.6699 29.6904 54.1051C29.6904 54.4781 29.9315 54.8511 30.2931 54.8511H37.7661H40.237H62.6561C62.9574 54.8511 63.2587 54.5402 63.2587 54.1051C63.1985 53.6699 62.9574 53.3591 62.6561 53.3591Z" fill="#D6DCE8"/>
  <path d="M62.655 48.1378H54.3233H51.4857H30.2942C29.9923 48.1378 29.6904 48.4486 29.6904 48.8838C29.6904 49.2568 29.9319 49.6297 30.2942 49.6297H51.4857H54.3233H62.655C62.9569 49.6297 63.2587 49.3189 63.2587 48.8838C63.1984 48.4486 62.9569 48.1378 62.655 48.1378Z" fill="#D6DCE8"/>
  <path d="M62.7097 42.9155H60.5445H58.3793H30.2919C29.9912 42.9155 29.6904 43.2263 29.6904 43.6615C29.6904 44.0345 29.931 44.4075 30.2919 44.4075H58.3793H60.7851H62.6495C62.9503 44.4075 63.251 44.0966 63.251 43.6615C63.3111 43.2885 63.0104 42.9155 62.7097 42.9155Z" fill="#D6DCE8"/>
  <path d="M62.6625 37.6934H55.6865H53.9574H30.2867C29.9885 37.6934 29.6904 38.0042 29.6904 38.4393C29.6904 38.8123 29.9289 39.1853 30.2867 39.1853H53.9574H55.6865H62.6029C63.0202 39.1853 63.2587 38.8745 63.2587 38.4393C63.2587 38.0663 63.0202 37.6934 62.6625 37.6934Z" fill="#D6DCE8"/>
  <path d="M63.0385 75.7792C70.32 75.7792 76.2228 69.8764 76.2228 62.5949C76.2228 55.3134 70.32 49.4106 63.0385 49.4106C55.757 49.4106 49.8542 55.3134 49.8542 62.5949C49.8542 69.8764 55.757 75.7792 63.0385 75.7792Z" fill="url(#paint1_linear_1758_35386)"/>
  <path d="M63.8396 57.3045L67.1417 60.8106C67.5302 61.2231 67.5302 61.945 67.1417 62.3574C66.7532 62.7699 66.0734 62.7699 65.6363 62.3574L64.1309 60.8106V66.4823C64.1309 67.101 63.6453 67.6166 63.0626 67.6166C62.4799 67.6166 61.9943 67.101 61.9943 66.4823V60.8106L60.4889 62.3574C60.1004 62.7699 59.4205 62.7699 58.9835 62.3574C58.7407 62.0996 58.6436 61.8418 58.6436 61.584C58.6436 61.3262 58.7407 60.9653 58.9835 60.8106L62.2856 57.3045C62.4313 57.1498 62.7712 56.9436 63.014 56.9436C63.2568 56.9436 63.6939 57.0467 63.8396 57.3045Z" fill="white"/>
  <defs>
    <filter id="filter0_d_1758_35386" x="0.22998" y="0.585938" width="91.3638" height="108.074" filterUnits="userSpaceOnUse" color-interpolation-filters="sRGB">
      <feFlood flood-opacity="0" result="BackgroundImageFix"/>
      <feColorMatrix in="SourceAlpha" type="matrix" values="0 0 0 0 0 0 0 0 0 0 0 0 0 0 0 0 0 0 127 0" result="hardAlpha"/>
      <feOffset dy="11"/>
      <feGaussianBlur stdDeviation="11"/>
      <feColorMatrix type="matrix" values="0 0 0 0 0.397708 0 0 0 0 0.47749 0 0 0 0 0.575 0 0 0 0.27 0"/>
      <feBlend mode="normal" in2="BackgroundImageFix" result="effect1_dropShadow_1758_35386"/>
      <feBlend mode="normal" in="SourceGraphic" in2="effect1_dropShadow_1758_35386" result="shape"/>
    </filter>
    <filter id="filter1_d_1758_35386" x="32.187" y="1.2179" width="58.9282" height="59.1526" filterUnits="userSpaceOnUse" color-interpolation-filters="sRGB">
      <feFlood flood-opacity="0" result="BackgroundImageFix"/>
      <feColorMatrix in="SourceAlpha" type="matrix" values="0 0 0 0 0 0 0 0 0 0 0 0 0 0 0 0 0 0 127 0" result="hardAlpha"/>
      <feOffset dy="11"/>
      <feGaussianBlur stdDeviation="11"/>
      <feColorMatrix type="matrix" values="0 0 0 0 0.397708 0 0 0 0 0.47749 0 0 0 0 0.575 0 0 0 0.27 0"/>
      <feBlend mode="normal" in2="BackgroundImageFix" result="effect1_dropShadow_1758_35386"/>
      <feBlend mode="normal" in="SourceGraphic" in2="effect1_dropShadow_1758_35386" result="shape"/>
    </filter>
    <linearGradient id="paint0_linear_1758_35386" x1="45.8965" y1="10.1038" x2="45.8965" y2="76.3512" gradientUnits="userSpaceOnUse">
      <stop stop-color="#FDFEFF"/>
      <stop offset="0.9964" stop-color="#ECF0F5"/>
    </linearGradient>
    <linearGradient id="paint1_linear_1758_35386" x1="49.8422" y1="62.5978" x2="76.2276" y2="62.5978" gradientUnits="userSpaceOnUse">
      <stop stop-color="#B0BACC"/>
      <stop offset="1" stop-color="#969EAE"/>
    </linearGradient>
  </defs>
</svg>