<svg width="1438" height="476" viewBox="0 0 1438 476" fill="none" xmlns="http://www.w3.org/2000/svg">
<path d="M81.7059 475H-3V390.167M81.7059 475V390.167M81.7059 475H166.412M81.7059 390.167H-3M81.7059 390.167H166.412M81.7059 390.167V305.333M-3 390.167V305.333M166.412 475V390.167M166.412 475H251.118M166.412 390.167H251.118M166.412 390.167V305.333M251.118 475V390.167M251.118 475H335.824M251.118 390.167H335.824M251.118 390.167V305.333M335.824 475V390.167M335.824 475H420.529M335.824 390.167H420.529M335.824 390.167V305.333M420.529 475V390.167M420.529 475H505.235M420.529 390.167H505.235M420.529 390.167V305.333M505.235 475V390.167M505.235 475H589.941M505.235 390.167H589.941M505.235 390.167V305.333M589.941 475V390.167M589.941 475H674.647M589.941 390.167H674.647M589.941 390.167V305.333M674.647 475V390.167M674.647 475H759.353M674.647 390.167H759.353M674.647 390.167V305.333M759.353 475V390.167M759.353 475H844.059M759.353 390.167H844.059M759.353 390.167V305.333M844.059 475V390.167M844.059 475H928.765M844.059 390.167H928.765M844.059 390.167V305.333M928.765 475V390.167M928.765 475H1013.47M928.765 390.167H1013.47M928.765 390.167V305.333M1013.47 475V390.167M1013.47 475H1098.18M1013.47 390.167H1098.18M1013.47 390.167V305.333M1098.18 475V390.167M1098.18 475H1182.88M1098.18 390.167H1182.88M1098.18 390.167V305.333M1182.88 475V390.167M1182.88 475H1267.59M1182.88 390.167H1267.59M1182.88 390.167V305.333M1267.59 475V390.167M1267.59 475H1352.29M1267.59 390.167H1352.29M1267.59 390.167V305.333M1352.29 475V390.167M1352.29 475H1437V390.167M1352.29 390.167H1437M1352.29 390.167V305.333M1437 390.167V305.333M81.7059 305.333H-3M81.7059 305.333H166.412M81.7059 305.333V220.5M-3 305.333V220.5M166.412 305.333H251.118M166.412 305.333V220.5M251.118 305.333H335.824M251.118 305.333V220.5M335.824 305.333H420.529M335.824 305.333V220.5M420.529 305.333H505.235M420.529 305.333V220.5M505.235 305.333H589.941M505.235 305.333V220.5M589.941 305.333H674.647M589.941 305.333V220.5M674.647 305.333H759.353M674.647 305.333V220.5M759.353 305.333H844.059M759.353 305.333V220.5M844.059 305.333H928.765M844.059 305.333V220.5M928.765 305.333H1013.47M928.765 305.333V220.5M1013.47 305.333H1098.18M1013.47 305.333V220.5M1098.18 305.333H1182.88M1098.18 305.333V220.5M1182.88 305.333H1267.59M1182.88 305.333V220.5M1267.59 305.333H1352.29M1267.59 305.333V220.5M1352.29 305.333H1437M1352.29 305.333V220.5M1437 305.333V220.5M81.7059 220.5H-3M81.7059 220.5H166.412M81.7059 220.5V135.667M-3 220.5V135.667M166.412 220.5H251.118M166.412 220.5V135.667M251.118 220.5H335.824M251.118 220.5V135.667M335.824 220.5H420.529M335.824 220.5V135.667M420.529 220.5H505.235M420.529 220.5V135.667M505.235 220.5H589.941M505.235 220.5V135.667M589.941 220.5H674.647M589.941 220.5V135.667M674.647 220.5H759.353M674.647 220.5V135.667M759.353 220.5H844.059M759.353 220.5V135.667M844.059 220.5H928.765M844.059 220.5V135.667M928.765 220.5H1013.47M928.765 220.5V135.667M1013.47 220.5H1098.18M1013.47 220.5V135.667M1098.18 220.5H1182.88M1098.18 220.5V135.667M1182.88 220.5H1267.59M1182.88 220.5V135.667M1267.59 220.5H1352.29M1267.59 220.5V135.667M1352.29 220.5H1437M1352.29 220.5V135.667M1437 220.5V135.667M81.7059 135.667H-3M81.7059 135.667H166.412M81.7059 135.667V50.8334M-3 135.667V50.8334M166.412 135.667H251.118M166.412 135.667V50.8334M251.118 135.667H335.824M251.118 135.667V50.8334M335.824 135.667H420.529M335.824 135.667V50.8334M420.529 135.667H505.235M420.529 135.667V50.8334M505.235 135.667H589.941M505.235 135.667V50.8334M589.941 135.667H674.647M589.941 135.667V50.8334M674.647 135.667H759.353M674.647 135.667V50.8334M759.353 135.667H844.059M759.353 135.667V50.8334M844.059 135.667H928.765M844.059 135.667V50.8334M928.765 135.667H1013.47M928.765 135.667V50.8334M1013.47 135.667H1098.18M1013.47 135.667V50.8334M1098.18 135.667H1182.88M1098.18 135.667V50.8334M1182.88 135.667H1267.59M1182.88 135.667V50.8334M1267.59 135.667H1352.29M1267.59 135.667V50.8334M1352.29 135.667H1437M1352.29 135.667V50.8334M1437 135.667V50.8334M81.7059 50.8334H-3M81.7059 50.8334H166.412M81.7059 50.8334V-34M-3 50.8334V-34M166.412 50.8334H251.118M166.412 50.8334V-34M251.118 50.8334H335.824M251.118 50.8334V-34M335.824 50.8334H420.529M335.824 50.8334V-34M420.529 50.8334H505.235M420.529 50.8334V-34M505.235 50.8334H589.941M505.235 50.8334V-34M589.941 50.8334H674.647M589.941 50.8334V-34M674.647 50.8334H759.353M674.647 50.8334V-34M759.353 50.8334H844.059M759.353 50.8334V-34M844.059 50.8334H928.765M844.059 50.8334V-34M928.765 50.8334H1013.47M928.765 50.8334V-34M1013.47 50.8334H1098.18M1013.47 50.8334V-34M1098.18 50.8334H1182.88M1098.18 50.8334V-34M1182.88 50.8334H1267.59M1182.88 50.8334V-34M1267.59 50.8334H1352.29M1267.59 50.8334V-34M1352.29 50.8334H1437M1352.29 50.8334V-34M1437 50.8334V-34M81.7059 -34H-3M81.7059 -34H166.412M81.7059 -34V-118.833M-3 -34V-118.833M166.412 -34H251.118M166.412 -34V-118.833M251.118 -34H335.824M251.118 -34V-118.833M335.824 -34H420.529M335.824 -34V-118.833M420.529 -34H505.235M420.529 -34V-118.833M505.235 -34H589.941M505.235 -34V-118.833M589.941 -34H674.647M589.941 -34V-118.833M674.647 -34H759.353M674.647 -34V-118.833M759.353 -34H844.059M759.353 -34V-118.833M844.059 -34H928.765M844.059 -34V-118.833M928.765 -34H1013.47M928.765 -34V-118.833M1013.47 -34H1098.18M1013.47 -34V-118.833M1098.18 -34H1182.88M1098.18 -34V-118.833M1182.88 -34H1267.59M1182.88 -34V-118.833M1267.59 -34H1352.29M1267.59 -34V-118.833M1352.29 -34H1437M1352.29 -34V-118.833M1437 -34V-118.833M81.7059 -118.833H-3M81.7059 -118.833H166.412M81.7059 -118.833V-203.667M-3 -118.833V-203.667M166.412 -118.833H251.118M166.412 -118.833V-203.667M251.118 -118.833H335.824M251.118 -118.833V-203.667M335.824 -118.833H420.529M335.824 -118.833V-203.667M420.529 -118.833H505.235M420.529 -118.833V-203.667M505.235 -118.833H589.941M505.235 -118.833V-203.667M589.941 -118.833H674.647M589.941 -118.833V-203.667M674.647 -118.833H759.353M674.647 -118.833V-203.667M759.353 -118.833H844.059M759.353 -118.833V-203.667M844.059 -118.833H928.765M844.059 -118.833V-203.667M928.765 -118.833H1013.47M928.765 -118.833V-203.667M1013.47 -118.833H1098.18M1013.47 -118.833V-203.667M1098.18 -118.833H1182.88M1098.18 -118.833V-203.667M1182.88 -118.833H1267.59M1182.88 -118.833V-203.667M1267.59 -118.833H1352.29M1267.59 -118.833V-203.667M1352.29 -118.833H1437M1352.29 -118.833V-203.667M1437 -118.833V-203.667M81.7059 -203.667H-3M81.7059 -203.667H166.412M81.7059 -203.667V-288.5M-3 -203.667V-288.5M166.412 -203.667H251.118M166.412 -203.667V-288.5M251.118 -203.667H335.824M251.118 -203.667V-288.5M335.824 -203.667H420.529M335.824 -203.667V-288.5M420.529 -203.667H505.235M420.529 -203.667V-288.5M505.235 -203.667H589.941M505.235 -203.667V-288.5M589.941 -203.667H674.647M589.941 -203.667V-288.5M674.647 -203.667H759.353M674.647 -203.667V-288.5M759.353 -203.667H844.059M759.353 -203.667V-288.5M844.059 -203.667H928.765M844.059 -203.667V-288.5M928.765 -203.667H1013.47M928.765 -203.667V-288.5M1013.47 -203.667H1098.18M1013.47 -203.667V-288.5M1098.18 -203.667H1182.88M1098.18 -203.667V-288.5M1182.88 -203.667H1267.59M1182.88 -203.667V-288.5M1267.59 -203.667H1352.29M1267.59 -203.667V-288.5M1352.29 -203.667H1437M1352.29 -203.667V-288.5M1437 -203.667V-288.5M81.7059 -288.5H-3M81.7059 -288.5H166.412M81.7059 -288.5V-373.333M-3 -288.5V-373.333M166.412 -288.5H251.118M166.412 -288.5V-373.333M251.118 -288.5H335.824M251.118 -288.5V-373.333M335.824 -288.5H420.529M335.824 -288.5V-373.333M420.529 -288.5H505.235M420.529 -288.5V-373.333M505.235 -288.5H589.941M505.235 -288.5V-373.333M589.941 -288.5H674.647M589.941 -288.5V-373.333M674.647 -288.5H759.353M674.647 -288.5V-373.333M759.353 -288.5H844.059M759.353 -288.5V-373.333M844.059 -288.5H928.765M844.059 -288.5V-373.333M928.765 -288.5H1013.47M928.765 -288.5V-373.333M1013.47 -288.5H1098.18M1013.47 -288.5V-373.333M1098.18 -288.5H1182.88M1098.18 -288.5V-373.333M1182.88 -288.5H1267.59M1182.88 -288.5V-373.333M1267.59 -288.5H1352.29M1267.59 -288.5V-373.333M1352.29 -288.5H1437M1352.29 -288.5V-373.333M1437 -288.5V-373.333M81.7059 -373.333H-3M81.7059 -373.333H166.412M81.7059 -373.333V-458.167M-3 -373.333V-458.167M166.412 -373.333H251.118M166.412 -373.333V-458.167M251.118 -373.333H335.824M251.118 -373.333V-458.167M335.824 -373.333H420.529M335.824 -373.333V-458.167M420.529 -373.333H505.235M420.529 -373.333V-458.167M505.235 -373.333H589.941M505.235 -373.333V-458.167M589.941 -373.333H674.647M589.941 -373.333V-458.167M674.647 -373.333H759.353M674.647 -373.333V-458.167M759.353 -373.333H844.059M759.353 -373.333V-458.167M844.059 -373.333H928.765M844.059 -373.333V-458.167M928.765 -373.333H1013.47M928.765 -373.333V-458.167M1013.47 -373.333H1098.18M1013.47 -373.333V-458.167M1098.18 -373.333H1182.88M1098.18 -373.333V-458.167M1182.88 -373.333H1267.59M1182.88 -373.333V-458.167M1267.59 -373.333H1352.29M1267.59 -373.333V-458.167M1352.29 -373.333H1437M1352.29 -373.333V-458.167M1437 -373.333V-458.167M81.7059 -458.167H-3M81.7059 -458.167H166.412M81.7059 -458.167V-543M-3 -458.167V-543H81.7059M166.412 -458.167H251.118M166.412 -458.167V-543M251.118 -458.167H335.824M251.118 -458.167V-543M335.824 -458.167H420.529M335.824 -458.167V-543M420.529 -458.167H505.235M420.529 -458.167V-543M505.235 -458.167H589.941M505.235 -458.167V-543M589.941 -458.167H674.647M589.941 -458.167V-543M674.647 -458.167H759.353M674.647 -458.167V-543M759.353 -458.167H844.059M759.353 -458.167V-543M844.059 -458.167H928.765M844.059 -458.167V-543M928.765 -458.167H1013.47M928.765 -458.167V-543M1013.47 -458.167H1098.18M1013.47 -458.167V-543M1098.18 -458.167H1182.88M1098.18 -458.167V-543M1182.88 -458.167H1267.59M1182.88 -458.167V-543M1267.59 -458.167H1352.29M1267.59 -458.167V-543M1352.29 -458.167H1437M1352.29 -458.167V-543M1437 -458.167V-543H1352.29M81.7059 -543H166.412M166.412 -543H251.118M251.118 -543H335.824M335.824 -543H420.529M420.529 -543H505.235M505.235 -543H589.941M589.941 -543H674.647M674.647 -543H759.353M759.353 -543H844.059M844.059 -543H928.765M928.765 -543H1013.47M1013.47 -543H1098.18M1098.18 -543H1182.88M1182.88 -543H1267.59M1267.59 -543H1352.29" stroke="url(#paint0_radial_7313_37641)" stroke-opacity="0.1" stroke-width="1.18421"/>
<defs>
<radialGradient id="paint0_radial_7313_37641" cx="0" cy="0" r="1" gradientUnits="userSpaceOnUse" gradientTransform="translate(717 -61.1902) rotate(-90) scale(480.722 721.086)">
<stop/>
<stop offset="1" stop-opacity="0"/>
</radialGradient>
</defs>
</svg>
