<svg width="84" height="84" viewBox="0 0 84 84" fill="none" xmlns="http://www.w3.org/2000/svg">
<path d="M0 42C0 18.804 18.804 0 42 0C65.196 0 84 18.804 84 42C84 65.196 65.196 84 42 84C18.804 84 0 65.196 0 42Z" fill="url(#paint0_linear_18359_64493)" fill-opacity="0.1"/>
<g filter="url(#filter0_ddddi_18359_64493)">
<path d="M10 42C10 24.3269 24.3269 10 42 10C59.6731 10 74 24.3269 74 42C74 59.6731 59.6731 74 42 74C24.3269 74 10 59.6731 10 42Z" fill="white"/>
<path opacity="0.4" d="M35.8381 45.0833C37.8146 44.1822 40.1619 43.667 42.6667 43.667C45.1715 43.667 47.5188 44.1822 49.4952 45.0833C51.4661 45.9817 52.3333 48.0461 52.3333 49.9609C52.3335 50.5379 52.3335 51.1662 52.2756 51.5966C52.2119 52.0706 52.062 52.5715 51.6499 52.9835C51.2379 53.3957 50.7369 53.5455 50.2629 53.6093C49.8325 53.6671 49.3035 53.6671 48.7264 53.667H36.607C36.0299 53.6671 35.5008 53.6671 35.0704 53.6093C34.5964 53.5455 34.0954 53.3957 33.6834 52.9835C33.2714 52.5715 33.1215 52.0706 33.0577 51.5966C32.9999 51.1662 32.9999 50.5379 33 49.9609C33 48.0461 33.8672 45.9817 35.8381 45.0833Z" fill="#565865"/>
<path d="M37 35.9997C37 32.8701 39.5371 30.333 42.6667 30.333C45.7963 30.333 48.3333 32.8701 48.3333 35.9997C48.3333 39.1293 45.7963 41.6663 42.6667 41.6663C39.5371 41.6663 37 39.1293 37 35.9997Z" fill="#565865"/>
</g>
<defs>
<filter id="filter0_ddddi_18359_64493" x="4" y="8" width="76" height="76" filterUnits="userSpaceOnUse" color-interpolation-filters="sRGB">
<feFlood flood-opacity="0" result="BackgroundImageFix"/>
<feColorMatrix in="SourceAlpha" type="matrix" values="0 0 0 0 0 0 0 0 0 0 0 0 0 0 0 0 0 0 127 0" result="hardAlpha"/>
<feOffset dy="1"/>
<feGaussianBlur stdDeviation="1"/>
<feComposite in2="hardAlpha" operator="out"/>
<feColorMatrix type="matrix" values="0 0 0 0 0.2 0 0 0 0 0.2 0 0 0 0 0.2 0 0 0 0.04 0"/>
<feBlend mode="normal" in2="BackgroundImageFix" result="effect1_dropShadow_18359_64493"/>
<feColorMatrix in="SourceAlpha" type="matrix" values="0 0 0 0 0 0 0 0 0 0 0 0 0 0 0 0 0 0 127 0" result="hardAlpha"/>
<feOffset dy="2"/>
<feGaussianBlur stdDeviation="2"/>
<feComposite in2="hardAlpha" operator="out"/>
<feColorMatrix type="matrix" values="0 0 0 0 0.2 0 0 0 0 0.2 0 0 0 0 0.2 0 0 0 0.04 0"/>
<feBlend mode="normal" in2="effect1_dropShadow_18359_64493" result="effect2_dropShadow_18359_64493"/>
<feColorMatrix in="SourceAlpha" type="matrix" values="0 0 0 0 0 0 0 0 0 0 0 0 0 0 0 0 0 0 127 0" result="hardAlpha"/>
<feMorphology radius="2" operator="erode" in="SourceAlpha" result="effect3_dropShadow_18359_64493"/>
<feOffset dy="4"/>
<feGaussianBlur stdDeviation="4"/>
<feComposite in2="hardAlpha" operator="out"/>
<feColorMatrix type="matrix" values="0 0 0 0 0.2 0 0 0 0 0.2 0 0 0 0 0.2 0 0 0 0.06 0"/>
<feBlend mode="normal" in2="effect2_dropShadow_18359_64493" result="effect3_dropShadow_18359_64493"/>
<feColorMatrix in="SourceAlpha" type="matrix" values="0 0 0 0 0 0 0 0 0 0 0 0 0 0 0 0 0 0 127 0" result="hardAlpha"/>
<feMorphology radius="1" operator="dilate" in="SourceAlpha" result="effect4_dropShadow_18359_64493"/>
<feOffset/>
<feComposite in2="hardAlpha" operator="out"/>
<feColorMatrix type="matrix" values="0 0 0 0 0.2 0 0 0 0 0.2 0 0 0 0 0.2 0 0 0 0.04 0"/>
<feBlend mode="normal" in2="effect3_dropShadow_18359_64493" result="effect4_dropShadow_18359_64493"/>
<feBlend mode="normal" in="SourceGraphic" in2="effect4_dropShadow_18359_64493" result="shape"/>
<feColorMatrix in="SourceAlpha" type="matrix" values="0 0 0 0 0 0 0 0 0 0 0 0 0 0 0 0 0 0 127 0" result="hardAlpha"/>
<feMorphology radius="0.5" operator="dilate" in="SourceAlpha" result="effect5_innerShadow_18359_64493"/>
<feOffset dy="-1"/>
<feGaussianBlur stdDeviation="0.5"/>
<feComposite in2="hardAlpha" operator="arithmetic" k2="-1" k3="1"/>
<feColorMatrix type="matrix" values="0 0 0 0 0.2 0 0 0 0 0.2 0 0 0 0 0.2 0 0 0 0.06 0"/>
<feBlend mode="normal" in2="shape" result="effect5_innerShadow_18359_64493"/>
</filter>
<linearGradient id="paint0_linear_18359_64493" x1="42" y1="0" x2="42" y2="84" gradientUnits="userSpaceOnUse">
<stop stop-color="#2F3448"/>
<stop offset="1" stop-color="#2F3448" stop-opacity="0"/>
</linearGradient>
</defs>
</svg>
