<svg xmlns="http://www.w3.org/2000/svg" width="175" height="142" viewBox="0 0 175 142" fill="none">
  <path d="M87.3603 122C120.982 122 148.24 94.7421 148.24 61C148.24 27.2579 120.862 0 87.3603 0C53.7382 0 26.4803 27.2579 26.4803 61C26.4803 94.7421 53.7382 122 87.3603 122Z" fill="#EAEEF9"/>
  <path d="M155.969 41.6726C158.688 41.6726 160.892 39.4684 160.892 36.7494C160.892 34.0304 158.688 31.8262 155.969 31.8262C153.25 31.8262 151.046 34.0304 151.046 36.7494C151.046 39.4684 153.25 41.6726 155.969 41.6726Z" fill="#EAEEF9"/>
  <path d="M163.173 22.4607C165.03 22.4607 166.535 20.9554 166.535 19.0985C166.535 17.2416 165.03 15.7363 163.173 15.7363C161.316 15.7363 159.811 17.2416 159.811 19.0985C159.811 20.9554 161.316 22.4607 163.173 22.4607Z" fill="#EAEEF9"/>
  <path d="M29.2421 21.0135C31.099 21.0135 32.6043 19.5082 32.6043 17.6513C32.6043 15.7944 31.099 14.2891 29.2421 14.2891C27.3852 14.2891 25.8799 15.7944 25.8799 17.6513C25.8799 19.5082 27.3852 21.0135 29.2421 21.0135Z" fill="#F1F3F9"/>
  <path d="M8.70869 85.8573C12.1572 85.8573 14.9528 83.0618 14.9528 79.6132C14.9528 76.1647 12.1572 73.3691 8.70869 73.3691C5.26018 73.3691 2.4646 76.1647 2.4646 79.6132C2.4646 83.0618 5.26018 85.8573 8.70869 85.8573Z" fill="#EAEEF9"/>
  <g filter="url(#filter0_d_1277_29263)">
    <path d="M152.695 20.1694V101.89C152.695 105.468 149.797 108.402 146.219 108.402H28.7548C25.1768 108.402 22.2429 105.503 22.2429 101.89V20.1694C22.2429 16.5915 25.1411 13.6934 28.7548 13.6934H146.219C149.797 13.6934 152.695 16.5915 152.695 20.1694Z" fill="url(#paint0_linear_1277_29263)"/>
  </g>
  <path d="M152.695 20.1694V26.9318H22.2429V20.1694C22.2429 16.5915 25.1411 13.6934 28.7548 13.6934H146.219C149.797 13.6934 152.695 16.5915 152.695 20.1694Z" fill="#D5DDEA"/>
  <path d="M29.2918 22.0662C30.2798 22.0662 31.0808 21.2653 31.0808 20.2773C31.0808 19.2892 30.2798 18.4883 29.2918 18.4883C28.3038 18.4883 27.5028 19.2892 27.5028 20.2773C27.5028 21.2653 28.3038 22.0662 29.2918 22.0662Z" fill="#989FB0"/>
  <path d="M34.6587 22.0662C35.6467 22.0662 36.4476 21.2653 36.4476 20.2773C36.4476 19.2892 35.6467 18.4883 34.6587 18.4883C33.6706 18.4883 32.8697 19.2892 32.8697 20.2773C32.8697 21.2653 33.6706 22.0662 34.6587 22.0662Z" fill="#989FB0"/>
  <path d="M39.9898 22.0662C40.9778 22.0662 41.7787 21.2653 41.7787 20.2773C41.7787 19.2892 40.9778 18.4883 39.9898 18.4883C39.0018 18.4883 38.2008 19.2892 38.2008 20.2773C38.2008 21.2653 39.0018 22.0662 39.9898 22.0662Z" fill="#989FB0"/>
  <path d="M69.0068 37.4512H33.7283V72.3299H69.0068V37.4512Z" fill="#D5DDEA"/>
  <path d="M117.332 37.2754H141.674" stroke="#D6DCE8" stroke-width="4" stroke-miterlimit="10" stroke-linecap="round" stroke-linejoin="round"/>
  <path d="M79.296 37.2754H106.682" stroke="#D6DCE8" stroke-width="4" stroke-miterlimit="10" stroke-linecap="round" stroke-linejoin="round"/>
  <path d="M79.296 48.6855H141.674" stroke="#D6DCE8" stroke-width="4" stroke-miterlimit="10" stroke-linecap="round" stroke-linejoin="round"/>
  <path d="M104.399 60.0977H141.674" stroke="#D6DCE8" stroke-width="4" stroke-miterlimit="10" stroke-linecap="round" stroke-linejoin="round"/>
  <path d="M79.296 60.0977H95.2709" stroke="#D6DCE8" stroke-width="4" stroke-miterlimit="10" stroke-linecap="round" stroke-linejoin="round"/>
  <path d="M79.296 71.5059H113.528" stroke="#D6DCE8" stroke-width="4" stroke-miterlimit="10" stroke-linecap="round" stroke-linejoin="round"/>
  <path d="M106.682 82.918H141.674" stroke="#D6DCE8" stroke-width="4" stroke-miterlimit="10" stroke-linecap="round" stroke-linejoin="round"/>
  <path d="M33.6536 82.918H96.0317" stroke="#D6DCE8" stroke-width="4" stroke-miterlimit="10" stroke-linecap="round" stroke-linejoin="round"/>
  <path d="M68.6464 94.3281H114.289" stroke="#D6DCE8" stroke-width="4" stroke-miterlimit="10" stroke-linecap="round" stroke-linejoin="round"/>
  <path d="M33.6536 94.3281H57.9963" stroke="#D6DCE8" stroke-width="4" stroke-miterlimit="10" stroke-linecap="round" stroke-linejoin="round"/>
  <defs>
    <filter id="filter0_d_1277_29263" x="0.24292" y="2.69336" width="174.452" height="138.709" filterUnits="userSpaceOnUse" color-interpolation-filters="sRGB">
      <feFlood flood-opacity="0" result="BackgroundImageFix"/>
      <feColorMatrix in="SourceAlpha" type="matrix" values="0 0 0 0 0 0 0 0 0 0 0 0 0 0 0 0 0 0 127 0" result="hardAlpha"/>
      <feOffset dy="11"/>
      <feGaussianBlur stdDeviation="11"/>
      <feColorMatrix type="matrix" values="0 0 0 0 0.397708 0 0 0 0 0.47749 0 0 0 0 0.575 0 0 0 0.27 0"/>
      <feBlend mode="normal" in2="BackgroundImageFix" result="effect1_dropShadow_1277_29263"/>
      <feBlend mode="normal" in="SourceGraphic" in2="effect1_dropShadow_1277_29263" result="shape"/>
    </filter>
    <linearGradient id="paint0_linear_1277_29263" x1="87.4263" y1="11.5027" x2="87.4263" y2="109.423" gradientUnits="userSpaceOnUse">
      <stop stop-color="#FDFEFF"/>
      <stop offset="0.9964" stop-color="#ECF0F5"/>
    </linearGradient>
  </defs>
</svg>