<svg width="240" height="240" viewBox="0 0 240 240" fill="none" xmlns="http://www.w3.org/2000/svg">
    <rect width="240" height="240" fill="#F5F6F7"/>
    <path d="M133.125 121.65L129.33 116.7C129 116.26 128.56 116.04 128.01 116.04C127.46 116.04 127.02 116.26 126.69 116.7L121.163 123.96C120.723 124.51 120.654 125.088 120.956 125.693C121.259 126.298 121.768 126.6 122.483 126.6H148.718C149.433 126.6 149.941 126.298 150.244 125.693C150.546 125.088 150.478 124.51 150.038 123.96L142.035 113.483C141.705 113.043 141.265 112.823 140.715 112.823C140.165 112.823 139.725 113.043 139.395 113.483L133.125 121.65ZM115.8 139.8C113.985 139.8 112.431 139.154 111.139 137.861C109.846 136.569 109.2 135.015 109.2 133.2V93.6C109.2 91.785 109.846 90.2313 111.139 88.9388C112.431 87.6462 113.985 87 115.8 87H155.4C157.215 87 158.769 87.6462 160.061 88.9388C161.354 90.2313 162 91.785 162 93.6V133.2C162 135.015 161.354 136.569 160.061 137.861C158.769 139.154 157.215 139.8 155.4 139.8H115.8ZM115.8 133.2H155.4V93.6H115.8V133.2ZM102.6 153C100.785 153 99.2313 152.354 97.9388 151.061C96.6462 149.769 96 148.215 96 146.4V103.5C96 102.565 96.3163 101.781 96.9488 101.149C97.5813 100.516 98.365 100.2 99.3 100.2C100.235 100.2 101.019 100.516 101.651 101.149C102.284 101.781 102.6 102.565 102.6 103.5V146.4H145.5C146.435 146.4 147.219 146.716 147.851 147.349C148.484 147.981 148.8 148.765 148.8 149.7C148.8 150.635 148.484 151.419 147.851 152.051C147.219 152.684 146.435 153 145.5 153H102.6Z" fill="#98A2B3"/>
</svg>
