<svg xmlns="http://www.w3.org/2000/svg" width="40" height="40" viewBox="0 0 40 40" fill="none">
    <rect width="40" height="40" rx="6" fill="#EAECF0"/>
    <path d="M12.1502 25.8414L12.1335 25.8581C11.9085 25.3664 11.7668 24.8081 11.7085 24.1914C11.7668 24.7997 11.9252 25.3497 12.1502 25.8414Z" fill="#758195"/>
    <path d="M17.4999 18.6503C18.5953 18.6503 19.4833 17.7623 19.4833 16.6669C19.4833 15.5716 18.5953 14.6836 17.4999 14.6836C16.4046 14.6836 15.5166 15.5716 15.5166 16.6669C15.5166 17.7623 16.4046 18.6503 17.4999 18.6503Z" fill="#758195"/>
    <path d="M23.4915 11.667H16.5082C13.4748 11.667 11.6665 13.4753 11.6665 16.5087V23.492C11.6665 24.4003 11.8248 25.192 12.1332 25.8587C12.8498 27.442 14.3832 28.3337 16.5082 28.3337H23.4915C26.5248 28.3337 28.3332 26.5253 28.3332 23.492V21.5837V16.5087C28.3332 13.4753 26.5248 11.667 23.4915 11.667ZM26.9748 20.417C26.3248 19.8587 25.2748 19.8587 24.6248 20.417L21.1582 23.392C20.5082 23.9503 19.4582 23.9503 18.8082 23.392L18.5248 23.1587C17.9332 22.642 16.9915 22.592 16.3248 23.042L13.2082 25.1337C13.0248 24.667 12.9165 24.1253 12.9165 23.492V16.5087C12.9165 14.1587 14.1582 12.917 16.5082 12.917H23.4915C25.8415 12.917 27.0832 14.1587 27.0832 16.5087V20.5087L26.9748 20.417Z" fill="#758195"/>
</svg>
