<svg xmlns="http://www.w3.org/2000/svg" version="1.0" width="134.000000pt" height="134.000000pt" viewBox="0 0 134.000000 134.000000" preserveAspectRatio="xMidYMid meet">

<g transform="translate(0.000000,134.000000) scale(0.100000,-0.100000)" fill="#7742e6" stroke="none">
<path d="M81 1322 c-19 -9 -44 -30 -55 -45 -21 -28 -21 -40 -24 -585 -2 -362 1 -569 7 -592 6 -20 24 -49 41 -65 l31 -30 577 -3 c534 -2 580 -1 612 15 72 36 70 21 70 651 0 637 3 614 -74 652 -41 19 -59 20 -597 20 -508 0 -557 -1 -588 -18z m1042 -334 c-15 -83 -59 -145 -126 -177 -37 -18 -739 -211 -766 -211 -7 0 -11 25 -11 65 0 60 3 68 33 100 31 34 46 39 437 144 223 60 413 110 422 110 14 1 16 -5 11 -31z m-343 -356 c0 -61 -52 -149 -109 -184 -20 -13 -128 -48 -241 -79 l-205 -56 -3 59 c-3 65 10 102 48 130 19 13 454 141 503 147 4 1 7 -7 7 -17z"/>
</g>
</svg>