<svg xmlns="http://www.w3.org/2000/svg" width="40" height="40" viewBox="0 0 24 24" fill="none">
  <path d="M12 1.5C6.20859 1.5 1.5 6.20859 1.5 12C1.5 17.7914 6.20859 22.5 12 22.5C17.7914 22.5 22.5 17.7914 22.5 12C22.5 6.20859 17.7914 1.5 12 1.5Z" fill="white"/>
  <path d="M7.40163 14.7376C7.17204 14.39 7.7495 13.8639 7.51463 13.4222C7.37923 13.1675 7.15792 13.0088 6.89214 12.9754C6.63706 12.9434 6.37429 13.0368 6.2068 13.2193C5.94236 13.5071 5.90124 13.8988 5.95239 14.0374C5.97111 14.0882 6.00053 14.102 6.02159 14.105C6.16562 14.124 6.24667 13.7543 6.2964 13.6773C6.43388 13.4651 6.74607 13.4009 6.96168 13.5404C7.37049 13.8048 7.016 14.2321 7.04659 14.5931C7.07634 14.9445 7.29532 15.0858 7.49189 15.1006C7.68312 15.1079 7.81684 15.0016 7.85061 14.9241C7.93157 14.7389 7.59054 15.0236 7.40163 14.7376Z" fill="black"/>
  <path d="M15.9433 11.5469C15.8361 11.532 15.7188 11.5324 15.5969 11.5469C15.5043 11.4301 15.4214 11.2409 15.3746 11.0202C15.2914 10.6275 15.3001 10.343 15.5324 10.3061C15.7648 10.2691 15.8771 10.5067 15.9603 10.8994C16.0162 11.1634 16.0055 11.406 15.9433 11.5469Z" fill="black"/>
  <path d="M13.3985 11.7805C13.4076 11.8694 13.4109 11.9594 13.4083 12.0423C13.6331 12.0555 13.7923 12.1623 13.8347 12.23C13.8565 12.265 13.8478 12.2877 13.8408 12.2983C13.8175 12.3345 13.7676 12.3289 13.6631 12.3172C13.5719 12.3069 13.4736 12.2979 13.3715 12.3026C13.3159 12.4731 13.1511 12.489 13.0353 12.363C12.9544 12.3876 12.7956 12.4891 12.7482 12.3788C12.7478 12.3241 12.805 12.2446 12.9086 12.1744C12.8379 12.0395 12.7905 11.895 12.7625 11.7455C12.6156 11.772 12.4835 11.8131 12.38 11.8454C12.3313 11.8605 12.1389 11.9474 12.1164 11.8495C12.1014 11.7818 12.2067 11.6703 12.318 11.5898C12.4424 11.5014 12.5804 11.4387 12.7234 11.4024C12.7204 11.1894 12.7747 11.0409 12.9295 11.0162C13.1213 10.9857 13.2402 11.1334 13.3225 11.407C13.5544 11.4714 13.786 11.6312 13.8882 11.7963C13.928 11.8604 13.9357 11.9099 13.91 11.9359C13.8457 12.0025 13.4897 11.8094 13.3985 11.7805Z" fill="black"/>
  <path d="M14.9233 12.7378C15.0704 12.8091 15.2322 12.7811 15.285 12.6751C15.3378 12.5692 15.2613 12.4257 15.1142 12.3544C14.9671 12.2831 14.8053 12.3112 14.7524 12.4171C14.6996 12.523 14.7762 12.6666 14.9233 12.7378Z" fill="black"/>
  <path d="M15.6474 12.2118C15.6501 12.0498 15.7493 11.9204 15.8687 11.9224C15.988 11.9247 16.0826 12.0574 16.08 12.2191C16.0773 12.3808 15.978 12.5101 15.8587 12.5082C15.7393 12.5062 15.6447 12.3735 15.6474 12.2118Z" fill="black"/>
  <path fill-rule="evenodd" clip-rule="evenodd" d="M18.8839 14.1961C18.8829 14.1927 18.8862 14.2044 18.8839 14.1961C19.1236 14.1961 19.5 14.468 19.5 15.1251C19.5 15.7788 19.2252 16.5193 19.1603 16.6836C18.1704 19.0253 15.8079 20.3288 12.9936 20.2463C10.37 20.1694 8.13241 18.8029 7.15321 16.5751C6.56115 16.5757 5.9507 16.3187 5.48667 15.9128C4.99758 15.4851 4.69603 14.9317 4.63719 14.3545C4.59139 13.9051 4.64722 13.4869 4.78997 13.1223L4.24003 12.6623C1.72333 10.5648 9.59469 1.92874 12.1121 4.09617C12.1248 4.10706 12.9686 4.92413 12.9706 4.92612C14.1844 4.41739 17.4366 3.4488 17.4403 5.70359C17.4416 6.45236 16.9582 7.32554 16.1836 8.11786C17.0788 8.93733 16.8428 10.1014 16.9853 11.1694L17.2962 11.2545C17.889 11.4185 18.3105 11.6373 18.5168 11.8511C18.7231 12.0646 18.8254 12.2716 18.8625 12.5141C18.8972 12.7098 18.8926 13.0553 18.6311 13.4417C18.7253 13.691 18.8112 13.9395 18.8839 14.1961ZM7.10875 15.9675C7.19668 15.9695 7.28393 15.9639 7.36951 15.9494C8.2892 15.7946 8.52991 14.8086 8.37847 13.8404C8.2073 12.7471 7.45811 12.3616 6.94962 12.3343C6.80821 12.327 6.67682 12.3395 6.5685 12.361C5.66085 12.5415 5.14835 13.3038 5.24931 14.2938C5.34058 15.1897 6.2586 15.9451 7.10875 15.9675ZM5.05307 12.6296C5.35763 12.193 5.85542 11.8772 6.4204 11.7686C7.13951 9.86323 8.34035 8.10763 9.92967 6.89951C11.1091 5.92832 12.3812 5.23169 12.3812 5.23169C12.3812 5.23169 11.6962 4.44762 11.4892 4.38987C10.2165 4.05063 7.4678 5.92172 5.71267 8.39407C5.00259 9.3943 3.98595 11.1657 4.47204 12.0769C4.53188 12.1897 4.87121 12.4798 5.05307 12.6296ZM15.3716 15.53C15.3736 15.5504 15.3609 15.5715 15.3425 15.5791C15.3425 15.5791 14.3198 16.0487 12.6954 15.5527C12.7538 16.0397 13.3443 16.2242 13.7569 16.2909C15.7698 16.6328 17.6516 15.4966 18.0752 15.2105C18.1479 15.1614 18.0743 15.2877 18.0611 15.3062C17.5426 15.9666 16.1485 16.7312 14.3349 16.7308C13.5439 16.7305 12.7533 16.4556 12.4631 16.0329C12.0128 15.3772 12.4407 14.4198 13.1912 14.5195C14.4598 14.6609 15.7604 14.5547 16.9348 14.0166C17.9588 13.5473 18.3456 13.0312 18.2875 12.6131C18.1972 11.9651 17.2366 11.8638 16.751 11.7063C16.5397 11.6373 16.4354 11.5822 16.4116 11.1898C16.4013 11.0186 16.3712 10.4209 16.3601 10.1738C16.3408 9.74113 16.2879 9.14944 15.9162 8.90524C15.8192 8.84155 15.7116 8.81086 15.5983 8.80492C15.5079 8.80061 15.4543 8.81302 15.4255 8.8197C15.419 8.82119 15.4138 8.8224 15.4097 8.82307C15.209 8.85677 15.086 8.95832 14.9409 9.07808C14.9325 9.08498 14.9241 9.09194 14.9156 9.09895C14.4519 9.48043 14.0604 9.5428 13.6248 9.52432C13.4892 9.51865 13.3493 9.50509 13.2018 9.4908C13.0662 9.47765 12.924 9.46387 12.7727 9.45502L12.5878 9.44446C11.8583 9.4075 11.076 10.0292 10.946 10.9123C10.8007 11.898 11.3516 12.5017 11.7099 12.8944C11.7985 12.9914 11.8752 13.0755 11.9268 13.1494C11.9599 13.1939 11.9984 13.2566 11.9984 13.3163C11.9984 13.3876 11.9516 13.444 11.9058 13.4922C11.1616 14.2476 10.9236 15.4478 11.2041 16.448C11.2392 16.5728 11.2836 16.6922 11.3361 16.8064C11.994 18.3241 14.0353 19.0309 16.0292 18.3881C17.4266 17.9375 18.6612 16.8488 18.9126 15.3468C18.9725 14.9554 18.8845 14.8043 18.7649 14.7314C18.6381 14.6545 18.4864 14.6812 18.4864 14.6812C18.4864 14.6812 18.4172 14.2136 18.2213 13.7886C17.6399 14.2413 16.8917 14.5594 16.322 14.7208C15.4093 14.9793 14.4234 15.0799 13.4803 14.958C13.0977 14.9086 12.8407 14.8754 12.7305 15.2287C13.9885 15.6834 15.3201 15.4887 15.3201 15.4887C15.3458 15.4861 15.3689 15.5046 15.3716 15.53ZM11.742 6.70547C11.054 7.05296 10.2857 7.6717 9.66189 8.38351C9.63982 8.40892 9.67259 8.4439 9.69966 8.42443C10.2386 8.03734 10.9774 7.67764 11.9452 7.44467C13.0294 7.18364 14.0731 7.2932 14.7107 7.43741C14.7428 7.44467 14.7628 7.39022 14.7344 7.37438C14.3132 7.14107 13.6666 6.98267 13.2079 6.97937C13.1855 6.97904 13.1728 6.9533 13.1862 6.93548C13.2654 6.83021 13.3741 6.72626 13.4734 6.65102C13.4954 6.63386 13.4821 6.59855 13.454 6.6002C12.8834 6.63479 11.5802 7.22901 11.5848 7.2074C11.6183 7.049 11.7236 6.83978 11.7781 6.7421C11.7911 6.719 11.7657 6.69359 11.742 6.70547Z" fill="black"/>
</svg>