<svg xmlns="http://www.w3.org/2000/svg" width="20" height="20" viewBox="0 0 20 20" fill="none">
  <path d="M17.8752 9.24968C18.9106 9.24968 19.75 8.41028 19.75 7.37484C19.75 6.33939 18.9105 5.5 17.8751 5.5C16.8395 5.5 16 6.33947 16 7.375V9.24968H17.8752ZM12.625 9.24968C13.6605 9.24968 14.5 8.41021 14.5 7.37468V2.125C14.5 1.08947 13.6605 0.25 12.625 0.25C11.5895 0.25 10.75 1.08947 10.75 2.125V7.37468C10.75 8.41021 11.5895 9.24968 12.625 9.24968Z" fill="#2EB67D"/>
  <path d="M2.12484 10.7503C1.08939 10.7503 0.250001 11.5897 0.250001 12.6252C0.250001 13.6606 1.08947 14.5 2.12492 14.5C3.16045 14.5 4 13.6605 4 12.625V10.7503H2.12484ZM7.375 10.7503C6.33947 10.7503 5.5 11.5898 5.5 12.6253V17.875C5.5 18.9105 6.33947 19.75 7.375 19.75C8.41053 19.75 9.25 18.9105 9.25 17.875V12.6253C9.25 11.5898 8.41053 10.7503 7.375 10.7503Z" fill="#E01E5A"/>
  <path d="M10.7501 17.8752C10.7501 18.9106 11.5895 19.75 12.6249 19.75C13.6604 19.75 14.4998 18.9105 14.4998 17.8751C14.4998 16.8395 13.6603 16 12.6248 16L10.7501 16L10.7501 17.8752ZM10.7501 12.625C10.7501 13.6605 11.5895 14.5 12.6251 14.5L17.8748 14.5C18.9103 14.5 19.7498 13.6605 19.7498 12.625C19.7498 11.5895 18.9103 10.75 17.8748 10.75L12.6251 10.75C11.5895 10.75 10.7501 11.5895 10.7501 12.625Z" fill="#ECB22E"/>
  <path d="M9.24992 2.12484C9.24992 1.08939 8.41053 0.25 7.37508 0.25C6.33964 0.25 5.50025 1.08947 5.50025 2.12492C5.50025 3.16045 6.33971 4 7.37525 4L9.24992 4L9.24992 2.12484ZM9.24992 7.375C9.24992 6.33947 8.41046 5.5 7.37492 5.5L2.12525 5.5C1.08971 5.5 0.250244 6.33947 0.250244 7.375C0.250244 8.41053 1.08971 9.25 2.12524 9.25L7.37492 9.25C8.41046 9.25 9.24992 8.41053 9.24992 7.375Z" fill="#36C5F0"/>
</svg>