<svg width="118" height="24" viewBox="0 0 118 24" fill="none" xmlns="http://www.w3.org/2000/svg">
<rect x="0.5" y="0.5" width="33" height="23" rx="3.5" fill="white"/>
<rect x="0.5" y="0.5" width="33" height="23" rx="3.5" stroke="#F3F4F6"/>
<path fill-rule="evenodd" clip-rule="evenodd" d="M10.7501 15.8583H8.69031L7.14576 9.79247C7.07245 9.51344 6.91679 9.26676 6.68782 9.1505C6.11639 8.85833 5.48672 8.6258 4.7998 8.50853V8.27499H8.11789C8.57583 8.27499 8.91929 8.6258 8.97653 9.03323L9.77793 13.4087L11.8367 8.27499H13.8392L10.7501 15.8583ZM14.984 15.8583H13.0388L14.6406 8.27499H16.5858L14.984 15.8583ZM19.1025 10.3758C19.1597 9.96738 19.5032 9.73384 19.9039 9.73384C20.5336 9.6752 21.2195 9.79248 21.7919 10.0836L22.1354 8.45091C21.5629 8.21737 20.9333 8.1001 20.3619 8.1001C18.4738 8.1001 17.1 9.1505 17.1 10.6083C17.1 11.7174 18.0731 12.2997 18.7601 12.6505C19.5032 13.0003 19.7894 13.2338 19.7322 13.5836C19.7322 14.1083 19.1597 14.3419 18.5883 14.3419C17.9014 14.3419 17.2145 14.167 16.5858 13.8748L16.2424 15.5086C16.9293 15.7997 17.6724 15.917 18.3594 15.917C20.4763 15.9746 21.7919 14.9252 21.7919 13.3501C21.7919 11.3666 19.1025 11.2503 19.1025 10.3758ZM28.5998 15.8583L27.0553 8.27499H25.3962C25.0528 8.27499 24.7093 8.50853 24.5948 8.85833L21.7347 15.8583H23.7372L24.1369 14.7503H26.5973L26.8263 15.8583H28.5998ZM25.6824 10.3172L26.2539 13.1752H24.6521L25.6824 10.3172Z" fill="#172B85"/>
<rect x="42.5" y="0.5" width="33" height="23" rx="3.5" fill="white"/>
<rect x="42.5" y="0.5" width="33" height="23" rx="3.5" stroke="#F3F4F6"/>
<path fill-rule="evenodd" clip-rule="evenodd" d="M59.179 16.8292C57.9949 17.8273 56.459 18.4298 54.7807 18.4298C51.0358 18.4298 48 15.4301 48 11.7298C48 8.02948 51.0358 5.02979 54.7807 5.02979C56.459 5.02979 57.9949 5.63228 59.179 6.63033C60.363 5.63228 61.8989 5.02979 63.5773 5.02979C67.3221 5.02979 70.358 8.02948 70.358 11.7298C70.358 15.4301 67.3221 18.4298 63.5773 18.4298C61.8989 18.4298 60.363 17.8273 59.179 16.8292Z" fill="#ED0006"/>
<path fill-rule="evenodd" clip-rule="evenodd" d="M59.1787 16.8292C60.6366 15.6003 61.5611 13.7717 61.5611 11.7298C61.5611 9.68783 60.6366 7.85923 59.1787 6.63032C60.3628 5.63228 61.8987 5.02979 63.577 5.02979C67.3219 5.02979 70.3577 8.02948 70.3577 11.7298C70.3577 15.4301 67.3219 18.4298 63.577 18.4298C61.8987 18.4298 60.3628 17.8273 59.1787 16.8292Z" fill="#F9A000"/>
<path fill-rule="evenodd" clip-rule="evenodd" d="M59.1793 16.8292C60.6372 15.6003 61.5616 13.7717 61.5616 11.7298C61.5616 9.68787 60.6372 7.85927 59.1793 6.63037C57.7213 7.85927 56.7969 9.68787 56.7969 11.7298C56.7969 13.7717 57.7213 15.6003 59.1793 16.8292Z" fill="#FF5E00"/>
<rect x="84.5" y="0.5" width="33" height="23" rx="3.5" fill="#1F72CD"/>
<rect x="84.5" y="0.5" width="33" height="23" rx="3.5" stroke="#F3F4F6"/>
<path fill-rule="evenodd" clip-rule="evenodd" d="M90.0952 8.5L86.9141 15.7467H90.7223L91.1944 14.5913H92.2735L92.7457 15.7467H96.9375V14.8649L97.311 15.7467H99.4793L99.8528 14.8462V15.7467H108.571L109.631 14.6213L110.623 15.7467L115.101 15.7561L111.91 12.1436L115.101 8.5H110.693L109.661 9.60463L108.699 8.5H99.2156L98.4013 10.3704L97.5678 8.5H93.7675V9.35186L93.3447 8.5H90.0952ZM90.832 9.52905H92.6884L94.7984 14.4431V9.52905H96.8319L98.4617 13.0524L99.9637 9.52905H101.987V14.7291H100.756L100.746 10.6544L98.9509 14.7291H97.8495L96.0446 10.6544V14.7291H93.5118L93.0316 13.5633H90.4374L89.9583 14.728H88.6012L90.832 9.52905ZM108.12 9.52905H103.113V14.726H108.042L109.631 13.0036L111.162 14.726H112.762L110.436 12.1426L112.762 9.52905H111.231L109.651 11.2316L108.12 9.52905ZM91.7351 10.4089L90.8804 12.4856H92.5888L91.7351 10.4089ZM104.35 11.555V10.6057V10.6048H107.473L108.836 12.1229L107.413 13.6493H104.35V12.613H107.081V11.555H104.35Z" fill="white"/>
</svg>
