<svg width="30" height="20" viewBox="0 0 30 20" fill="none" xmlns="http://www.w3.org/2000/svg">
<path fill-rule="evenodd" clip-rule="evenodd" d="M1.72119 0H28.2788C28.7524 0 29.1821 0.19358 29.4946 0.507229C29.8047 0.818427 30 1.25459 30 1.72752V18.27C30 18.7454 29.8071 19.1767 29.4946 19.4903C29.1846 19.8015 28.7524 20 28.2788 20H1.72119C1.24756 20 0.817871 19.8064 0.505371 19.4928C0.192871 19.1791 0 18.7454 0 18.27V1.72752C0 1.25214 0.192871 0.820877 0.505371 0.504778C0.817871 0.19358 1.24756 0 1.72119 0ZM23.1934 12.9037H24.4556L25.3955 15.9201L26.3232 12.9037H27.6318L26.0815 17.0963H24.6826L23.1494 13.0213L21.6406 17.0963H20.2417L18.6646 12.9037H20.0122L20.9521 15.9201L21.8799 12.9037H23.103H23.1934ZM17.417 15.3786L18.5474 15.7216C18.4717 16.0402 18.3521 16.3073 18.1885 16.518C18.0249 16.7312 17.8223 16.8929 17.5806 17.0007C17.3389 17.1086 17.0312 17.1649 16.6553 17.1649C16.2012 17.1649 15.8301 17.0987 15.542 16.9664C15.2539 16.8341 15.0073 16.6013 14.7974 16.2681C14.5874 15.9348 14.4824 15.5085 14.4824 14.989C14.4824 14.2955 14.6655 13.7638 15.0342 13.3913C15.4028 13.0189 15.9229 12.8326 16.5942 12.8326C17.1191 12.8326 17.5342 12.938 17.8345 13.1536C18.1348 13.3668 18.3594 13.6952 18.5059 14.1387L17.3682 14.3911C17.3291 14.2637 17.2876 14.1705 17.2437 14.1142C17.1704 14.0162 17.0825 13.9402 16.9775 13.8863C16.8726 13.8324 16.7554 13.8054 16.626 13.8054C16.333 13.8054 16.1084 13.9231 15.9521 14.1583C15.835 14.3323 15.7764 14.6092 15.7764 14.9816C15.7764 15.4472 15.8472 15.7633 15.9863 15.9348C16.1279 16.1063 16.3257 16.1921 16.5796 16.1921C16.8262 16.1921 17.0142 16.1235 17.1387 15.9838C17.2681 15.8442 17.3608 15.6432 17.417 15.3786ZM15.127 6.45675H20.7886C21.1426 6.45675 21.4307 6.74835 21.4307 7.1012V9.33105C21.4307 9.68635 21.1401 9.9755 20.7886 9.9755H15.127C14.7729 9.9755 14.4849 9.68635 14.4849 9.33105V7.1012C14.4824 6.74835 14.7729 6.45675 15.127 6.45675ZM22.1069 8.6915V9.3335C22.1069 9.6986 21.958 10.0294 21.7188 10.2695C21.7017 10.2867 21.6846 10.3014 21.665 10.3161C21.4307 10.5268 21.123 10.6567 20.7861 10.6567H15.127C14.7656 10.6567 14.436 10.5072 14.1968 10.2671L14.1943 10.2646L14.1919 10.2671C13.9526 10.027 13.8037 9.69615 13.8037 9.33105V8.68905H0.996094V18.27C0.996094 18.4685 1.07666 18.6498 1.21094 18.7846C1.34277 18.9169 1.52344 19.0002 1.72363 19.0002H28.2812C28.479 19.0002 28.6597 18.9194 28.7939 18.7846C28.9258 18.6523 29.0088 18.471 29.0088 18.27V8.68905H22.1069V8.6915ZM3.81104 12.9919C3.53516 12.9919 3.31299 12.7665 3.31299 12.4896C3.31299 12.2127 3.5376 11.9897 3.81104 11.9897H10.9058C11.1816 11.9897 11.4038 12.2151 11.4038 12.4896C11.4038 12.7665 11.1792 12.9919 10.9058 12.9919H3.81104ZM3.81104 15.6187C3.53516 15.6187 3.31299 15.3933 3.31299 15.1164C3.31299 14.8395 3.5376 14.6165 3.81104 14.6165H8.17383C8.44971 14.6165 8.67188 14.842 8.67188 15.1188C8.67188 15.3957 8.44727 15.6187 8.17383 15.6187H3.81104ZM0.996094 3.72213H29.0039V1.72752C29.0039 1.52904 28.9233 1.34771 28.7891 1.21294C28.6572 1.08062 28.4766 0.997305 28.2764 0.997305H1.72119C1.52344 0.997305 1.34277 1.07817 1.2085 1.21294C1.07666 1.34771 0.996094 1.52904 0.996094 1.72752V3.72213Z" fill="#565865"/>
</svg>
