<svg width="34" height="24" viewBox="0 0 34 24" fill="none" xmlns="http://www.w3.org/2000/svg">
<rect x="0.5" y="0.5" width="33" height="23" rx="3.5" fill="white"/>
<rect x="0.5" y="0.5" width="33" height="23" rx="3.5" stroke="#D6DAE1"/>
<path d="M10.5183 5.00098H15.8765C16.6244 5.00098 17.0896 5.62855 16.9152 6.40106L14.4205 17.4264C14.2445 18.1962 13.4956 18.8244 12.7471 18.8244H7.38948C6.64257 18.8244 6.17633 18.1962 6.35081 17.4264L8.84647 6.40106C9.02096 5.62855 9.76943 5.00098 10.5183 5.00098Z" fill="#E21836"/>
<path d="M15.4303 5H21.5921C22.3399 5 22.0027 5.62758 21.8268 6.40009L19.3326 17.4255C19.1576 18.1953 19.2121 18.8234 18.4628 18.8234H12.301C11.5516 18.8234 11.0878 18.1953 11.2639 17.4255L13.758 6.40009C13.9351 5.62758 14.682 5 15.4303 5Z" fill="#00447C"/>
<path d="M21.3478 5H26.706C27.455 5 27.9202 5.62758 27.7443 6.40009L25.25 17.4255C25.074 18.1953 24.3246 18.8234 23.5757 18.8234H18.22C17.4706 18.8234 17.0058 18.1953 17.1813 17.4255L19.676 6.40009C19.8504 5.62758 20.5984 5 21.3478 5Z" fill="#007B84"/>
<path d="M11.9173 8.53314C11.3663 8.53892 11.2036 8.53314 11.1516 8.5205C11.1316 8.61824 10.7598 10.3839 10.7588 10.3854C10.6787 10.7426 10.6205 10.9972 10.4226 11.1616C10.3103 11.2572 10.1792 11.3033 10.0271 11.3033C9.78279 11.3033 9.64043 11.1784 9.61653 10.9415L9.61196 10.8602C9.61196 10.8602 9.6864 10.3817 9.6864 10.379C9.6864 10.379 10.0766 8.77003 10.1465 8.55734C10.1502 8.54524 10.1512 8.53892 10.1521 8.53314C9.39255 8.54 9.2579 8.53314 9.24863 8.5205C9.24353 8.53784 9.22473 8.6376 9.22473 8.6376L8.82626 10.4511L8.79204 10.6049L8.72583 11.108C8.72583 11.2572 8.7543 11.379 8.81098 11.482C8.99252 11.8086 9.51035 11.8575 9.80329 11.8575C10.1807 11.8575 10.5348 11.775 10.7741 11.6242C11.1894 11.3716 11.298 10.9768 11.3949 10.6259L11.4399 10.4459C11.4399 10.4459 11.8418 8.77473 11.9102 8.55734C11.9128 8.54524 11.9138 8.53892 11.9173 8.53314ZM13.2851 9.88125C13.1882 9.88125 13.0111 9.90545 12.852 9.98571C12.7943 10.0162 12.7397 10.0515 12.6821 10.0865L12.7341 9.89335L12.7056 9.86081C12.3683 9.93113 12.2928 9.94054 11.9812 9.98571L11.955 10.0036C11.9189 10.3124 11.8867 10.5446 11.7526 11.1516C11.7015 11.3753 11.6485 11.6012 11.5954 11.8243L11.6097 11.8527C11.9291 11.8354 12.026 11.8354 12.3035 11.8401L12.3259 11.8149C12.3612 11.629 12.3658 11.5854 12.4439 11.2089C12.4806 11.0303 12.5571 10.638 12.5949 10.4983C12.6642 10.4653 12.7326 10.4327 12.7979 10.4327C12.9535 10.4327 12.9346 10.5724 12.9285 10.6281C12.9219 10.7215 12.8652 11.0267 12.8071 11.2887L12.7683 11.4579C12.7413 11.5828 12.7116 11.7042 12.6846 11.828L12.6963 11.8527C13.0111 11.8354 13.1071 11.8354 13.3759 11.8401L13.4075 11.8149C13.456 11.5245 13.4703 11.4468 13.5565 11.024L13.5998 10.8297C13.6841 10.4495 13.7264 10.2567 13.6627 10.0997C13.5953 9.92373 13.4336 9.88125 13.2851 9.88125ZM14.813 10.2793C14.6457 10.3124 14.539 10.3344 14.433 10.3487C14.3278 10.366 14.2253 10.3818 14.0636 10.4049L14.0508 10.4169L14.0391 10.4264C14.0222 10.5504 14.0105 10.6575 13.9881 10.7835C13.9692 10.9138 13.9401 11.0618 13.8927 11.2745C13.856 11.4373 13.837 11.494 13.8161 11.5513C13.7958 11.6086 13.7733 11.6642 13.732 11.8243L13.7417 11.8391L13.7498 11.8527C13.9009 11.8453 13.9998 11.8401 14.1014 11.8391C14.2028 11.8354 14.308 11.8391 14.4707 11.8401L14.4849 11.8281L14.5002 11.8149C14.5237 11.6705 14.5273 11.6317 14.5416 11.5612C14.5559 11.4857 14.5804 11.3811 14.6406 11.1017C14.6691 10.9705 14.7008 10.8397 14.7303 10.7058C14.761 10.5724 14.7932 10.4411 14.8237 10.3098L14.8192 10.294L14.813 10.2793ZM14.8166 9.7426C14.6646 9.65024 14.3977 9.67954 14.2182 9.80713C14.0391 9.93216 14.0187 10.1096 14.1702 10.2032C14.3196 10.293 14.5875 10.2663 14.7655 10.1376C14.9442 10.0099 14.9665 9.83402 14.8166 9.7426ZM15.7359 11.8816C16.0435 11.8816 16.3588 11.7944 16.5961 11.5355C16.7787 11.3255 16.8624 11.013 16.8914 10.8844C16.9858 10.4579 16.9123 10.2588 16.8199 10.1375C16.6797 9.95266 16.4318 9.89338 16.1746 9.89338C16.02 9.89338 15.6517 9.90911 15.364 10.1822C15.1574 10.3791 15.0619 10.6464 15.0043 10.9026C14.9462 11.1637 14.8793 11.6337 15.2992 11.8086C15.4288 11.8659 15.6155 11.8816 15.7359 11.8816ZM15.7119 10.9221C15.7828 10.5992 15.8666 10.3282 16.0802 10.3282C16.2476 10.3282 16.2598 10.5298 16.1853 10.8538C16.172 10.9258 16.1109 11.1932 16.0282 11.307C15.9705 11.3911 15.9022 11.442 15.8267 11.442C15.8043 11.442 15.6706 11.442 15.6686 11.2378C15.6675 11.137 15.6875 11.034 15.7119 10.9221ZM17.6602 11.8401L17.6843 11.815C17.7183 11.629 17.724 11.5853 17.7995 11.2089C17.8372 11.0304 17.9153 10.6381 17.952 10.4984C18.0215 10.4652 18.0887 10.4326 18.1561 10.4326C18.3106 10.4326 18.2918 10.5723 18.2857 10.628C18.2801 10.7216 18.2234 11.0266 18.1642 11.2886L18.1275 11.4578C18.0994 11.5828 18.0689 11.7041 18.0418 11.828L18.0536 11.8528C18.3694 11.8354 18.4617 11.8354 18.7321 11.8401L18.7647 11.815C18.8121 11.5244 18.8249 11.4467 18.9137 11.0241L18.9561 10.8296C19.0407 10.4494 19.0835 10.2568 19.0208 10.0998C18.9515 9.92377 18.7888 9.88129 18.6424 9.88129C18.5453 9.88129 18.3673 9.90535 18.2091 9.98575C18.1526 10.0163 18.0959 10.0514 18.0403 10.0866L18.0887 9.89339L18.0627 9.86072C17.7255 9.93117 17.6485 9.94058 17.3373 9.98575L17.3134 10.0036C17.2756 10.3124 17.2449 10.5445 17.1108 11.1516C17.0597 11.3753 17.0067 11.6012 16.9537 11.8244L16.9679 11.8528C17.2878 11.8354 17.3832 11.8354 17.6602 11.8401ZM19.9804 11.8527C20.0003 11.7529 20.1182 11.1617 20.1193 11.1617C20.1193 11.1617 20.2197 10.7278 20.2258 10.7121C20.2258 10.7121 20.2574 10.6669 20.289 10.649H20.3355C20.7742 10.649 21.2696 10.649 21.6579 10.355C21.9221 10.1533 22.1027 9.85554 22.1833 9.49362C22.2042 9.40489 22.2196 9.29935 22.2196 9.19382C22.2196 9.05521 22.1926 8.91807 22.1145 8.81092C21.9165 8.52577 21.5222 8.52053 21.067 8.51838C21.0656 8.51838 20.8427 8.52053 20.8427 8.52053C20.26 8.52792 20.0264 8.52577 19.9304 8.51367C19.9223 8.55737 19.907 8.63507 19.907 8.63507C19.907 8.63507 19.6983 9.63076 19.6983 9.63237C19.6983 9.63237 19.1989 11.7493 19.1754 11.8491C19.6841 11.8427 19.8927 11.8427 19.9804 11.8527ZM20.3671 10.084C20.3671 10.084 20.589 9.0903 20.588 9.09406L20.5952 9.04311L20.5983 9.00425L20.687 9.01366C20.687 9.01366 21.1446 9.05413 21.1553 9.05521C21.3359 9.12713 21.4104 9.31253 21.3584 9.55453C21.311 9.77568 21.1716 9.96162 20.9926 10.0514C20.8451 10.1275 20.6645 10.1338 20.4784 10.1338H20.358L20.3671 10.084ZM21.7487 10.9405C21.6901 11.1979 21.6227 11.6679 22.0405 11.8354C22.1737 11.8937 22.293 11.9111 22.4144 11.9048C22.5425 11.8976 22.6612 11.8315 22.7712 11.7363C22.7612 11.7754 22.7513 11.8145 22.7414 11.8538L22.7603 11.8789C23.0608 11.8659 23.1541 11.8659 23.4797 11.8685L23.5092 11.8453C23.5567 11.5576 23.6015 11.2783 23.7251 10.7278C23.7853 10.4642 23.8454 10.2031 23.9071 9.94055L23.8975 9.91165C23.5613 9.97578 23.4715 9.98949 23.1481 10.0367L23.1235 10.0572C23.1203 10.084 23.1169 10.1097 23.1137 10.1354C23.0635 10.0517 22.9906 9.98035 22.8781 9.93585C22.7343 9.87763 22.3966 9.95265 22.1063 10.2248C21.9023 10.419 21.8043 10.6852 21.7487 10.9405ZM22.4547 10.9563C22.5267 10.6391 22.6094 10.3708 22.8235 10.3708C22.959 10.3708 23.0303 10.4994 23.0158 10.7188C23.0043 10.7736 22.9919 10.8312 22.9771 10.8964C22.9557 10.9907 22.9325 11.0841 22.9099 11.1777C22.8869 11.2417 22.8601 11.3021 22.8307 11.3422C22.7756 11.4226 22.6445 11.4725 22.569 11.4725C22.5476 11.4725 22.4154 11.4725 22.4108 11.2719C22.4098 11.172 22.4298 11.0692 22.4547 10.9563ZM26.1417 9.90908L26.1157 9.87856C25.783 9.94793 25.7228 9.95896 25.4172 10.0014L25.3948 10.0246C25.3937 10.0283 25.3928 10.0341 25.3912 10.0394L25.3902 10.0341C25.1627 10.5744 25.1693 10.4579 24.9841 10.8832C24.9831 10.8639 24.9831 10.8518 24.9821 10.8312L24.9357 9.90908L24.9066 9.87856C24.5581 9.94793 24.5499 9.95896 24.2281 10.0014L24.203 10.0246C24.1995 10.0356 24.1995 10.0477 24.1974 10.0609L24.1995 10.0656C24.2397 10.2772 24.2301 10.23 24.2704 10.5639C24.2892 10.7278 24.3143 10.8927 24.3331 11.0545C24.3648 11.3254 24.3826 11.4588 24.4214 11.8722C24.2041 12.2414 24.1526 12.3811 23.9434 12.7051L23.9448 12.7083L23.7975 12.9482C23.7807 12.9734 23.7654 12.9908 23.744 12.9982C23.7204 13.0101 23.6899 13.0123 23.6474 13.0123H23.5658L23.4445 13.4277L23.8607 13.4351C24.1051 13.434 24.2587 13.3164 24.3413 13.1583L24.6031 12.6966H24.5989L24.6264 12.6641C24.8025 12.2739 26.1417 9.90908 26.1417 9.90908ZM21.7487 15.3651H21.5721L22.2256 13.1399H22.4424L22.5113 12.9107L22.5179 13.1656C22.5098 13.3232 22.6302 13.4629 22.9466 13.4397H23.3124L23.4383 13.0113H23.3006C23.2215 13.0113 23.1848 12.9907 23.1893 12.9466L23.1827 12.6873H22.5053V12.6886C22.2862 12.6933 21.6322 12.7103 21.4998 12.7466C21.3395 12.789 21.1706 12.9141 21.1706 12.9141L21.237 12.6846H20.6033L20.4713 13.1399L19.809 15.3991H19.6805L19.5544 15.8245H20.8166L20.7743 15.9663H21.3962L21.4375 15.8245H21.6119L21.7487 15.3651ZM21.2308 13.5921C21.1294 13.621 20.9405 13.7086 20.9405 13.7086L21.1085 13.1399H21.6119L21.4905 13.5543C21.4905 13.5543 21.3349 13.5637 21.2308 13.5921ZM21.2405 14.4045C21.2405 14.4045 21.0824 14.4249 20.9783 14.4491C20.8757 14.4811 20.6835 14.582 20.6835 14.582L20.8569 13.9901H21.363L21.2405 14.4045ZM20.9584 15.3703H20.4534L20.5998 14.8709H21.1032L20.9584 15.3703ZM22.1746 13.9901H22.9026L22.798 14.3389H22.0604L21.9496 14.7202H22.5951L22.1063 15.4286C22.0721 15.4806 22.0414 15.499 22.0073 15.5137C21.9731 15.5315 21.9282 15.5525 21.8762 15.5525H21.6972L21.5741 15.9701H22.0425C22.2859 15.9701 22.4297 15.8561 22.5359 15.7064L22.871 15.2343L22.943 15.7137C22.9583 15.8035 23.0209 15.8561 23.0634 15.8765C23.1103 15.9007 23.1587 15.9423 23.2272 15.9484C23.3006 15.9517 23.3536 15.9542 23.3889 15.9542H23.619L23.7571 15.4869H23.6664C23.6143 15.4869 23.5245 15.4779 23.5093 15.4611C23.494 15.4407 23.494 15.4092 23.4858 15.3613L23.4128 14.8808H23.1138L23.2449 14.7202H23.9811L24.0944 14.3389H23.4128L23.5189 13.9901H24.1984L24.3245 13.5601H22.2986L22.1746 13.9901ZM16.0262 15.4674L16.1961 14.8856H16.8944L17.022 14.4528H16.323L16.4297 14.0947H17.1128L17.2393 13.6756H15.5303L15.4063 14.0947H15.7946L15.691 14.4528H15.3017L15.1727 14.893H15.5608L15.3344 15.6628C15.3038 15.7647 15.3487 15.8036 15.3772 15.8509C15.4063 15.897 15.4359 15.9275 15.5022 15.9449C15.5706 15.9606 15.6175 15.97 15.6813 15.97H16.4685L16.6088 15.4906L16.2598 15.5399C16.1924 15.5399 16.0058 15.5316 16.0262 15.4674ZM16.1063 12.682L15.9293 13.0112C15.8914 13.0831 15.8573 13.1278 15.8267 13.1483C15.7996 13.1657 15.7461 13.1729 15.6685 13.1729H15.5762L15.4527 13.5941H15.7594C15.9068 13.5941 16.0201 13.5385 16.0741 13.5107C16.1323 13.4787 16.1475 13.4969 16.1925 13.4523L16.296 13.36H17.2536L17.3807 12.9214H16.6797L16.8021 12.682H16.1063ZM17.52 15.4759C17.5036 15.4517 17.5154 15.4091 17.5403 15.3204L17.8021 14.4286H18.7331C18.8688 14.4266 18.9668 14.425 19.0305 14.4203C19.0989 14.4129 19.1734 14.3877 19.2545 14.3426C19.3382 14.2952 19.381 14.2453 19.4172 14.1881C19.4576 14.1309 19.5223 14.0059 19.578 13.8131L19.907 12.6846L18.9408 12.6904C18.9408 12.6904 18.6433 12.7356 18.5123 12.7854C18.3801 12.8411 18.1912 12.9965 18.1912 12.9965L18.2785 12.6872H17.6816L16.846 15.5399C16.8164 15.6507 16.7966 15.7311 16.792 15.7793C16.7904 15.8314 16.8557 15.8829 16.898 15.9217C16.948 15.9606 17.022 15.9542 17.0929 15.9606C17.1675 15.9663 17.2735 15.97 17.4199 15.97H17.8786L18.0194 15.4806L17.6088 15.5205C17.5649 15.5205 17.5331 15.4963 17.52 15.4759ZM17.9709 13.8263H18.9489L18.8867 14.0269C18.8779 14.0316 18.857 14.0169 18.7575 14.029H17.9107L17.9709 13.8263ZM18.1668 13.1535H19.153L19.0821 13.3951C19.0821 13.3951 18.6173 13.3904 18.5428 13.4045C18.2153 13.4629 18.0239 13.643 18.0239 13.643L18.1668 13.1535ZM18.9086 14.6986C18.9005 14.7286 18.8877 14.7469 18.8698 14.7606C18.8499 14.7737 18.8178 14.7785 18.7699 14.7785H18.6305L18.6388 14.5342H18.0592L18.0356 15.7284C18.0347 15.8146 18.0428 15.8645 18.1041 15.9044C18.1653 15.9543 18.3541 15.9606 18.6081 15.9606H18.9713L19.1024 15.5136L18.7862 15.5315L18.6811 15.5378C18.6667 15.5315 18.653 15.5257 18.6377 15.51C18.6244 15.4964 18.6019 15.5047 18.6056 15.4185L18.6081 15.1124L18.9397 15.0983C19.1187 15.0983 19.1953 15.0383 19.2606 14.9812C19.3229 14.9265 19.3432 14.8636 19.3667 14.7785L19.4224 14.5074H18.9667L18.9086 14.6986Z" fill="#FEFEFE"/>
</svg>
