<svg xmlns="http://www.w3.org/2000/svg" width="88" height="27" viewBox="0 0 88 27" fill="" title="paddle-logo" class="sc-hneQBV cRvDPd">
    <g clip-path="url(#clip0_481_7817)">
        <path d="M0 13.8779V13.1472C0.90398 13.147 1.77087 12.7914 2.41008 12.1585C3.04929 11.5256 3.40849 10.6673 3.40871 9.77233H4.09094C4.09041 10.2159 4.17817 10.6552 4.34922 11.0652C4.52028 11.4752 4.77126 11.8478 5.08783 12.1617C5.4044 12.4755 5.78035 12.7246 6.19419 12.8945C6.60802 13.0645 7.05163 13.152 7.49965 13.1521V13.8828C6.59567 13.883 5.72878 14.2386 5.08957 14.8715C4.45036 15.5044 4.09116 16.3627 4.09094 17.2577H3.40871C3.40925 16.8141 3.32148 16.3748 3.15043 15.9648C2.97938 15.5548 2.72839 15.1822 2.41182 14.8684C2.09525 14.5545 1.7193 14.3054 1.30547 14.1355C0.891631 13.9655 0.448022 13.878 0 13.8779ZM3.40871 8.50502H9.27166C12.1351 8.50502 14.181 10.5298 14.181 13.5004C14.181 16.471 12.1359 18.4949 9.27166 18.4949H3.40871V27H5.86295V20.6553H9.27166C13.3897 20.6553 16.6352 17.442 16.6352 13.5004C16.6352 9.55882 13.3897 6.34467 9.27166 6.34467H3.40871V8.50502Z" fill="black"/>
        <path d="M25.4433 6.3179C27.5974 6.3179 29.5064 7.39767 30.706 9.09933V6.74981H33.1603V20.2502H30.706V17.9007C29.4761 19.6056 27.5704 20.6821 25.4433 20.6821C21.4065 20.6821 17.9978 17.5232 17.9978 13.5004C17.9978 9.47766 21.4065 6.3179 25.4433 6.3179ZM25.4433 18.5218C28.606 18.5218 30.706 16.3622 30.706 13.5004C30.706 10.611 28.6339 8.47826 25.4433 8.47826C22.607 8.47826 20.452 10.503 20.452 13.5004C20.452 16.4978 22.607 18.5218 25.4433 18.5218Z" fill="black"/>
        <path d="M42.241 6.31789C44.3959 6.31789 46.3048 7.39766 47.5045 9.09932V0H49.9587V20.2502H47.5045V17.9007C46.3048 19.6056 44.3959 20.6821 42.241 20.6821C38.2049 20.6821 34.7962 17.5232 34.7962 13.5004C34.7962 9.47764 38.2049 6.31789 42.241 6.31789ZM42.241 18.5218C45.4315 18.5218 47.5045 16.389 47.5045 13.5004C47.5045 10.6118 45.4315 8.47824 42.241 8.47824C39.4054 8.47824 37.2505 10.503 37.2505 13.5004C37.2505 16.4978 39.4054 18.5218 42.241 18.5218Z" fill="black"/>
        <path d="M59.3137 6.31789C61.4678 6.31789 63.3768 7.39766 64.5773 9.09932V0H67.0315V20.2502H64.5773V17.9007C63.3768 19.6056 61.4678 20.6821 59.3137 20.6821C55.2777 20.6821 51.869 17.5232 51.869 13.5004C51.869 9.47764 55.2777 6.31789 59.3137 6.31789ZM59.3137 18.5218C62.5043 18.5218 64.5773 16.389 64.5773 13.5004C64.5773 10.6118 62.5043 8.47824 59.3137 8.47824C56.4774 8.47824 54.3232 10.503 54.3232 13.5004C54.3232 16.4978 56.4774 18.5218 59.3137 18.5218Z" fill="black"/>
        <path d="M69.4826 20.2502V0H71.9377V20.2502H69.4826Z" fill="black"/>
        <path d="M81.0203 6.34525C85.7377 6.34525 88.0009 9.99049 88.0009 14.446H76.2209C76.6022 17.0642 78.5661 18.7659 81.0203 18.7659C82.7111 18.7659 84.0198 18.0092 85.0014 16.5243H87.6467C86.7192 18.6035 84.2929 20.6559 81.0203 20.6559C76.9023 20.6559 73.7117 17.3881 73.7117 13.501C73.7117 9.61379 76.9023 6.34525 81.0203 6.34525ZM85.5467 12.556C85.5467 10.3412 83.6377 8.23525 81.0203 8.23525C78.5661 8.23525 76.6022 9.94016 76.2209 12.556H85.5467Z" fill="black"/>
    </g>
    <defs>
        <clipPath id="clip0_481_7817">
            <rect width="88" height="27" fill="white"/>
        </clipPath>
    </defs>
</svg>
